%
M48
M72
T01C0.0320
T02C0.0354
T03C0.0394
T04C0.1260
%
T01
X6803Y4160
X6803Y5160
X7803Y5160
X9803Y5160
X10803Y5160
X9803Y4160
X12803Y4160
X12803Y5160
X13803Y5160
X5053Y6410
X4053Y6410
X4053Y5410
T02
X6303Y7160
X8303Y7160
X10303Y7160
X12303Y7160
X12303Y11160
X10303Y11160
X8303Y11160
X6303Y11160
T03
X6303Y13160
X7303Y13160
X9053Y13160
X10053Y13160
X11053Y13160
X12053Y13160
X11803Y2160
X12803Y2160
X10553Y2160
X9553Y2160
X8303Y2160
X7303Y2160
X6053Y2160
X5053Y2160
T04
X3553Y1160
X14303Y1160
X14303Y13660
X3553Y13660
M30
