G75*
%MOIN*%
%OFA0B0*%
%FSLAX25Y25*%
%IPPOS*%
%LPD*%
%AMOC8*
5,1,8,0,0,1.08239X$1,22.5*
%
%ADD10C,0.06600*%
%ADD11R,0.08268X0.08268*%
%ADD12C,0.01600*%
D10*
X0100157Y0135000D03*
X0119843Y0135000D03*
X0120157Y0145000D03*
X0139843Y0145000D03*
X0165157Y0135000D03*
X0184843Y0135000D03*
X0185157Y0145000D03*
X0204843Y0145000D03*
X0230157Y0135000D03*
X0249843Y0135000D03*
X0250157Y0145000D03*
X0269843Y0145000D03*
D11*
X0041732Y0071673D03*
X0058268Y0071673D03*
X0058268Y0093327D03*
X0041732Y0093327D03*
D12*
X0041154Y0092918D02*
X0014800Y0092918D01*
X0014800Y0091320D02*
X0035798Y0091320D01*
X0035798Y0092749D02*
X0035798Y0088956D01*
X0035921Y0088498D01*
X0036158Y0088088D01*
X0036493Y0087753D01*
X0036904Y0087516D01*
X0037361Y0087393D01*
X0041154Y0087393D01*
X0041154Y0092749D01*
X0035798Y0092749D01*
X0035798Y0093905D02*
X0041154Y0093905D01*
X0041154Y0092749D01*
X0042310Y0092749D01*
X0042310Y0087393D01*
X0046103Y0087393D01*
X0046561Y0087516D01*
X0046971Y0087753D01*
X0047306Y0088088D01*
X0047543Y0088498D01*
X0047666Y0088956D01*
X0047666Y0092749D01*
X0042310Y0092749D01*
X0042310Y0093905D01*
X0041154Y0093905D01*
X0041154Y0099261D01*
X0037361Y0099261D01*
X0036904Y0099138D01*
X0036493Y0098901D01*
X0036158Y0098566D01*
X0035921Y0098155D01*
X0035798Y0097698D01*
X0035798Y0093905D01*
X0035798Y0094517D02*
X0014800Y0094517D01*
X0014800Y0096115D02*
X0035798Y0096115D01*
X0035803Y0097714D02*
X0014800Y0097714D01*
X0014800Y0099312D02*
X0150000Y0099312D01*
X0150000Y0097714D02*
X0064197Y0097714D01*
X0064202Y0097698D02*
X0064079Y0098155D01*
X0063842Y0098566D01*
X0063507Y0098901D01*
X0063096Y0099138D01*
X0062639Y0099261D01*
X0058846Y0099261D01*
X0058846Y0093905D01*
X0064202Y0093905D01*
X0064202Y0097698D01*
X0064202Y0096115D02*
X0150000Y0096115D01*
X0150000Y0094517D02*
X0064202Y0094517D01*
X0064202Y0092749D02*
X0058846Y0092749D01*
X0058846Y0093905D01*
X0057690Y0093905D01*
X0057690Y0099261D01*
X0053897Y0099261D01*
X0053439Y0099138D01*
X0053029Y0098901D01*
X0052693Y0098566D01*
X0052457Y0098155D01*
X0052334Y0097698D01*
X0052334Y0093905D01*
X0057690Y0093905D01*
X0057690Y0092749D01*
X0058846Y0092749D01*
X0058846Y0087393D01*
X0062639Y0087393D01*
X0063096Y0087516D01*
X0063507Y0087753D01*
X0063842Y0088088D01*
X0064079Y0088498D01*
X0064202Y0088956D01*
X0064202Y0092749D01*
X0064202Y0091320D02*
X0150000Y0091320D01*
X0150000Y0092918D02*
X0058846Y0092918D01*
X0057690Y0092918D02*
X0042310Y0092918D01*
X0042310Y0093905D02*
X0047666Y0093905D01*
X0047666Y0097698D01*
X0047543Y0098155D01*
X0047306Y0098566D01*
X0046971Y0098901D01*
X0046561Y0099138D01*
X0046103Y0099261D01*
X0042310Y0099261D01*
X0042310Y0093905D01*
X0042310Y0094517D02*
X0041154Y0094517D01*
X0041154Y0096115D02*
X0042310Y0096115D01*
X0042310Y0097714D02*
X0041154Y0097714D01*
X0047662Y0097714D02*
X0052338Y0097714D01*
X0052334Y0096115D02*
X0047666Y0096115D01*
X0047666Y0094517D02*
X0052334Y0094517D01*
X0052334Y0092749D02*
X0052334Y0088956D01*
X0052457Y0088498D01*
X0052693Y0088088D01*
X0053029Y0087753D01*
X0053439Y0087516D01*
X0053897Y0087393D01*
X0057690Y0087393D01*
X0057690Y0092749D01*
X0052334Y0092749D01*
X0052334Y0091320D02*
X0047666Y0091320D01*
X0047666Y0089721D02*
X0052334Y0089721D01*
X0052673Y0088123D02*
X0047327Y0088123D01*
X0042310Y0088123D02*
X0041154Y0088123D01*
X0041154Y0089721D02*
X0042310Y0089721D01*
X0042310Y0091320D02*
X0041154Y0091320D01*
X0035798Y0089721D02*
X0014800Y0089721D01*
X0014800Y0088123D02*
X0036138Y0088123D01*
X0014800Y0086524D02*
X0150000Y0086524D01*
X0150000Y0085000D02*
X0014800Y0085000D01*
X0014800Y0105200D01*
X0063455Y0105200D01*
X0065219Y0105931D01*
X0066569Y0107281D01*
X0067300Y0109045D01*
X0067300Y0150161D01*
X0115277Y0150161D01*
X0114138Y0149022D01*
X0113057Y0146412D01*
X0113057Y0143588D01*
X0114138Y0140978D01*
X0114959Y0140157D01*
X0113823Y0139022D01*
X0112743Y0136412D01*
X0112743Y0133588D01*
X0113823Y0130978D01*
X0115821Y0128981D01*
X0118430Y0127900D01*
X0121255Y0127900D01*
X0123864Y0128981D01*
X0125862Y0130978D01*
X0126943Y0133588D01*
X0126943Y0136412D01*
X0125862Y0139022D01*
X0125041Y0139843D01*
X0126177Y0140978D01*
X0127257Y0143588D01*
X0127257Y0146412D01*
X0126177Y0149022D01*
X0125038Y0150161D01*
X0134962Y0150161D01*
X0133823Y0149022D01*
X0132743Y0146412D01*
X0132743Y0143588D01*
X0133823Y0140978D01*
X0135821Y0138981D01*
X0138430Y0137900D01*
X0141255Y0137900D01*
X0143864Y0138981D01*
X0145862Y0140978D01*
X0146943Y0143588D01*
X0146943Y0146412D01*
X0145862Y0149022D01*
X0144723Y0150161D01*
X0150000Y0150161D01*
X0150000Y0085000D01*
X0150000Y0088123D02*
X0063862Y0088123D01*
X0064202Y0089721D02*
X0150000Y0089721D01*
X0150000Y0100911D02*
X0014800Y0100911D01*
X0014800Y0102509D02*
X0150000Y0102509D01*
X0150000Y0104108D02*
X0014800Y0104108D01*
X0057690Y0097714D02*
X0058846Y0097714D01*
X0058846Y0096115D02*
X0057690Y0096115D01*
X0057690Y0094517D02*
X0058846Y0094517D01*
X0058846Y0091320D02*
X0057690Y0091320D01*
X0057690Y0089721D02*
X0058846Y0089721D01*
X0058846Y0088123D02*
X0057690Y0088123D01*
X0064677Y0105706D02*
X0150000Y0105706D01*
X0150000Y0107305D02*
X0066579Y0107305D01*
X0067241Y0108903D02*
X0150000Y0108903D01*
X0150000Y0110502D02*
X0067300Y0110502D01*
X0067300Y0112100D02*
X0150000Y0112100D01*
X0150000Y0113699D02*
X0067300Y0113699D01*
X0067300Y0115297D02*
X0150000Y0115297D01*
X0150000Y0116896D02*
X0067300Y0116896D01*
X0067300Y0118494D02*
X0150000Y0118494D01*
X0150000Y0120093D02*
X0067300Y0120093D01*
X0067300Y0121691D02*
X0150000Y0121691D01*
X0150000Y0123290D02*
X0067300Y0123290D01*
X0067300Y0124888D02*
X0150000Y0124888D01*
X0150000Y0126487D02*
X0067300Y0126487D01*
X0067300Y0128085D02*
X0117983Y0128085D01*
X0115118Y0129684D02*
X0067300Y0129684D01*
X0067300Y0131282D02*
X0096663Y0131282D01*
X0096835Y0131110D02*
X0097484Y0130638D01*
X0098200Y0130274D01*
X0098963Y0130026D01*
X0099756Y0129900D01*
X0100157Y0129900D01*
X0100157Y0135000D01*
X0095057Y0135000D01*
X0095057Y0134599D01*
X0095183Y0133806D01*
X0095431Y0133042D01*
X0095796Y0132327D01*
X0096267Y0131678D01*
X0096835Y0131110D01*
X0095513Y0132881D02*
X0067300Y0132881D01*
X0067300Y0134479D02*
X0095076Y0134479D01*
X0095057Y0135000D02*
X0100157Y0135000D01*
X0100157Y0135000D01*
X0100158Y0135000D01*
X0105257Y0135000D01*
X0100158Y0135000D01*
X0100158Y0135000D01*
X0100158Y0129900D01*
X0100559Y0129900D01*
X0101352Y0130026D01*
X0102115Y0130274D01*
X0102830Y0130638D01*
X0103480Y0131110D01*
X0104048Y0131678D01*
X0104519Y0132327D01*
X0104884Y0133042D01*
X0105132Y0133806D01*
X0105257Y0134599D01*
X0105257Y0135000D01*
X0105257Y0135401D01*
X0105132Y0136194D01*
X0104884Y0136958D01*
X0104519Y0137673D01*
X0104048Y0138322D01*
X0103480Y0138890D01*
X0102830Y0139362D01*
X0102115Y0139726D01*
X0101352Y0139974D01*
X0100559Y0140100D01*
X0100158Y0140100D01*
X0100158Y0135000D01*
X0100157Y0135000D01*
X0100157Y0140100D01*
X0099756Y0140100D01*
X0098963Y0139974D01*
X0098200Y0139726D01*
X0097484Y0139362D01*
X0096835Y0138890D01*
X0096267Y0138322D01*
X0095796Y0137673D01*
X0095431Y0136958D01*
X0095183Y0136194D01*
X0095057Y0135401D01*
X0095057Y0135000D01*
X0095165Y0136078D02*
X0067300Y0136078D01*
X0067300Y0137676D02*
X0095798Y0137676D01*
X0097365Y0139275D02*
X0067300Y0139275D01*
X0067300Y0140873D02*
X0114243Y0140873D01*
X0114077Y0139275D02*
X0102950Y0139275D01*
X0104517Y0137676D02*
X0113266Y0137676D01*
X0112743Y0136078D02*
X0105150Y0136078D01*
X0105239Y0134479D02*
X0112743Y0134479D01*
X0113035Y0132881D02*
X0104802Y0132881D01*
X0103652Y0131282D02*
X0113697Y0131282D01*
X0121702Y0128085D02*
X0150000Y0128085D01*
X0150000Y0129684D02*
X0124567Y0129684D01*
X0125988Y0131282D02*
X0150000Y0131282D01*
X0150000Y0132881D02*
X0126650Y0132881D01*
X0126943Y0134479D02*
X0150000Y0134479D01*
X0150000Y0136078D02*
X0126943Y0136078D01*
X0126419Y0137676D02*
X0150000Y0137676D01*
X0150000Y0139275D02*
X0144158Y0139275D01*
X0145757Y0140873D02*
X0150000Y0140873D01*
X0150000Y0142472D02*
X0146480Y0142472D01*
X0146943Y0144070D02*
X0150000Y0144070D01*
X0150000Y0145669D02*
X0146943Y0145669D01*
X0146588Y0147268D02*
X0150000Y0147268D01*
X0150000Y0148866D02*
X0145926Y0148866D01*
X0133759Y0148866D02*
X0126241Y0148866D01*
X0126903Y0147268D02*
X0133097Y0147268D01*
X0132743Y0145669D02*
X0127257Y0145669D01*
X0127257Y0144070D02*
X0132743Y0144070D01*
X0133205Y0142472D02*
X0126795Y0142472D01*
X0126072Y0140873D02*
X0133928Y0140873D01*
X0135527Y0139275D02*
X0125608Y0139275D01*
X0113520Y0142472D02*
X0067300Y0142472D01*
X0067300Y0144070D02*
X0113057Y0144070D01*
X0113057Y0145669D02*
X0067300Y0145669D01*
X0067300Y0147268D02*
X0113412Y0147268D01*
X0114074Y0148866D02*
X0067300Y0148866D01*
X0100157Y0139275D02*
X0100158Y0139275D01*
X0100157Y0137676D02*
X0100158Y0137676D01*
X0100157Y0136078D02*
X0100158Y0136078D01*
X0100157Y0134479D02*
X0100158Y0134479D01*
X0100157Y0132881D02*
X0100158Y0132881D01*
X0100157Y0131282D02*
X0100158Y0131282D01*
M02*
