G75*
%MOIN*%
%OFA0B0*%
%FSLAX25Y25*%
%IPPOS*%
%LPD*%
%AMOC8*
5,1,8,0,0,1.08239X$1,22.5*
%
%ADD10C,0.00000*%
%ADD11C,0.00600*%
%ADD12C,0.00400*%
%ADD13C,0.01200*%
%ADD14C,0.00200*%
%ADD15C,0.00800*%
%ADD16C,0.00500*%
D10*
X0010000Y0010000D02*
X0010000Y0110000D01*
X0062500Y0110000D01*
X0062500Y0154961D01*
X0298701Y0154961D01*
X0298701Y0010000D01*
X0010000Y0010000D01*
X0017322Y0069469D02*
X0017324Y0069622D01*
X0017330Y0069776D01*
X0017340Y0069929D01*
X0017354Y0070081D01*
X0017372Y0070234D01*
X0017394Y0070385D01*
X0017419Y0070536D01*
X0017449Y0070687D01*
X0017483Y0070837D01*
X0017520Y0070985D01*
X0017561Y0071133D01*
X0017606Y0071279D01*
X0017655Y0071425D01*
X0017708Y0071569D01*
X0017764Y0071711D01*
X0017824Y0071852D01*
X0017888Y0071992D01*
X0017955Y0072130D01*
X0018026Y0072266D01*
X0018101Y0072400D01*
X0018178Y0072532D01*
X0018260Y0072662D01*
X0018344Y0072790D01*
X0018432Y0072916D01*
X0018523Y0073039D01*
X0018617Y0073160D01*
X0018715Y0073278D01*
X0018815Y0073394D01*
X0018919Y0073507D01*
X0019025Y0073618D01*
X0019134Y0073726D01*
X0019246Y0073831D01*
X0019360Y0073932D01*
X0019478Y0074031D01*
X0019597Y0074127D01*
X0019719Y0074220D01*
X0019844Y0074309D01*
X0019971Y0074396D01*
X0020100Y0074478D01*
X0020231Y0074558D01*
X0020364Y0074634D01*
X0020499Y0074707D01*
X0020636Y0074776D01*
X0020775Y0074841D01*
X0020915Y0074903D01*
X0021057Y0074961D01*
X0021200Y0075016D01*
X0021345Y0075067D01*
X0021491Y0075114D01*
X0021638Y0075157D01*
X0021786Y0075196D01*
X0021935Y0075232D01*
X0022085Y0075263D01*
X0022236Y0075291D01*
X0022387Y0075315D01*
X0022540Y0075335D01*
X0022692Y0075351D01*
X0022845Y0075363D01*
X0022998Y0075371D01*
X0023151Y0075375D01*
X0023305Y0075375D01*
X0023458Y0075371D01*
X0023611Y0075363D01*
X0023764Y0075351D01*
X0023916Y0075335D01*
X0024069Y0075315D01*
X0024220Y0075291D01*
X0024371Y0075263D01*
X0024521Y0075232D01*
X0024670Y0075196D01*
X0024818Y0075157D01*
X0024965Y0075114D01*
X0025111Y0075067D01*
X0025256Y0075016D01*
X0025399Y0074961D01*
X0025541Y0074903D01*
X0025681Y0074841D01*
X0025820Y0074776D01*
X0025957Y0074707D01*
X0026092Y0074634D01*
X0026225Y0074558D01*
X0026356Y0074478D01*
X0026485Y0074396D01*
X0026612Y0074309D01*
X0026737Y0074220D01*
X0026859Y0074127D01*
X0026978Y0074031D01*
X0027096Y0073932D01*
X0027210Y0073831D01*
X0027322Y0073726D01*
X0027431Y0073618D01*
X0027537Y0073507D01*
X0027641Y0073394D01*
X0027741Y0073278D01*
X0027839Y0073160D01*
X0027933Y0073039D01*
X0028024Y0072916D01*
X0028112Y0072790D01*
X0028196Y0072662D01*
X0028278Y0072532D01*
X0028355Y0072400D01*
X0028430Y0072266D01*
X0028501Y0072130D01*
X0028568Y0071992D01*
X0028632Y0071852D01*
X0028692Y0071711D01*
X0028748Y0071569D01*
X0028801Y0071425D01*
X0028850Y0071279D01*
X0028895Y0071133D01*
X0028936Y0070985D01*
X0028973Y0070837D01*
X0029007Y0070687D01*
X0029037Y0070536D01*
X0029062Y0070385D01*
X0029084Y0070234D01*
X0029102Y0070081D01*
X0029116Y0069929D01*
X0029126Y0069776D01*
X0029132Y0069622D01*
X0029134Y0069469D01*
X0029132Y0069316D01*
X0029126Y0069162D01*
X0029116Y0069009D01*
X0029102Y0068857D01*
X0029084Y0068704D01*
X0029062Y0068553D01*
X0029037Y0068402D01*
X0029007Y0068251D01*
X0028973Y0068101D01*
X0028936Y0067953D01*
X0028895Y0067805D01*
X0028850Y0067659D01*
X0028801Y0067513D01*
X0028748Y0067369D01*
X0028692Y0067227D01*
X0028632Y0067086D01*
X0028568Y0066946D01*
X0028501Y0066808D01*
X0028430Y0066672D01*
X0028355Y0066538D01*
X0028278Y0066406D01*
X0028196Y0066276D01*
X0028112Y0066148D01*
X0028024Y0066022D01*
X0027933Y0065899D01*
X0027839Y0065778D01*
X0027741Y0065660D01*
X0027641Y0065544D01*
X0027537Y0065431D01*
X0027431Y0065320D01*
X0027322Y0065212D01*
X0027210Y0065107D01*
X0027096Y0065006D01*
X0026978Y0064907D01*
X0026859Y0064811D01*
X0026737Y0064718D01*
X0026612Y0064629D01*
X0026485Y0064542D01*
X0026356Y0064460D01*
X0026225Y0064380D01*
X0026092Y0064304D01*
X0025957Y0064231D01*
X0025820Y0064162D01*
X0025681Y0064097D01*
X0025541Y0064035D01*
X0025399Y0063977D01*
X0025256Y0063922D01*
X0025111Y0063871D01*
X0024965Y0063824D01*
X0024818Y0063781D01*
X0024670Y0063742D01*
X0024521Y0063706D01*
X0024371Y0063675D01*
X0024220Y0063647D01*
X0024069Y0063623D01*
X0023916Y0063603D01*
X0023764Y0063587D01*
X0023611Y0063575D01*
X0023458Y0063567D01*
X0023305Y0063563D01*
X0023151Y0063563D01*
X0022998Y0063567D01*
X0022845Y0063575D01*
X0022692Y0063587D01*
X0022540Y0063603D01*
X0022387Y0063623D01*
X0022236Y0063647D01*
X0022085Y0063675D01*
X0021935Y0063706D01*
X0021786Y0063742D01*
X0021638Y0063781D01*
X0021491Y0063824D01*
X0021345Y0063871D01*
X0021200Y0063922D01*
X0021057Y0063977D01*
X0020915Y0064035D01*
X0020775Y0064097D01*
X0020636Y0064162D01*
X0020499Y0064231D01*
X0020364Y0064304D01*
X0020231Y0064380D01*
X0020100Y0064460D01*
X0019971Y0064542D01*
X0019844Y0064629D01*
X0019719Y0064718D01*
X0019597Y0064811D01*
X0019478Y0064907D01*
X0019360Y0065006D01*
X0019246Y0065107D01*
X0019134Y0065212D01*
X0019025Y0065320D01*
X0018919Y0065431D01*
X0018815Y0065544D01*
X0018715Y0065660D01*
X0018617Y0065778D01*
X0018523Y0065899D01*
X0018432Y0066022D01*
X0018344Y0066148D01*
X0018260Y0066276D01*
X0018178Y0066406D01*
X0018101Y0066538D01*
X0018026Y0066672D01*
X0017955Y0066808D01*
X0017888Y0066946D01*
X0017824Y0067086D01*
X0017764Y0067227D01*
X0017708Y0067369D01*
X0017655Y0067513D01*
X0017606Y0067659D01*
X0017561Y0067805D01*
X0017520Y0067953D01*
X0017483Y0068101D01*
X0017449Y0068251D01*
X0017419Y0068402D01*
X0017394Y0068553D01*
X0017372Y0068704D01*
X0017354Y0068857D01*
X0017340Y0069009D01*
X0017330Y0069162D01*
X0017324Y0069316D01*
X0017322Y0069469D01*
X0070866Y0069469D02*
X0070868Y0069622D01*
X0070874Y0069776D01*
X0070884Y0069929D01*
X0070898Y0070081D01*
X0070916Y0070234D01*
X0070938Y0070385D01*
X0070963Y0070536D01*
X0070993Y0070687D01*
X0071027Y0070837D01*
X0071064Y0070985D01*
X0071105Y0071133D01*
X0071150Y0071279D01*
X0071199Y0071425D01*
X0071252Y0071569D01*
X0071308Y0071711D01*
X0071368Y0071852D01*
X0071432Y0071992D01*
X0071499Y0072130D01*
X0071570Y0072266D01*
X0071645Y0072400D01*
X0071722Y0072532D01*
X0071804Y0072662D01*
X0071888Y0072790D01*
X0071976Y0072916D01*
X0072067Y0073039D01*
X0072161Y0073160D01*
X0072259Y0073278D01*
X0072359Y0073394D01*
X0072463Y0073507D01*
X0072569Y0073618D01*
X0072678Y0073726D01*
X0072790Y0073831D01*
X0072904Y0073932D01*
X0073022Y0074031D01*
X0073141Y0074127D01*
X0073263Y0074220D01*
X0073388Y0074309D01*
X0073515Y0074396D01*
X0073644Y0074478D01*
X0073775Y0074558D01*
X0073908Y0074634D01*
X0074043Y0074707D01*
X0074180Y0074776D01*
X0074319Y0074841D01*
X0074459Y0074903D01*
X0074601Y0074961D01*
X0074744Y0075016D01*
X0074889Y0075067D01*
X0075035Y0075114D01*
X0075182Y0075157D01*
X0075330Y0075196D01*
X0075479Y0075232D01*
X0075629Y0075263D01*
X0075780Y0075291D01*
X0075931Y0075315D01*
X0076084Y0075335D01*
X0076236Y0075351D01*
X0076389Y0075363D01*
X0076542Y0075371D01*
X0076695Y0075375D01*
X0076849Y0075375D01*
X0077002Y0075371D01*
X0077155Y0075363D01*
X0077308Y0075351D01*
X0077460Y0075335D01*
X0077613Y0075315D01*
X0077764Y0075291D01*
X0077915Y0075263D01*
X0078065Y0075232D01*
X0078214Y0075196D01*
X0078362Y0075157D01*
X0078509Y0075114D01*
X0078655Y0075067D01*
X0078800Y0075016D01*
X0078943Y0074961D01*
X0079085Y0074903D01*
X0079225Y0074841D01*
X0079364Y0074776D01*
X0079501Y0074707D01*
X0079636Y0074634D01*
X0079769Y0074558D01*
X0079900Y0074478D01*
X0080029Y0074396D01*
X0080156Y0074309D01*
X0080281Y0074220D01*
X0080403Y0074127D01*
X0080522Y0074031D01*
X0080640Y0073932D01*
X0080754Y0073831D01*
X0080866Y0073726D01*
X0080975Y0073618D01*
X0081081Y0073507D01*
X0081185Y0073394D01*
X0081285Y0073278D01*
X0081383Y0073160D01*
X0081477Y0073039D01*
X0081568Y0072916D01*
X0081656Y0072790D01*
X0081740Y0072662D01*
X0081822Y0072532D01*
X0081899Y0072400D01*
X0081974Y0072266D01*
X0082045Y0072130D01*
X0082112Y0071992D01*
X0082176Y0071852D01*
X0082236Y0071711D01*
X0082292Y0071569D01*
X0082345Y0071425D01*
X0082394Y0071279D01*
X0082439Y0071133D01*
X0082480Y0070985D01*
X0082517Y0070837D01*
X0082551Y0070687D01*
X0082581Y0070536D01*
X0082606Y0070385D01*
X0082628Y0070234D01*
X0082646Y0070081D01*
X0082660Y0069929D01*
X0082670Y0069776D01*
X0082676Y0069622D01*
X0082678Y0069469D01*
X0082676Y0069316D01*
X0082670Y0069162D01*
X0082660Y0069009D01*
X0082646Y0068857D01*
X0082628Y0068704D01*
X0082606Y0068553D01*
X0082581Y0068402D01*
X0082551Y0068251D01*
X0082517Y0068101D01*
X0082480Y0067953D01*
X0082439Y0067805D01*
X0082394Y0067659D01*
X0082345Y0067513D01*
X0082292Y0067369D01*
X0082236Y0067227D01*
X0082176Y0067086D01*
X0082112Y0066946D01*
X0082045Y0066808D01*
X0081974Y0066672D01*
X0081899Y0066538D01*
X0081822Y0066406D01*
X0081740Y0066276D01*
X0081656Y0066148D01*
X0081568Y0066022D01*
X0081477Y0065899D01*
X0081383Y0065778D01*
X0081285Y0065660D01*
X0081185Y0065544D01*
X0081081Y0065431D01*
X0080975Y0065320D01*
X0080866Y0065212D01*
X0080754Y0065107D01*
X0080640Y0065006D01*
X0080522Y0064907D01*
X0080403Y0064811D01*
X0080281Y0064718D01*
X0080156Y0064629D01*
X0080029Y0064542D01*
X0079900Y0064460D01*
X0079769Y0064380D01*
X0079636Y0064304D01*
X0079501Y0064231D01*
X0079364Y0064162D01*
X0079225Y0064097D01*
X0079085Y0064035D01*
X0078943Y0063977D01*
X0078800Y0063922D01*
X0078655Y0063871D01*
X0078509Y0063824D01*
X0078362Y0063781D01*
X0078214Y0063742D01*
X0078065Y0063706D01*
X0077915Y0063675D01*
X0077764Y0063647D01*
X0077613Y0063623D01*
X0077460Y0063603D01*
X0077308Y0063587D01*
X0077155Y0063575D01*
X0077002Y0063567D01*
X0076849Y0063563D01*
X0076695Y0063563D01*
X0076542Y0063567D01*
X0076389Y0063575D01*
X0076236Y0063587D01*
X0076084Y0063603D01*
X0075931Y0063623D01*
X0075780Y0063647D01*
X0075629Y0063675D01*
X0075479Y0063706D01*
X0075330Y0063742D01*
X0075182Y0063781D01*
X0075035Y0063824D01*
X0074889Y0063871D01*
X0074744Y0063922D01*
X0074601Y0063977D01*
X0074459Y0064035D01*
X0074319Y0064097D01*
X0074180Y0064162D01*
X0074043Y0064231D01*
X0073908Y0064304D01*
X0073775Y0064380D01*
X0073644Y0064460D01*
X0073515Y0064542D01*
X0073388Y0064629D01*
X0073263Y0064718D01*
X0073141Y0064811D01*
X0073022Y0064907D01*
X0072904Y0065006D01*
X0072790Y0065107D01*
X0072678Y0065212D01*
X0072569Y0065320D01*
X0072463Y0065431D01*
X0072359Y0065544D01*
X0072259Y0065660D01*
X0072161Y0065778D01*
X0072067Y0065899D01*
X0071976Y0066022D01*
X0071888Y0066148D01*
X0071804Y0066276D01*
X0071722Y0066406D01*
X0071645Y0066538D01*
X0071570Y0066672D01*
X0071499Y0066808D01*
X0071432Y0066946D01*
X0071368Y0067086D01*
X0071308Y0067227D01*
X0071252Y0067369D01*
X0071199Y0067513D01*
X0071150Y0067659D01*
X0071105Y0067805D01*
X0071064Y0067953D01*
X0071027Y0068101D01*
X0070993Y0068251D01*
X0070963Y0068402D01*
X0070938Y0068553D01*
X0070916Y0068704D01*
X0070898Y0068857D01*
X0070884Y0069009D01*
X0070874Y0069162D01*
X0070868Y0069316D01*
X0070866Y0069469D01*
X0283701Y0020000D02*
X0283703Y0020158D01*
X0283709Y0020316D01*
X0283719Y0020474D01*
X0283733Y0020632D01*
X0283751Y0020789D01*
X0283772Y0020946D01*
X0283798Y0021102D01*
X0283828Y0021258D01*
X0283861Y0021413D01*
X0283899Y0021566D01*
X0283940Y0021719D01*
X0283985Y0021871D01*
X0284034Y0022022D01*
X0284087Y0022171D01*
X0284143Y0022319D01*
X0284203Y0022465D01*
X0284267Y0022610D01*
X0284335Y0022753D01*
X0284406Y0022895D01*
X0284480Y0023035D01*
X0284558Y0023172D01*
X0284640Y0023308D01*
X0284724Y0023442D01*
X0284813Y0023573D01*
X0284904Y0023702D01*
X0284999Y0023829D01*
X0285096Y0023954D01*
X0285197Y0024076D01*
X0285301Y0024195D01*
X0285408Y0024312D01*
X0285518Y0024426D01*
X0285631Y0024537D01*
X0285746Y0024646D01*
X0285864Y0024751D01*
X0285985Y0024853D01*
X0286108Y0024953D01*
X0286234Y0025049D01*
X0286362Y0025142D01*
X0286492Y0025232D01*
X0286625Y0025318D01*
X0286760Y0025402D01*
X0286896Y0025481D01*
X0287035Y0025558D01*
X0287176Y0025630D01*
X0287318Y0025700D01*
X0287462Y0025765D01*
X0287608Y0025827D01*
X0287755Y0025885D01*
X0287904Y0025940D01*
X0288054Y0025991D01*
X0288205Y0026038D01*
X0288357Y0026081D01*
X0288510Y0026120D01*
X0288665Y0026156D01*
X0288820Y0026187D01*
X0288976Y0026215D01*
X0289132Y0026239D01*
X0289289Y0026259D01*
X0289447Y0026275D01*
X0289604Y0026287D01*
X0289763Y0026295D01*
X0289921Y0026299D01*
X0290079Y0026299D01*
X0290237Y0026295D01*
X0290396Y0026287D01*
X0290553Y0026275D01*
X0290711Y0026259D01*
X0290868Y0026239D01*
X0291024Y0026215D01*
X0291180Y0026187D01*
X0291335Y0026156D01*
X0291490Y0026120D01*
X0291643Y0026081D01*
X0291795Y0026038D01*
X0291946Y0025991D01*
X0292096Y0025940D01*
X0292245Y0025885D01*
X0292392Y0025827D01*
X0292538Y0025765D01*
X0292682Y0025700D01*
X0292824Y0025630D01*
X0292965Y0025558D01*
X0293104Y0025481D01*
X0293240Y0025402D01*
X0293375Y0025318D01*
X0293508Y0025232D01*
X0293638Y0025142D01*
X0293766Y0025049D01*
X0293892Y0024953D01*
X0294015Y0024853D01*
X0294136Y0024751D01*
X0294254Y0024646D01*
X0294369Y0024537D01*
X0294482Y0024426D01*
X0294592Y0024312D01*
X0294699Y0024195D01*
X0294803Y0024076D01*
X0294904Y0023954D01*
X0295001Y0023829D01*
X0295096Y0023702D01*
X0295187Y0023573D01*
X0295276Y0023442D01*
X0295360Y0023308D01*
X0295442Y0023172D01*
X0295520Y0023035D01*
X0295594Y0022895D01*
X0295665Y0022753D01*
X0295733Y0022610D01*
X0295797Y0022465D01*
X0295857Y0022319D01*
X0295913Y0022171D01*
X0295966Y0022022D01*
X0296015Y0021871D01*
X0296060Y0021719D01*
X0296101Y0021566D01*
X0296139Y0021413D01*
X0296172Y0021258D01*
X0296202Y0021102D01*
X0296228Y0020946D01*
X0296249Y0020789D01*
X0296267Y0020632D01*
X0296281Y0020474D01*
X0296291Y0020316D01*
X0296297Y0020158D01*
X0296299Y0020000D01*
X0296297Y0019842D01*
X0296291Y0019684D01*
X0296281Y0019526D01*
X0296267Y0019368D01*
X0296249Y0019211D01*
X0296228Y0019054D01*
X0296202Y0018898D01*
X0296172Y0018742D01*
X0296139Y0018587D01*
X0296101Y0018434D01*
X0296060Y0018281D01*
X0296015Y0018129D01*
X0295966Y0017978D01*
X0295913Y0017829D01*
X0295857Y0017681D01*
X0295797Y0017535D01*
X0295733Y0017390D01*
X0295665Y0017247D01*
X0295594Y0017105D01*
X0295520Y0016965D01*
X0295442Y0016828D01*
X0295360Y0016692D01*
X0295276Y0016558D01*
X0295187Y0016427D01*
X0295096Y0016298D01*
X0295001Y0016171D01*
X0294904Y0016046D01*
X0294803Y0015924D01*
X0294699Y0015805D01*
X0294592Y0015688D01*
X0294482Y0015574D01*
X0294369Y0015463D01*
X0294254Y0015354D01*
X0294136Y0015249D01*
X0294015Y0015147D01*
X0293892Y0015047D01*
X0293766Y0014951D01*
X0293638Y0014858D01*
X0293508Y0014768D01*
X0293375Y0014682D01*
X0293240Y0014598D01*
X0293104Y0014519D01*
X0292965Y0014442D01*
X0292824Y0014370D01*
X0292682Y0014300D01*
X0292538Y0014235D01*
X0292392Y0014173D01*
X0292245Y0014115D01*
X0292096Y0014060D01*
X0291946Y0014009D01*
X0291795Y0013962D01*
X0291643Y0013919D01*
X0291490Y0013880D01*
X0291335Y0013844D01*
X0291180Y0013813D01*
X0291024Y0013785D01*
X0290868Y0013761D01*
X0290711Y0013741D01*
X0290553Y0013725D01*
X0290396Y0013713D01*
X0290237Y0013705D01*
X0290079Y0013701D01*
X0289921Y0013701D01*
X0289763Y0013705D01*
X0289604Y0013713D01*
X0289447Y0013725D01*
X0289289Y0013741D01*
X0289132Y0013761D01*
X0288976Y0013785D01*
X0288820Y0013813D01*
X0288665Y0013844D01*
X0288510Y0013880D01*
X0288357Y0013919D01*
X0288205Y0013962D01*
X0288054Y0014009D01*
X0287904Y0014060D01*
X0287755Y0014115D01*
X0287608Y0014173D01*
X0287462Y0014235D01*
X0287318Y0014300D01*
X0287176Y0014370D01*
X0287035Y0014442D01*
X0286896Y0014519D01*
X0286760Y0014598D01*
X0286625Y0014682D01*
X0286492Y0014768D01*
X0286362Y0014858D01*
X0286234Y0014951D01*
X0286108Y0015047D01*
X0285985Y0015147D01*
X0285864Y0015249D01*
X0285746Y0015354D01*
X0285631Y0015463D01*
X0285518Y0015574D01*
X0285408Y0015688D01*
X0285301Y0015805D01*
X0285197Y0015924D01*
X0285096Y0016046D01*
X0284999Y0016171D01*
X0284904Y0016298D01*
X0284813Y0016427D01*
X0284724Y0016558D01*
X0284640Y0016692D01*
X0284558Y0016828D01*
X0284480Y0016965D01*
X0284406Y0017105D01*
X0284335Y0017247D01*
X0284267Y0017390D01*
X0284203Y0017535D01*
X0284143Y0017681D01*
X0284087Y0017829D01*
X0284034Y0017978D01*
X0283985Y0018129D01*
X0283940Y0018281D01*
X0283899Y0018434D01*
X0283861Y0018587D01*
X0283828Y0018742D01*
X0283798Y0018898D01*
X0283772Y0019054D01*
X0283751Y0019211D01*
X0283733Y0019368D01*
X0283719Y0019526D01*
X0283709Y0019684D01*
X0283703Y0019842D01*
X0283701Y0020000D01*
X0283701Y0135000D02*
X0283703Y0135158D01*
X0283709Y0135316D01*
X0283719Y0135474D01*
X0283733Y0135632D01*
X0283751Y0135789D01*
X0283772Y0135946D01*
X0283798Y0136102D01*
X0283828Y0136258D01*
X0283861Y0136413D01*
X0283899Y0136566D01*
X0283940Y0136719D01*
X0283985Y0136871D01*
X0284034Y0137022D01*
X0284087Y0137171D01*
X0284143Y0137319D01*
X0284203Y0137465D01*
X0284267Y0137610D01*
X0284335Y0137753D01*
X0284406Y0137895D01*
X0284480Y0138035D01*
X0284558Y0138172D01*
X0284640Y0138308D01*
X0284724Y0138442D01*
X0284813Y0138573D01*
X0284904Y0138702D01*
X0284999Y0138829D01*
X0285096Y0138954D01*
X0285197Y0139076D01*
X0285301Y0139195D01*
X0285408Y0139312D01*
X0285518Y0139426D01*
X0285631Y0139537D01*
X0285746Y0139646D01*
X0285864Y0139751D01*
X0285985Y0139853D01*
X0286108Y0139953D01*
X0286234Y0140049D01*
X0286362Y0140142D01*
X0286492Y0140232D01*
X0286625Y0140318D01*
X0286760Y0140402D01*
X0286896Y0140481D01*
X0287035Y0140558D01*
X0287176Y0140630D01*
X0287318Y0140700D01*
X0287462Y0140765D01*
X0287608Y0140827D01*
X0287755Y0140885D01*
X0287904Y0140940D01*
X0288054Y0140991D01*
X0288205Y0141038D01*
X0288357Y0141081D01*
X0288510Y0141120D01*
X0288665Y0141156D01*
X0288820Y0141187D01*
X0288976Y0141215D01*
X0289132Y0141239D01*
X0289289Y0141259D01*
X0289447Y0141275D01*
X0289604Y0141287D01*
X0289763Y0141295D01*
X0289921Y0141299D01*
X0290079Y0141299D01*
X0290237Y0141295D01*
X0290396Y0141287D01*
X0290553Y0141275D01*
X0290711Y0141259D01*
X0290868Y0141239D01*
X0291024Y0141215D01*
X0291180Y0141187D01*
X0291335Y0141156D01*
X0291490Y0141120D01*
X0291643Y0141081D01*
X0291795Y0141038D01*
X0291946Y0140991D01*
X0292096Y0140940D01*
X0292245Y0140885D01*
X0292392Y0140827D01*
X0292538Y0140765D01*
X0292682Y0140700D01*
X0292824Y0140630D01*
X0292965Y0140558D01*
X0293104Y0140481D01*
X0293240Y0140402D01*
X0293375Y0140318D01*
X0293508Y0140232D01*
X0293638Y0140142D01*
X0293766Y0140049D01*
X0293892Y0139953D01*
X0294015Y0139853D01*
X0294136Y0139751D01*
X0294254Y0139646D01*
X0294369Y0139537D01*
X0294482Y0139426D01*
X0294592Y0139312D01*
X0294699Y0139195D01*
X0294803Y0139076D01*
X0294904Y0138954D01*
X0295001Y0138829D01*
X0295096Y0138702D01*
X0295187Y0138573D01*
X0295276Y0138442D01*
X0295360Y0138308D01*
X0295442Y0138172D01*
X0295520Y0138035D01*
X0295594Y0137895D01*
X0295665Y0137753D01*
X0295733Y0137610D01*
X0295797Y0137465D01*
X0295857Y0137319D01*
X0295913Y0137171D01*
X0295966Y0137022D01*
X0296015Y0136871D01*
X0296060Y0136719D01*
X0296101Y0136566D01*
X0296139Y0136413D01*
X0296172Y0136258D01*
X0296202Y0136102D01*
X0296228Y0135946D01*
X0296249Y0135789D01*
X0296267Y0135632D01*
X0296281Y0135474D01*
X0296291Y0135316D01*
X0296297Y0135158D01*
X0296299Y0135000D01*
X0296297Y0134842D01*
X0296291Y0134684D01*
X0296281Y0134526D01*
X0296267Y0134368D01*
X0296249Y0134211D01*
X0296228Y0134054D01*
X0296202Y0133898D01*
X0296172Y0133742D01*
X0296139Y0133587D01*
X0296101Y0133434D01*
X0296060Y0133281D01*
X0296015Y0133129D01*
X0295966Y0132978D01*
X0295913Y0132829D01*
X0295857Y0132681D01*
X0295797Y0132535D01*
X0295733Y0132390D01*
X0295665Y0132247D01*
X0295594Y0132105D01*
X0295520Y0131965D01*
X0295442Y0131828D01*
X0295360Y0131692D01*
X0295276Y0131558D01*
X0295187Y0131427D01*
X0295096Y0131298D01*
X0295001Y0131171D01*
X0294904Y0131046D01*
X0294803Y0130924D01*
X0294699Y0130805D01*
X0294592Y0130688D01*
X0294482Y0130574D01*
X0294369Y0130463D01*
X0294254Y0130354D01*
X0294136Y0130249D01*
X0294015Y0130147D01*
X0293892Y0130047D01*
X0293766Y0129951D01*
X0293638Y0129858D01*
X0293508Y0129768D01*
X0293375Y0129682D01*
X0293240Y0129598D01*
X0293104Y0129519D01*
X0292965Y0129442D01*
X0292824Y0129370D01*
X0292682Y0129300D01*
X0292538Y0129235D01*
X0292392Y0129173D01*
X0292245Y0129115D01*
X0292096Y0129060D01*
X0291946Y0129009D01*
X0291795Y0128962D01*
X0291643Y0128919D01*
X0291490Y0128880D01*
X0291335Y0128844D01*
X0291180Y0128813D01*
X0291024Y0128785D01*
X0290868Y0128761D01*
X0290711Y0128741D01*
X0290553Y0128725D01*
X0290396Y0128713D01*
X0290237Y0128705D01*
X0290079Y0128701D01*
X0289921Y0128701D01*
X0289763Y0128705D01*
X0289604Y0128713D01*
X0289447Y0128725D01*
X0289289Y0128741D01*
X0289132Y0128761D01*
X0288976Y0128785D01*
X0288820Y0128813D01*
X0288665Y0128844D01*
X0288510Y0128880D01*
X0288357Y0128919D01*
X0288205Y0128962D01*
X0288054Y0129009D01*
X0287904Y0129060D01*
X0287755Y0129115D01*
X0287608Y0129173D01*
X0287462Y0129235D01*
X0287318Y0129300D01*
X0287176Y0129370D01*
X0287035Y0129442D01*
X0286896Y0129519D01*
X0286760Y0129598D01*
X0286625Y0129682D01*
X0286492Y0129768D01*
X0286362Y0129858D01*
X0286234Y0129951D01*
X0286108Y0130047D01*
X0285985Y0130147D01*
X0285864Y0130249D01*
X0285746Y0130354D01*
X0285631Y0130463D01*
X0285518Y0130574D01*
X0285408Y0130688D01*
X0285301Y0130805D01*
X0285197Y0130924D01*
X0285096Y0131046D01*
X0284999Y0131171D01*
X0284904Y0131298D01*
X0284813Y0131427D01*
X0284724Y0131558D01*
X0284640Y0131692D01*
X0284558Y0131828D01*
X0284480Y0131965D01*
X0284406Y0132105D01*
X0284335Y0132247D01*
X0284267Y0132390D01*
X0284203Y0132535D01*
X0284143Y0132681D01*
X0284087Y0132829D01*
X0284034Y0132978D01*
X0283985Y0133129D01*
X0283940Y0133281D01*
X0283899Y0133434D01*
X0283861Y0133587D01*
X0283828Y0133742D01*
X0283798Y0133898D01*
X0283772Y0134054D01*
X0283751Y0134211D01*
X0283733Y0134368D01*
X0283719Y0134526D01*
X0283709Y0134684D01*
X0283703Y0134842D01*
X0283701Y0135000D01*
D11*
X0076134Y0050638D02*
X0076134Y0048503D01*
X0075067Y0047435D01*
X0071864Y0047435D01*
X0071864Y0045300D02*
X0071864Y0051705D01*
X0075067Y0051705D01*
X0076134Y0050638D01*
X0073999Y0047435D02*
X0076134Y0045300D01*
X0069689Y0045300D02*
X0069689Y0049570D01*
X0067554Y0051705D01*
X0065418Y0049570D01*
X0065418Y0045300D01*
X0063243Y0045300D02*
X0058973Y0045300D01*
X0058973Y0051705D01*
X0056798Y0050638D02*
X0055730Y0051705D01*
X0053595Y0051705D01*
X0052527Y0050638D01*
X0052527Y0046368D01*
X0053595Y0045300D01*
X0055730Y0045300D01*
X0056798Y0046368D01*
X0056798Y0050638D01*
X0050352Y0050638D02*
X0049285Y0051705D01*
X0047150Y0051705D01*
X0046082Y0050638D01*
X0046082Y0049570D01*
X0047150Y0048503D01*
X0049285Y0048503D01*
X0050352Y0047435D01*
X0050352Y0046368D01*
X0049285Y0045300D01*
X0047150Y0045300D01*
X0046082Y0046368D01*
X0037461Y0046368D02*
X0036394Y0045300D01*
X0034259Y0045300D01*
X0033191Y0046368D01*
X0033191Y0050638D01*
X0034259Y0051705D01*
X0036394Y0051705D01*
X0037461Y0050638D01*
X0031016Y0050638D02*
X0031016Y0049570D01*
X0029948Y0048503D01*
X0026745Y0048503D01*
X0029948Y0048503D02*
X0031016Y0047435D01*
X0031016Y0046368D01*
X0029948Y0045300D01*
X0026745Y0045300D01*
X0026745Y0051705D01*
X0029948Y0051705D01*
X0031016Y0050638D01*
X0024570Y0051705D02*
X0024570Y0046368D01*
X0023503Y0045300D01*
X0021368Y0045300D01*
X0020300Y0046368D01*
X0020300Y0051705D01*
X0065418Y0048503D02*
X0069689Y0048503D01*
D12*
X0070447Y0039804D02*
X0072749Y0039804D01*
X0073516Y0039037D01*
X0073516Y0037502D01*
X0072749Y0036735D01*
X0070447Y0036735D01*
X0070447Y0035200D02*
X0070447Y0039804D01*
X0075051Y0037502D02*
X0075051Y0035967D01*
X0075818Y0035200D01*
X0077353Y0035200D01*
X0078120Y0035967D01*
X0078120Y0037502D01*
X0077353Y0038269D01*
X0075818Y0038269D01*
X0075051Y0037502D01*
X0079655Y0038269D02*
X0079655Y0035967D01*
X0080422Y0035200D01*
X0081190Y0035967D01*
X0081957Y0035200D01*
X0082724Y0035967D01*
X0082724Y0038269D01*
X0084259Y0037502D02*
X0085026Y0038269D01*
X0086561Y0038269D01*
X0087328Y0037502D01*
X0087328Y0036735D01*
X0084259Y0036735D01*
X0084259Y0037502D02*
X0084259Y0035967D01*
X0085026Y0035200D01*
X0086561Y0035200D01*
X0088863Y0035200D02*
X0088863Y0038269D01*
X0088863Y0036735D02*
X0090397Y0038269D01*
X0091165Y0038269D01*
X0064309Y0035200D02*
X0062774Y0035200D01*
X0063541Y0035200D02*
X0063541Y0039804D01*
X0062774Y0039804D01*
X0060472Y0038269D02*
X0061239Y0037502D01*
X0061239Y0035200D01*
X0058937Y0035200D01*
X0058170Y0035967D01*
X0058937Y0036735D01*
X0061239Y0036735D01*
X0060472Y0038269D02*
X0058937Y0038269D01*
X0056635Y0038269D02*
X0055101Y0038269D01*
X0055868Y0039037D02*
X0055868Y0035967D01*
X0056635Y0035200D01*
X0053566Y0035200D02*
X0053566Y0037502D01*
X0052799Y0038269D01*
X0050497Y0038269D01*
X0050497Y0035200D01*
X0048962Y0036735D02*
X0045893Y0036735D01*
X0045893Y0037502D02*
X0045893Y0035967D01*
X0046660Y0035200D01*
X0048195Y0035200D01*
X0048962Y0036735D02*
X0048962Y0037502D01*
X0048195Y0038269D01*
X0046660Y0038269D01*
X0045893Y0037502D01*
X0044358Y0037502D02*
X0044358Y0035200D01*
X0042824Y0035200D02*
X0042824Y0037502D01*
X0043591Y0038269D01*
X0044358Y0037502D01*
X0042824Y0037502D02*
X0042056Y0038269D01*
X0041289Y0038269D01*
X0041289Y0035200D01*
X0039754Y0036735D02*
X0036685Y0036735D01*
X0036685Y0037502D02*
X0036685Y0035967D01*
X0037452Y0035200D01*
X0038987Y0035200D01*
X0039754Y0036735D02*
X0039754Y0037502D01*
X0038987Y0038269D01*
X0037452Y0038269D01*
X0036685Y0037502D01*
X0034383Y0039804D02*
X0033616Y0039804D01*
X0034383Y0039804D02*
X0034383Y0035200D01*
X0033616Y0035200D02*
X0035150Y0035200D01*
X0032081Y0035967D02*
X0031314Y0035200D01*
X0029012Y0035200D01*
X0029012Y0033665D02*
X0029012Y0038269D01*
X0031314Y0038269D01*
X0032081Y0037502D01*
X0032081Y0035967D01*
X0027477Y0035967D02*
X0026710Y0035200D01*
X0024408Y0035200D01*
X0024408Y0033665D02*
X0024408Y0038269D01*
X0026710Y0038269D01*
X0027477Y0037502D01*
X0027477Y0035967D01*
X0022873Y0035200D02*
X0022873Y0038269D01*
X0019804Y0038269D02*
X0019804Y0035967D01*
X0020571Y0035200D01*
X0022873Y0035200D01*
X0018269Y0035967D02*
X0017502Y0035200D01*
X0015967Y0035200D01*
X0015200Y0035967D01*
X0015967Y0037502D02*
X0015200Y0038269D01*
X0015200Y0039037D01*
X0015967Y0039804D01*
X0017502Y0039804D01*
X0018269Y0039037D01*
X0017502Y0037502D02*
X0018269Y0036735D01*
X0018269Y0035967D01*
X0017502Y0037502D02*
X0015967Y0037502D01*
X0035200Y0029037D02*
X0035200Y0028269D01*
X0035967Y0027502D01*
X0037502Y0027502D01*
X0038269Y0026735D01*
X0038269Y0025967D01*
X0037502Y0025200D01*
X0035967Y0025200D01*
X0035200Y0025967D01*
X0035200Y0029037D02*
X0035967Y0029804D01*
X0037502Y0029804D01*
X0038269Y0029037D01*
X0039804Y0028269D02*
X0039804Y0025967D01*
X0040571Y0025200D01*
X0042873Y0025200D01*
X0042873Y0024433D02*
X0042106Y0023665D01*
X0041339Y0023665D01*
X0042873Y0024433D02*
X0042873Y0028269D01*
X0044408Y0027502D02*
X0045175Y0028269D01*
X0047477Y0028269D01*
X0049012Y0028269D02*
X0050546Y0028269D01*
X0049779Y0029037D02*
X0049779Y0025967D01*
X0050546Y0025200D01*
X0052081Y0025967D02*
X0052081Y0027502D01*
X0052848Y0028269D01*
X0054383Y0028269D01*
X0055150Y0027502D01*
X0055150Y0026735D01*
X0052081Y0026735D01*
X0052081Y0025967D02*
X0052848Y0025200D01*
X0054383Y0025200D01*
X0056685Y0025200D02*
X0056685Y0028269D01*
X0057452Y0028269D01*
X0058220Y0027502D01*
X0058987Y0028269D01*
X0059754Y0027502D01*
X0059754Y0025200D01*
X0058220Y0025200D02*
X0058220Y0027502D01*
X0047477Y0025967D02*
X0046710Y0025200D01*
X0044408Y0025200D01*
X0045175Y0026735D02*
X0044408Y0027502D01*
X0045175Y0026735D02*
X0046710Y0026735D01*
X0047477Y0025967D01*
X0046339Y0019804D02*
X0046339Y0015200D01*
X0047873Y0015200D02*
X0044804Y0015200D01*
X0043269Y0016735D02*
X0043269Y0019804D01*
X0044804Y0018269D02*
X0046339Y0019804D01*
X0051710Y0019037D02*
X0052477Y0019804D01*
X0054012Y0019804D01*
X0054779Y0019037D01*
X0051710Y0015967D01*
X0052477Y0015200D01*
X0054012Y0015200D01*
X0054779Y0015967D01*
X0054779Y0019037D01*
X0051710Y0019037D02*
X0051710Y0015967D01*
X0050175Y0015967D02*
X0050175Y0015200D01*
X0049408Y0015200D01*
X0049408Y0015967D01*
X0050175Y0015967D01*
X0043269Y0016735D02*
X0041735Y0015200D01*
X0040200Y0016735D01*
X0040200Y0019804D01*
D13*
X0090000Y0015000D02*
X0150000Y0015000D01*
X0150000Y0105000D01*
X0090000Y0105000D01*
X0090000Y0015000D01*
X0155000Y0015000D02*
X0215000Y0015000D01*
X0215000Y0105000D01*
X0155000Y0105000D01*
X0155000Y0015000D01*
X0220000Y0015000D02*
X0280000Y0015000D01*
X0280000Y0105000D01*
X0220000Y0105000D01*
X0220000Y0015000D01*
D14*
X0199900Y0030484D02*
X0199900Y0031251D01*
X0199516Y0031635D01*
X0199900Y0032402D02*
X0198365Y0033937D01*
X0197982Y0033937D01*
X0197598Y0033553D01*
X0197598Y0032786D01*
X0197982Y0032402D01*
X0197982Y0031635D02*
X0197598Y0031251D01*
X0197598Y0030484D01*
X0197982Y0030100D01*
X0199516Y0030100D01*
X0199900Y0030484D01*
X0199900Y0032402D02*
X0199900Y0033937D01*
X0262598Y0033553D02*
X0262982Y0033937D01*
X0263365Y0033937D01*
X0263749Y0033553D01*
X0264133Y0033937D01*
X0264516Y0033937D01*
X0264900Y0033553D01*
X0264900Y0032786D01*
X0264516Y0032402D01*
X0264516Y0031635D02*
X0264900Y0031251D01*
X0264900Y0030484D01*
X0264516Y0030100D01*
X0262982Y0030100D01*
X0262598Y0030484D01*
X0262598Y0031251D01*
X0262982Y0031635D01*
X0262982Y0032402D02*
X0262598Y0032786D01*
X0262598Y0033553D01*
X0263749Y0033553D02*
X0263749Y0033169D01*
X0134900Y0033169D02*
X0132598Y0033169D01*
X0133365Y0032402D01*
X0132982Y0031635D02*
X0132598Y0031251D01*
X0132598Y0030484D01*
X0132982Y0030100D01*
X0134516Y0030100D01*
X0134900Y0030484D01*
X0134900Y0031251D01*
X0134516Y0031635D01*
X0134900Y0032402D02*
X0134900Y0033937D01*
X0114343Y0128939D02*
X0112875Y0128939D01*
X0113609Y0128939D02*
X0113609Y0131141D01*
X0112875Y0130407D01*
X0112133Y0130040D02*
X0111766Y0129673D01*
X0110665Y0129673D01*
X0110665Y0128939D02*
X0110665Y0131141D01*
X0111766Y0131141D01*
X0112133Y0130774D01*
X0112133Y0130040D01*
X0111399Y0129673D02*
X0112133Y0128939D01*
X0130665Y0138939D02*
X0130665Y0141141D01*
X0131766Y0141141D01*
X0132133Y0140774D01*
X0132133Y0140040D01*
X0131766Y0139673D01*
X0130665Y0139673D01*
X0131399Y0139673D02*
X0132133Y0138939D01*
X0132875Y0138939D02*
X0134343Y0140407D01*
X0134343Y0140774D01*
X0133976Y0141141D01*
X0133242Y0141141D01*
X0132875Y0140774D01*
X0132875Y0138939D02*
X0134343Y0138939D01*
X0175665Y0131141D02*
X0175665Y0128939D01*
X0175665Y0129673D02*
X0176766Y0129673D01*
X0177133Y0130040D01*
X0177133Y0130774D01*
X0176766Y0131141D01*
X0175665Y0131141D01*
X0176399Y0129673D02*
X0177133Y0128939D01*
X0177875Y0129306D02*
X0178242Y0128939D01*
X0178976Y0128939D01*
X0179343Y0129306D01*
X0179343Y0129673D01*
X0178976Y0130040D01*
X0178609Y0130040D01*
X0178976Y0130040D02*
X0179343Y0130407D01*
X0179343Y0130774D01*
X0178976Y0131141D01*
X0178242Y0131141D01*
X0177875Y0130774D01*
X0195665Y0138939D02*
X0195665Y0141141D01*
X0196766Y0141141D01*
X0197133Y0140774D01*
X0197133Y0140040D01*
X0196766Y0139673D01*
X0195665Y0139673D01*
X0196399Y0139673D02*
X0197133Y0138939D01*
X0197875Y0140040D02*
X0199343Y0140040D01*
X0198976Y0138939D02*
X0198976Y0141141D01*
X0197875Y0140040D01*
X0240665Y0131141D02*
X0240665Y0128939D01*
X0240665Y0129673D02*
X0241766Y0129673D01*
X0242133Y0130040D01*
X0242133Y0130774D01*
X0241766Y0131141D01*
X0240665Y0131141D01*
X0241399Y0129673D02*
X0242133Y0128939D01*
X0242875Y0129306D02*
X0243242Y0128939D01*
X0243976Y0128939D01*
X0244343Y0129306D01*
X0244343Y0130040D01*
X0243976Y0130407D01*
X0243609Y0130407D01*
X0242875Y0130040D01*
X0242875Y0131141D01*
X0244343Y0131141D01*
X0260665Y0138939D02*
X0260665Y0141141D01*
X0261766Y0141141D01*
X0262133Y0140774D01*
X0262133Y0140040D01*
X0261766Y0139673D01*
X0260665Y0139673D01*
X0261399Y0139673D02*
X0262133Y0138939D01*
X0262875Y0139306D02*
X0263242Y0138939D01*
X0263976Y0138939D01*
X0264343Y0139306D01*
X0264343Y0139673D01*
X0263976Y0140040D01*
X0262875Y0140040D01*
X0262875Y0139306D01*
X0262875Y0140040D02*
X0263609Y0140774D01*
X0264343Y0141141D01*
D15*
X0266102Y0141654D02*
X0253898Y0141654D01*
X0253898Y0148346D01*
X0266102Y0148346D01*
X0266102Y0141654D01*
X0246102Y0138346D02*
X0246102Y0131654D01*
X0233898Y0131654D01*
X0233898Y0138346D01*
X0246102Y0138346D01*
X0201102Y0141654D02*
X0188898Y0141654D01*
X0188898Y0148346D01*
X0201102Y0148346D01*
X0201102Y0141654D01*
X0181102Y0138346D02*
X0181102Y0131654D01*
X0168898Y0131654D01*
X0168898Y0138346D01*
X0181102Y0138346D01*
X0136102Y0141654D02*
X0123898Y0141654D01*
X0123898Y0148346D01*
X0136102Y0148346D01*
X0136102Y0141654D01*
X0116102Y0138346D02*
X0116102Y0131654D01*
X0103898Y0131654D01*
X0103898Y0138346D01*
X0116102Y0138346D01*
D16*
X0114748Y0135539D02*
X0113397Y0134638D01*
X0114748Y0133737D01*
X0113397Y0133737D02*
X0113397Y0136440D01*
X0112252Y0135989D02*
X0110450Y0134188D01*
X0110901Y0133737D01*
X0111802Y0133737D01*
X0112252Y0134188D01*
X0112252Y0135989D01*
X0111802Y0136440D01*
X0110901Y0136440D01*
X0110450Y0135989D01*
X0110450Y0134188D01*
X0109305Y0133737D02*
X0107504Y0133737D01*
X0108405Y0133737D02*
X0108405Y0136440D01*
X0107504Y0135539D01*
X0127504Y0143737D02*
X0129305Y0143737D01*
X0128405Y0143737D02*
X0128405Y0146440D01*
X0127504Y0145539D01*
X0130450Y0145989D02*
X0130450Y0144188D01*
X0132252Y0145989D01*
X0132252Y0144188D01*
X0131802Y0143737D01*
X0130901Y0143737D01*
X0130450Y0144188D01*
X0130450Y0145989D02*
X0130901Y0146440D01*
X0131802Y0146440D01*
X0132252Y0145989D01*
X0133397Y0146440D02*
X0133397Y0143737D01*
X0133397Y0144638D02*
X0134748Y0145539D01*
X0133397Y0144638D02*
X0134748Y0143737D01*
X0172504Y0135539D02*
X0173405Y0136440D01*
X0173405Y0133737D01*
X0174305Y0133737D02*
X0172504Y0133737D01*
X0175450Y0134188D02*
X0177252Y0135989D01*
X0177252Y0134188D01*
X0176802Y0133737D01*
X0175901Y0133737D01*
X0175450Y0134188D01*
X0175450Y0135989D01*
X0175901Y0136440D01*
X0176802Y0136440D01*
X0177252Y0135989D01*
X0178397Y0136440D02*
X0178397Y0133737D01*
X0178397Y0134638D02*
X0179748Y0135539D01*
X0178397Y0134638D02*
X0179748Y0133737D01*
X0192504Y0143737D02*
X0194305Y0143737D01*
X0193405Y0143737D02*
X0193405Y0146440D01*
X0192504Y0145539D01*
X0195450Y0145989D02*
X0195450Y0144188D01*
X0197252Y0145989D01*
X0197252Y0144188D01*
X0196802Y0143737D01*
X0195901Y0143737D01*
X0195450Y0144188D01*
X0195450Y0145989D02*
X0195901Y0146440D01*
X0196802Y0146440D01*
X0197252Y0145989D01*
X0198397Y0146440D02*
X0198397Y0143737D01*
X0198397Y0144638D02*
X0199748Y0145539D01*
X0198397Y0144638D02*
X0199748Y0143737D01*
X0237504Y0135539D02*
X0238405Y0136440D01*
X0238405Y0133737D01*
X0239305Y0133737D02*
X0237504Y0133737D01*
X0240450Y0134188D02*
X0240450Y0135989D01*
X0240901Y0136440D01*
X0241802Y0136440D01*
X0242252Y0135989D01*
X0240450Y0134188D01*
X0240901Y0133737D01*
X0241802Y0133737D01*
X0242252Y0134188D01*
X0242252Y0135989D01*
X0243397Y0136440D02*
X0243397Y0133737D01*
X0243397Y0134638D02*
X0244748Y0135539D01*
X0243397Y0134638D02*
X0244748Y0133737D01*
X0257504Y0143737D02*
X0259305Y0143737D01*
X0258405Y0143737D02*
X0258405Y0146440D01*
X0257504Y0145539D01*
X0260450Y0145989D02*
X0260450Y0144188D01*
X0262252Y0145989D01*
X0262252Y0144188D01*
X0261802Y0143737D01*
X0260901Y0143737D01*
X0260450Y0144188D01*
X0260450Y0145989D02*
X0260901Y0146440D01*
X0261802Y0146440D01*
X0262252Y0145989D01*
X0263397Y0146440D02*
X0263397Y0143737D01*
X0263397Y0144638D02*
X0264748Y0145539D01*
X0263397Y0144638D02*
X0264748Y0143737D01*
M02*
