%
M48
M72
T01C0.03000
T02C0.05512
T03C0.11811
T04C0.12598
%
T01
X100157Y135000
X119843Y135000
X120157Y145000
X139843Y145000
X165157Y135000
X184843Y135000
X185157Y145000
X204843Y145000
X230157Y135000
X249843Y135000
X250157Y145000
X269843Y145000
T02
X58268Y93327
X41732Y93327
X41732Y71673
X58268Y71673
T03
X23228Y69469
X76772Y69469
T04
X290000Y20000
X290000Y135000
M30
