G04 Layer_Physical_Order=1*
G04 Layer_Color=25308*
%FSAX23Y23*%
%MOIN*%
G70*
G01*
G75*
%ADD10C,0.010*%
%ADD11O,0.060X0.080*%
%ADD12R,0.060X0.080*%
%ADD13R,0.055X0.055*%
%ADD14C,0.055*%
%ADD15C,0.098*%
%ADD16C,0.067*%
%ADD17C,0.102*%
%ADD18C,0.065*%
%ADD19R,0.065X0.065*%
%ADD20C,0.200*%
D10*
X03308Y01720D02*
Y02610D01*
X03962D01*
Y01720D02*
Y02610D01*
X03308Y01720D02*
X03962D01*
X01173Y01750D02*
Y02640D01*
X01827D01*
Y01750D02*
Y02640D01*
X01173Y01750D02*
X01827D01*
X02263Y01745D02*
Y02635D01*
X02917D01*
Y01745D02*
Y02635D01*
X02263Y01745D02*
X02917D01*
D11*
X03780Y01178D02*
D03*
X03680D02*
D03*
X03580D02*
D03*
X03480D02*
D03*
D12*
X03380D02*
D03*
D13*
X04013Y02175D02*
D03*
X01908Y02165D02*
D03*
X03018Y02190D02*
D03*
D14*
X04217Y02175D02*
D03*
X04115D02*
D03*
X02112Y02165D02*
D03*
X02010D02*
D03*
X03222Y02190D02*
D03*
X03120D02*
D03*
D15*
X02383Y02855D02*
D03*
X02580D02*
D03*
X02777D02*
D03*
X02787Y01345D02*
D03*
X02590D02*
D03*
X02393D02*
D03*
D16*
X04050Y01555D02*
D03*
Y01155D02*
D03*
X02075Y01620D02*
D03*
Y01220D02*
D03*
X03045Y01605D02*
D03*
Y01205D02*
D03*
D17*
X03635Y01846D02*
D03*
X03399Y01925D02*
D03*
X03395Y02405D02*
D03*
X03871D02*
D03*
Y01925D02*
D03*
X01500Y01876D02*
D03*
X01264Y01955D02*
D03*
X01260Y02435D02*
D03*
X01736D02*
D03*
Y01955D02*
D03*
X02590Y01871D02*
D03*
X02354Y01950D02*
D03*
X02350Y02430D02*
D03*
X02826D02*
D03*
Y01950D02*
D03*
D18*
X03225Y01678D02*
D03*
X01105Y01683D02*
D03*
X02190Y01678D02*
D03*
D19*
X03225Y02032D02*
D03*
X01105Y02037D02*
D03*
X02190Y02032D02*
D03*
D20*
X01190Y02960D02*
D03*
X01170Y01175D02*
D03*
X04330Y02945D02*
D03*
X04335Y01175D02*
D03*
M02*
