M48
;Layer_Color=6321
;FILE_FORMAT=2:3
INCH
T7F00S00C0.200
%
G90
G05
T07
G00X04587Y00847
M15
G01X04606Y00853
G01X04623Y00862
G01X04639Y00875
G01X04651Y00891
G01X04660Y00909
G01X04665Y00928
G01X04667Y00945
G01X04667Y03189
G01X04665Y03209
G01X04659Y03228
G01X04649Y03245
G01X04637Y03261
G01X04621Y03273
G01X04603Y03282
G01X04584Y03288
G01X04567Y03289
G01X00945Y03289
G01X00925Y03287
G01X00906Y03281
G01X00888Y03271
G01X00873Y03259
G01X00861Y03243
G01X00852Y03225
G01X00846Y03206
G01X00845Y03189
G01X00845Y00945
G01X00847Y00925
G01X00853Y00906
G01X00862Y00888
G01X00875Y00873
G01X00891Y00861
G01X00909Y00852
G01X00928Y00846
G01X00945Y00845
G01X04567Y00845
G01X04587Y00847
M16
M17
M30
