G04 Layer_Color=20142*
%FSAX23Y23*%
%MOIN*%
G70*
G01*
G75*
%ADD27O,0.068X0.088*%
%ADD28R,0.068X0.088*%
%ADD29R,0.063X0.063*%
%ADD30C,0.063*%
%ADD31C,0.106*%
%ADD32C,0.075*%
%ADD33C,0.110*%
%ADD34C,0.073*%
%ADD35R,0.073X0.073*%
%ADD36C,0.208*%
D27*
X03780Y01178D02*
D03*
X03680D02*
D03*
X03580D02*
D03*
X03480D02*
D03*
D28*
X03380D02*
D03*
D29*
X04013Y02175D02*
D03*
X01908Y02165D02*
D03*
X03018Y02190D02*
D03*
D30*
X04217Y02175D02*
D03*
X04115D02*
D03*
X02112Y02165D02*
D03*
X02010D02*
D03*
X03222Y02190D02*
D03*
X03120D02*
D03*
D31*
X02383Y02855D02*
D03*
X02580D02*
D03*
X02777D02*
D03*
X02787Y01345D02*
D03*
X02590D02*
D03*
X02393D02*
D03*
D32*
X04050Y01555D02*
D03*
Y01155D02*
D03*
X02075Y01620D02*
D03*
Y01220D02*
D03*
X03045Y01605D02*
D03*
Y01205D02*
D03*
D33*
X03635Y01846D02*
D03*
X03399Y01925D02*
D03*
X03395Y02405D02*
D03*
X03871D02*
D03*
Y01925D02*
D03*
X01500Y01876D02*
D03*
X01264Y01955D02*
D03*
X01260Y02435D02*
D03*
X01736D02*
D03*
Y01955D02*
D03*
X02590Y01871D02*
D03*
X02354Y01950D02*
D03*
X02350Y02430D02*
D03*
X02826D02*
D03*
Y01950D02*
D03*
D34*
X03225Y01678D02*
D03*
X01105Y01683D02*
D03*
X02190Y01678D02*
D03*
D35*
X03225Y02032D02*
D03*
X01105Y02037D02*
D03*
X02190Y02032D02*
D03*
D36*
X01190Y02960D02*
D03*
X01170Y01175D02*
D03*
X04330Y02945D02*
D03*
X04335Y01175D02*
D03*
M02*
