M48
;Layer_Color=6321
;FILE_FORMAT=2:3
INCH
;TYPE=PLATED
T1F00S00C0.030
T2F00S00C0.035
T3F00S00C0.042
T4F00S00C0.045
T5F00S00C0.051
;TYPE=NON_PLATED
T6F00S00C0.190
%
T01
X02075Y01220
X03045Y01205
X04050Y01155
Y01555
X03045Y01605
X02075Y01620
T02
X03222Y02190
X04013Y02175
X04115
X04217
X03120Y02190
X03018
X02112Y02165
X02010
X01908
T03
X03380Y01178
X03480
X03580
X03680
X03780
T04
X03225Y01678
Y02032
X02190
Y01678
X01105Y01683
Y02037
T05
X02393Y01345
X02590
X02787
X03399Y01925
X03635Y01846
X03871Y01925
Y02405
X03395
X02826Y02430
X02777Y02855
X02580
X02383
X02350Y02430
X02354Y01950
X02590Y01871
X02826Y01950
X01736Y01955
Y02435
X01260
X01264Y01955
X01500Y01876
T06
X01170Y01175
X04335
X04330Y02945
X01190Y02960
M30
