%
M48
M72
T01C0.03000
T02C0.03150
T03C0.03200
T04C0.03937
T05C0.04016
T06C0.04724
T07C0.09055
T08C0.12598
%
T01
X21000Y56157
X36000Y66157
X21000Y75843
X36000Y85843
X51000Y75843
X51000Y56157
X96157Y61000
X115843Y61000
X141157Y61000
X160843Y61000
T02
X146000Y76039
X156000Y105961
X96000Y105961
X96000Y76039
T03
X66000Y81000
X76000Y101000
X68500Y106000
X76000Y111000
X51000Y111000
X43500Y106000
X51000Y101000
X26000Y101000
X18500Y106000
X26000Y111000
X66000Y51000
T04
X61079Y20669
X70921Y20669
X80764Y20669
X90606Y20669
X51236Y20669
X41394Y20669
X45921Y140331
X36079Y140331
X71079Y140331
X80921Y140331
T05
X114110Y141000
X127890Y141000
X124110Y21000
X137890Y21000
T06
X35094Y29331
X52220Y131669
X87220Y131669
T07
X104268Y143480
X137732Y143480
X147732Y18520
X114268Y18520
T08
X16000Y16000
X16000Y141000
X166000Y141000
X166000Y16000
M30
