G75*
%MOIN*%
%OFA0B0*%
%FSLAX25Y25*%
%IPPOS*%
%LPD*%
%AMOC8*
5,1,8,0,0,1.08239X$1,22.5*
%
%ADD10R,0.05937X0.05937*%
%ADD11R,0.06024X0.06024*%
%ADD12R,0.05150X0.05150*%
%ADD13C,0.05200*%
%ADD14OC8,0.05200*%
%ADD15C,0.05000*%
%ADD16C,0.02400*%
%ADD17C,0.05600*%
%ADD18C,0.04000*%
%ADD19C,0.07600*%
%ADD20C,0.10000*%
D10*
X0041394Y0020669D03*
X0051236Y0020669D03*
X0061079Y0020669D03*
X0070921Y0020669D03*
X0080764Y0020669D03*
X0090606Y0020669D03*
X0080921Y0140331D03*
X0071079Y0140331D03*
X0045921Y0140331D03*
X0036079Y0140331D03*
D11*
X0114110Y0141000D03*
X0127890Y0141000D03*
X0124110Y0021000D03*
X0137890Y0021000D03*
D12*
X0146000Y0076039D03*
X0156000Y0105961D03*
X0096000Y0105961D03*
X0096000Y0076039D03*
D13*
X0066000Y0078400D02*
X0066000Y0083600D01*
X0066000Y0053600D02*
X0066000Y0048400D01*
D14*
X0076000Y0101000D03*
X0068500Y0106000D03*
X0076000Y0111000D03*
X0051000Y0111000D03*
X0043500Y0106000D03*
X0051000Y0101000D03*
X0026000Y0101000D03*
X0018500Y0106000D03*
X0026000Y0111000D03*
D15*
X0036000Y0085843D03*
X0021000Y0075843D03*
X0036000Y0066157D03*
X0021000Y0056157D03*
X0051000Y0056157D03*
X0051000Y0075843D03*
X0096157Y0061000D03*
X0115843Y0061000D03*
X0141157Y0061000D03*
X0160843Y0061000D03*
D16*
X0026716Y0011561D02*
X0026507Y0011200D01*
X0107831Y0011200D01*
X0106021Y0013009D01*
X0104540Y0016585D01*
X0104540Y0020455D01*
X0106021Y0024030D01*
X0108757Y0026766D01*
X0112333Y0028247D01*
X0116203Y0028247D01*
X0119778Y0026766D01*
X0120433Y0026111D01*
X0120809Y0026212D01*
X0124110Y0026212D01*
X0124110Y0021000D01*
X0124110Y0021000D01*
X0124110Y0021000D01*
X0124110Y0015788D01*
X0123665Y0015788D01*
X0122514Y0013009D01*
X0120705Y0011200D01*
X0141295Y0011200D01*
X0139644Y0012851D01*
X0139521Y0012800D01*
X0136259Y0012800D01*
X0134356Y0013588D01*
X0134003Y0013588D01*
X0132386Y0014258D01*
X0131148Y0015496D01*
X0130478Y0017113D01*
X0130478Y0017466D01*
X0129690Y0019369D01*
X0129690Y0029521D01*
X0130938Y0032535D01*
X0131608Y0033205D01*
X0133031Y0036640D01*
X0151443Y0055051D01*
X0151443Y0072264D01*
X0150723Y0072983D01*
X0150625Y0072615D01*
X0150335Y0072114D01*
X0149926Y0071704D01*
X0149424Y0071414D01*
X0148864Y0071265D01*
X0146000Y0071265D01*
X0146000Y0076039D01*
X0146000Y0076039D01*
X0146000Y0071265D01*
X0143136Y0071265D01*
X0142576Y0071414D01*
X0142074Y0071704D01*
X0141665Y0072114D01*
X0141375Y0072615D01*
X0141225Y0073175D01*
X0141225Y0076039D01*
X0146000Y0076039D01*
X0146000Y0076039D01*
X0141225Y0076039D01*
X0141225Y0078904D01*
X0141375Y0079463D01*
X0141665Y0079965D01*
X0142074Y0080375D01*
X0142576Y0080664D01*
X0142944Y0080763D01*
X0122565Y0101141D01*
X0119921Y0103786D01*
X0118490Y0107240D01*
X0118490Y0130870D01*
X0118544Y0131000D01*
X0094783Y0131000D01*
X0094783Y0130165D01*
X0093631Y0127386D01*
X0091504Y0125258D01*
X0088725Y0124107D01*
X0085716Y0124107D01*
X0082937Y0125258D01*
X0080810Y0127386D01*
X0079658Y0130165D01*
X0079658Y0131000D01*
X0076182Y0131000D01*
X0058200Y0113018D01*
X0058200Y0109568D01*
X0058000Y0109085D01*
X0058000Y0108101D01*
X0057304Y0107404D01*
X0057104Y0106922D01*
X0055078Y0104896D01*
X0054596Y0104696D01*
X0054344Y0104444D01*
X0055800Y0102988D01*
X0055800Y0101000D01*
X0051000Y0101000D01*
X0051000Y0101000D01*
X0055800Y0101000D01*
X0055800Y0099012D01*
X0052988Y0096200D01*
X0051000Y0096200D01*
X0051000Y0101000D01*
X0051000Y0101000D01*
X0051000Y0096200D01*
X0049012Y0096200D01*
X0046600Y0098612D01*
X0046600Y0089886D01*
X0045747Y0087828D01*
X0044172Y0086253D01*
X0044172Y0086253D01*
X0042900Y0084980D01*
X0042900Y0084470D01*
X0041850Y0081934D01*
X0039909Y0079993D01*
X0037372Y0078943D01*
X0034627Y0078943D01*
X0032091Y0079993D01*
X0030150Y0081934D01*
X0029100Y0084470D01*
X0029100Y0087215D01*
X0030150Y0089751D01*
X0032091Y0091692D01*
X0034627Y0092743D01*
X0034823Y0092743D01*
X0035400Y0093320D01*
X0035400Y0104614D01*
X0036253Y0106672D01*
X0036500Y0106920D01*
X0036500Y0108899D01*
X0040601Y0113000D01*
X0043800Y0113000D01*
X0043800Y0117432D01*
X0044896Y0120078D01*
X0049449Y0124632D01*
X0047937Y0125258D01*
X0045810Y0127386D01*
X0044658Y0130165D01*
X0044658Y0131000D01*
X0036930Y0131000D01*
X0033200Y0127270D01*
X0033200Y0109568D01*
X0033000Y0109085D01*
X0033000Y0108101D01*
X0032304Y0107404D01*
X0032104Y0106922D01*
X0030078Y0104896D01*
X0029596Y0104696D01*
X0029344Y0104444D01*
X0030800Y0102988D01*
X0030800Y0101000D01*
X0026000Y0101000D01*
X0026000Y0101000D01*
X0030800Y0101000D01*
X0030800Y0099012D01*
X0027988Y0096200D01*
X0026000Y0096200D01*
X0026000Y0101000D01*
X0026000Y0101000D01*
X0026000Y0096200D01*
X0024012Y0096200D01*
X0021600Y0098612D01*
X0021600Y0083320D01*
X0022177Y0082743D01*
X0022372Y0082743D01*
X0024909Y0081692D01*
X0026850Y0079751D01*
X0027900Y0077215D01*
X0027900Y0074470D01*
X0026850Y0071934D01*
X0024909Y0069993D01*
X0022372Y0068943D01*
X0019627Y0068943D01*
X0017091Y0069993D01*
X0015150Y0071934D01*
X0014100Y0074470D01*
X0014100Y0074980D01*
X0012828Y0076253D01*
X0011253Y0077828D01*
X0011200Y0077955D01*
X0011200Y0026507D01*
X0011561Y0026716D01*
X0014486Y0027499D01*
X0016581Y0027499D01*
X0016253Y0027828D01*
X0015400Y0029886D01*
X0015400Y0051999D01*
X0015150Y0052249D01*
X0014100Y0054785D01*
X0014100Y0057530D01*
X0015150Y0060066D01*
X0017091Y0062007D01*
X0019627Y0063057D01*
X0022372Y0063057D01*
X0024909Y0062007D01*
X0026850Y0060066D01*
X0027900Y0057530D01*
X0027900Y0054785D01*
X0026850Y0052249D01*
X0026600Y0051999D01*
X0026600Y0033320D01*
X0027987Y0031933D01*
X0028684Y0033614D01*
X0030811Y0035742D01*
X0032598Y0036482D01*
X0031253Y0037828D01*
X0030400Y0039886D01*
X0030400Y0061999D01*
X0030150Y0062249D01*
X0029100Y0064785D01*
X0029100Y0067530D01*
X0030150Y0070066D01*
X0032091Y0072007D01*
X0034627Y0073057D01*
X0037372Y0073057D01*
X0039909Y0072007D01*
X0041850Y0070066D01*
X0042900Y0067530D01*
X0042900Y0064785D01*
X0041850Y0062249D01*
X0041600Y0061999D01*
X0041600Y0043320D01*
X0045659Y0039260D01*
X0045400Y0039886D01*
X0045400Y0051999D01*
X0045150Y0052249D01*
X0044100Y0054785D01*
X0044100Y0057530D01*
X0045150Y0060066D01*
X0047091Y0062007D01*
X0049627Y0063057D01*
X0052372Y0063057D01*
X0054909Y0062007D01*
X0056850Y0060066D01*
X0057900Y0057530D01*
X0057900Y0054785D01*
X0056850Y0052249D01*
X0056600Y0051999D01*
X0056600Y0043320D01*
X0065826Y0034093D01*
X0066000Y0033674D01*
X0066174Y0034093D01*
X0087828Y0055747D01*
X0089886Y0056600D01*
X0094490Y0056600D01*
X0094353Y0056644D01*
X0093694Y0056980D01*
X0093096Y0057415D01*
X0092573Y0057938D01*
X0092138Y0058537D01*
X0091802Y0059196D01*
X0091573Y0059899D01*
X0091457Y0060630D01*
X0091457Y0061000D01*
X0096157Y0061000D01*
X0096157Y0061000D01*
X0091457Y0061000D01*
X0091457Y0061370D01*
X0091573Y0062101D01*
X0091802Y0062804D01*
X0092138Y0063463D01*
X0092573Y0064062D01*
X0093096Y0064585D01*
X0093694Y0065020D01*
X0094353Y0065356D01*
X0095057Y0065584D01*
X0095788Y0065700D01*
X0096157Y0065700D01*
X0096157Y0061000D01*
X0096158Y0061000D01*
X0100857Y0061000D01*
X0096158Y0061000D01*
X0096158Y0061000D01*
X0096158Y0065700D01*
X0096527Y0065700D01*
X0097258Y0065584D01*
X0097962Y0065356D01*
X0098621Y0065020D01*
X0099219Y0064585D01*
X0099742Y0064062D01*
X0100177Y0063463D01*
X0100513Y0062804D01*
X0100742Y0062101D01*
X0100857Y0061370D01*
X0100857Y0061000D01*
X0100857Y0060630D01*
X0100742Y0059899D01*
X0100513Y0059196D01*
X0100177Y0058537D01*
X0099742Y0057938D01*
X0099219Y0057415D01*
X0098621Y0056980D01*
X0097962Y0056644D01*
X0097825Y0056600D01*
X0108680Y0056600D01*
X0109752Y0057672D01*
X0108943Y0059627D01*
X0108943Y0062372D01*
X0109993Y0064909D01*
X0111934Y0066850D01*
X0114470Y0067900D01*
X0117215Y0067900D01*
X0119751Y0066850D01*
X0120001Y0066600D01*
X0136999Y0066600D01*
X0137249Y0066850D01*
X0139785Y0067900D01*
X0142530Y0067900D01*
X0145066Y0066850D01*
X0147007Y0064909D01*
X0148057Y0062372D01*
X0148057Y0059627D01*
X0147007Y0057091D01*
X0145066Y0055150D01*
X0142530Y0054100D01*
X0139785Y0054100D01*
X0137249Y0055150D01*
X0136999Y0055400D01*
X0121600Y0055400D01*
X0121600Y0054886D01*
X0120747Y0052828D01*
X0119172Y0051253D01*
X0114172Y0046253D01*
X0112114Y0045400D01*
X0093320Y0045400D01*
X0076521Y0028602D01*
X0076521Y0027873D01*
X0076920Y0028038D01*
X0084607Y0028038D01*
X0086225Y0027368D01*
X0087462Y0026130D01*
X0087584Y0025838D01*
X0090606Y0025838D01*
X0090606Y0020669D01*
X0090606Y0020669D01*
X0090606Y0015501D01*
X0087584Y0015501D01*
X0087462Y0015208D01*
X0086225Y0013971D01*
X0084607Y0013301D01*
X0076920Y0013301D01*
X0075843Y0013747D01*
X0074765Y0013301D01*
X0067078Y0013301D01*
X0066000Y0013747D01*
X0064922Y0013301D01*
X0057235Y0013301D01*
X0056157Y0013747D01*
X0055080Y0013301D01*
X0047392Y0013301D01*
X0046315Y0013747D01*
X0045237Y0013301D01*
X0037550Y0013301D01*
X0035933Y0013971D01*
X0034834Y0015069D01*
X0030217Y0015069D01*
X0028159Y0015922D01*
X0027499Y0016581D01*
X0027499Y0014486D01*
X0026716Y0011561D01*
X0027153Y0013196D02*
X0105944Y0013196D01*
X0104951Y0015594D02*
X0094212Y0015594D01*
X0094424Y0015651D02*
X0094926Y0015940D01*
X0095335Y0016350D01*
X0095625Y0016852D01*
X0095775Y0017411D01*
X0095775Y0020669D01*
X0090606Y0020669D01*
X0090606Y0015501D01*
X0093864Y0015501D01*
X0094424Y0015651D01*
X0095775Y0017993D02*
X0104540Y0017993D01*
X0104540Y0020391D02*
X0095775Y0020391D01*
X0095775Y0020669D02*
X0095775Y0023927D01*
X0095625Y0024487D01*
X0095335Y0024989D01*
X0094926Y0025398D01*
X0094424Y0025688D01*
X0093864Y0025838D01*
X0090606Y0025838D01*
X0090606Y0020669D01*
X0090606Y0020669D01*
X0090606Y0020669D01*
X0095775Y0020669D01*
X0095775Y0022790D02*
X0105507Y0022790D01*
X0107179Y0025188D02*
X0095136Y0025188D01*
X0090606Y0025188D02*
X0090606Y0025188D01*
X0090606Y0022790D02*
X0090606Y0022790D01*
X0090606Y0020391D02*
X0090606Y0020391D01*
X0090606Y0017993D02*
X0090606Y0017993D01*
X0090606Y0015594D02*
X0090606Y0015594D01*
X0085697Y0027587D02*
X0110738Y0027587D01*
X0117798Y0027587D02*
X0129690Y0027587D01*
X0128473Y0025772D02*
X0127971Y0026062D01*
X0127412Y0026212D01*
X0124110Y0026212D01*
X0124110Y0021000D01*
X0124110Y0015788D01*
X0127412Y0015788D01*
X0127971Y0015938D01*
X0128473Y0016228D01*
X0128882Y0016637D01*
X0129172Y0017139D01*
X0129322Y0017699D01*
X0129322Y0021000D01*
X0129322Y0024301D01*
X0129172Y0024861D01*
X0128882Y0025363D01*
X0128473Y0025772D01*
X0128983Y0025188D02*
X0129690Y0025188D01*
X0129690Y0022790D02*
X0129322Y0022790D01*
X0129322Y0021000D02*
X0124110Y0021000D01*
X0124110Y0021000D01*
X0129322Y0021000D01*
X0129322Y0020391D02*
X0129690Y0020391D01*
X0129322Y0017993D02*
X0130260Y0017993D01*
X0131107Y0015594D02*
X0123585Y0015594D01*
X0122591Y0013196D02*
X0135304Y0013196D01*
X0124110Y0017993D02*
X0124110Y0017993D01*
X0124110Y0020391D02*
X0124110Y0020391D01*
X0124110Y0022790D02*
X0124110Y0022790D01*
X0124110Y0025188D02*
X0124110Y0025188D01*
X0129882Y0029985D02*
X0077905Y0029985D01*
X0080303Y0032384D02*
X0130876Y0032384D01*
X0132262Y0034782D02*
X0082702Y0034782D01*
X0085100Y0037181D02*
X0133572Y0037181D01*
X0135971Y0039579D02*
X0087499Y0039579D01*
X0089897Y0041978D02*
X0138369Y0041978D01*
X0140768Y0044376D02*
X0092296Y0044376D01*
X0091000Y0051000D02*
X0070921Y0030921D01*
X0070921Y0020669D01*
X0061079Y0020669D02*
X0061079Y0030921D01*
X0051000Y0041000D01*
X0051000Y0056157D01*
X0057387Y0058767D02*
X0092020Y0058767D01*
X0091457Y0061166D02*
X0055750Y0061166D01*
X0057900Y0056369D02*
X0062078Y0056369D01*
X0061895Y0056116D02*
X0061552Y0055443D01*
X0061318Y0054724D01*
X0061200Y0053978D01*
X0061200Y0051000D01*
X0066000Y0051000D01*
X0066000Y0051000D01*
X0066000Y0058400D01*
X0066378Y0058400D01*
X0067124Y0058282D01*
X0067843Y0058048D01*
X0068516Y0057705D01*
X0069127Y0057261D01*
X0069661Y0056727D01*
X0070105Y0056116D01*
X0070448Y0055443D01*
X0070682Y0054724D01*
X0070800Y0053978D01*
X0070800Y0051000D01*
X0066000Y0051000D01*
X0066000Y0051000D01*
X0066000Y0051000D01*
X0066000Y0058400D01*
X0065622Y0058400D01*
X0064876Y0058282D01*
X0064157Y0058048D01*
X0063484Y0057705D01*
X0062873Y0057261D01*
X0062339Y0056727D01*
X0061895Y0056116D01*
X0061200Y0053970D02*
X0057562Y0053970D01*
X0056600Y0051572D02*
X0061200Y0051572D01*
X0061200Y0051000D02*
X0061200Y0048022D01*
X0061318Y0047276D01*
X0061552Y0046557D01*
X0061895Y0045884D01*
X0062339Y0045273D01*
X0062873Y0044739D01*
X0063484Y0044295D01*
X0064157Y0043952D01*
X0064876Y0043718D01*
X0065622Y0043600D01*
X0066000Y0043600D01*
X0066378Y0043600D01*
X0067124Y0043718D01*
X0067843Y0043952D01*
X0068516Y0044295D01*
X0069127Y0044739D01*
X0069661Y0045273D01*
X0070105Y0045884D01*
X0070448Y0046557D01*
X0070682Y0047276D01*
X0070800Y0048022D01*
X0070800Y0051000D01*
X0066000Y0051000D01*
X0066000Y0043600D01*
X0066000Y0051000D01*
X0066000Y0051000D01*
X0061200Y0051000D01*
X0061200Y0049173D02*
X0056600Y0049173D01*
X0056600Y0046775D02*
X0061481Y0046775D01*
X0063372Y0044376D02*
X0056600Y0044376D01*
X0057942Y0041978D02*
X0074058Y0041978D01*
X0071660Y0039579D02*
X0060340Y0039579D01*
X0062739Y0037181D02*
X0069261Y0037181D01*
X0066863Y0034782D02*
X0065137Y0034782D01*
X0066000Y0044376D02*
X0066000Y0044376D01*
X0066000Y0046775D02*
X0066000Y0046775D01*
X0068628Y0044376D02*
X0076457Y0044376D01*
X0078855Y0046775D02*
X0070519Y0046775D01*
X0070800Y0049173D02*
X0081254Y0049173D01*
X0083652Y0051572D02*
X0070800Y0051572D01*
X0070800Y0053970D02*
X0086051Y0053970D01*
X0089328Y0056369D02*
X0069922Y0056369D01*
X0066000Y0056369D02*
X0066000Y0056369D01*
X0066000Y0053970D02*
X0066000Y0053970D01*
X0066000Y0051572D02*
X0066000Y0051572D01*
X0066000Y0049173D02*
X0066000Y0049173D01*
X0045527Y0039579D02*
X0045340Y0039579D01*
X0045400Y0041978D02*
X0042942Y0041978D01*
X0041600Y0044376D02*
X0045400Y0044376D01*
X0045400Y0046775D02*
X0041600Y0046775D01*
X0041600Y0049173D02*
X0045400Y0049173D01*
X0045400Y0051572D02*
X0041600Y0051572D01*
X0041600Y0053970D02*
X0044437Y0053970D01*
X0044100Y0056369D02*
X0041600Y0056369D01*
X0041600Y0058767D02*
X0044612Y0058767D01*
X0046250Y0061166D02*
X0041600Y0061166D01*
X0042394Y0063564D02*
X0092211Y0063564D01*
X0096157Y0063564D02*
X0096158Y0063564D01*
X0096157Y0061166D02*
X0096158Y0061166D01*
X0100104Y0063564D02*
X0109436Y0063564D01*
X0111047Y0065963D02*
X0042900Y0065963D01*
X0042556Y0068361D02*
X0151443Y0068361D01*
X0151443Y0070760D02*
X0055675Y0070760D01*
X0054909Y0069993D02*
X0056850Y0071934D01*
X0057900Y0074470D01*
X0057900Y0077215D01*
X0057090Y0079170D01*
X0059000Y0081080D01*
X0059000Y0077008D01*
X0060066Y0074435D01*
X0062035Y0072466D01*
X0064608Y0071400D01*
X0067392Y0071400D01*
X0069965Y0072466D01*
X0071934Y0074435D01*
X0073000Y0077008D01*
X0073000Y0078949D01*
X0079625Y0085574D01*
X0081426Y0087375D01*
X0082400Y0089727D01*
X0082400Y0097501D01*
X0083000Y0098101D01*
X0083000Y0098949D01*
X0083612Y0099561D01*
X0091162Y0099561D01*
X0092550Y0098986D01*
X0099450Y0098986D01*
X0101067Y0099656D01*
X0102305Y0100893D01*
X0102975Y0102511D01*
X0102975Y0109411D01*
X0102305Y0111028D01*
X0101067Y0112266D01*
X0099450Y0112935D01*
X0092550Y0112935D01*
X0091162Y0112361D01*
X0083000Y0112361D01*
X0083000Y0113899D01*
X0078899Y0118000D01*
X0073101Y0118000D01*
X0069000Y0113899D01*
X0069000Y0113000D01*
X0065601Y0113000D01*
X0061500Y0108899D01*
X0061500Y0106920D01*
X0061253Y0106672D01*
X0060400Y0104614D01*
X0060400Y0098320D01*
X0046253Y0084172D01*
X0045400Y0082114D01*
X0045400Y0080001D01*
X0045150Y0079751D01*
X0044100Y0077215D01*
X0044100Y0074470D01*
X0045150Y0071934D01*
X0047091Y0069993D01*
X0049627Y0068943D01*
X0052372Y0068943D01*
X0054909Y0069993D01*
X0057357Y0073158D02*
X0061342Y0073158D01*
X0059601Y0075557D02*
X0057900Y0075557D01*
X0057593Y0077955D02*
X0059000Y0077955D01*
X0059000Y0080354D02*
X0058273Y0080354D01*
X0051000Y0081000D02*
X0051000Y0075843D01*
X0046325Y0070760D02*
X0041156Y0070760D01*
X0044643Y0073158D02*
X0027357Y0073158D01*
X0027900Y0075557D02*
X0044100Y0075557D01*
X0044407Y0077955D02*
X0027593Y0077955D01*
X0026247Y0080354D02*
X0031731Y0080354D01*
X0029811Y0082752D02*
X0022167Y0082752D01*
X0021600Y0085151D02*
X0029100Y0085151D01*
X0029239Y0087549D02*
X0021600Y0087549D01*
X0021600Y0089948D02*
X0030347Y0089948D01*
X0033671Y0092346D02*
X0021600Y0092346D01*
X0021600Y0094745D02*
X0035400Y0094745D01*
X0035400Y0097143D02*
X0028932Y0097143D01*
X0026000Y0097143D02*
X0026000Y0097143D01*
X0026000Y0099542D02*
X0026000Y0099542D01*
X0023068Y0097143D02*
X0021600Y0097143D01*
X0016000Y0103500D02*
X0018500Y0106000D01*
X0016000Y0103500D02*
X0016000Y0081000D01*
X0021000Y0076000D01*
X0021000Y0075843D01*
X0014643Y0073158D02*
X0011200Y0073158D01*
X0011200Y0075557D02*
X0013524Y0075557D01*
X0011200Y0070760D02*
X0016325Y0070760D01*
X0011200Y0068361D02*
X0029444Y0068361D01*
X0030844Y0070760D02*
X0025675Y0070760D01*
X0029100Y0065963D02*
X0011200Y0065963D01*
X0011200Y0063564D02*
X0029606Y0063564D01*
X0030400Y0061166D02*
X0025750Y0061166D01*
X0027387Y0058767D02*
X0030400Y0058767D01*
X0030400Y0056369D02*
X0027900Y0056369D01*
X0027562Y0053970D02*
X0030400Y0053970D01*
X0030400Y0051572D02*
X0026600Y0051572D01*
X0026600Y0049173D02*
X0030400Y0049173D01*
X0030400Y0046775D02*
X0026600Y0046775D01*
X0026600Y0044376D02*
X0030400Y0044376D01*
X0030400Y0041978D02*
X0026600Y0041978D01*
X0026600Y0039579D02*
X0030527Y0039579D01*
X0031900Y0037181D02*
X0026600Y0037181D01*
X0026600Y0034782D02*
X0029851Y0034782D01*
X0028174Y0032384D02*
X0027536Y0032384D01*
X0021000Y0031000D02*
X0021000Y0056157D01*
X0014612Y0058767D02*
X0011200Y0058767D01*
X0011200Y0061166D02*
X0016250Y0061166D01*
X0014100Y0056369D02*
X0011200Y0056369D01*
X0011200Y0053970D02*
X0014437Y0053970D01*
X0015400Y0051572D02*
X0011200Y0051572D01*
X0011200Y0049173D02*
X0015400Y0049173D01*
X0015400Y0046775D02*
X0011200Y0046775D01*
X0011200Y0044376D02*
X0015400Y0044376D01*
X0015400Y0041978D02*
X0011200Y0041978D01*
X0011200Y0039579D02*
X0015400Y0039579D01*
X0015400Y0037181D02*
X0011200Y0037181D01*
X0011200Y0034782D02*
X0015400Y0034782D01*
X0015400Y0032384D02*
X0011200Y0032384D01*
X0011200Y0029985D02*
X0015400Y0029985D01*
X0016494Y0027587D02*
X0011200Y0027587D01*
X0021000Y0031000D02*
X0031331Y0020669D01*
X0041394Y0020669D01*
X0051236Y0020669D02*
X0051236Y0025764D01*
X0036000Y0041000D01*
X0036000Y0066157D01*
X0040269Y0080354D02*
X0045400Y0080354D01*
X0045664Y0082752D02*
X0042189Y0082752D01*
X0043070Y0085151D02*
X0047231Y0085151D01*
X0045469Y0087549D02*
X0049630Y0087549D01*
X0052028Y0089948D02*
X0046600Y0089948D01*
X0046600Y0092346D02*
X0054427Y0092346D01*
X0056825Y0094745D02*
X0046600Y0094745D01*
X0046600Y0097143D02*
X0048068Y0097143D01*
X0051000Y0097143D02*
X0051000Y0097143D01*
X0053932Y0097143D02*
X0059224Y0097143D01*
X0060400Y0099542D02*
X0055800Y0099542D01*
X0055800Y0101940D02*
X0060400Y0101940D01*
X0060400Y0104339D02*
X0054449Y0104339D01*
X0056920Y0106737D02*
X0061318Y0106737D01*
X0061737Y0109136D02*
X0058021Y0109136D01*
X0058200Y0111534D02*
X0064135Y0111534D01*
X0069034Y0113933D02*
X0059115Y0113933D01*
X0061514Y0116332D02*
X0071432Y0116332D01*
X0066311Y0121129D02*
X0118490Y0121129D01*
X0118490Y0118730D02*
X0063912Y0118730D01*
X0068709Y0123527D02*
X0118490Y0123527D01*
X0118490Y0125926D02*
X0092171Y0125926D01*
X0094020Y0128324D02*
X0118490Y0128324D01*
X0118490Y0130723D02*
X0094783Y0130723D01*
X0082270Y0125926D02*
X0071108Y0125926D01*
X0073506Y0128324D02*
X0080421Y0128324D01*
X0079658Y0130723D02*
X0075905Y0130723D01*
X0080568Y0116332D02*
X0118490Y0116332D01*
X0118490Y0113933D02*
X0082966Y0113933D01*
X0068500Y0106000D02*
X0066000Y0103500D01*
X0066000Y0096000D01*
X0051000Y0081000D01*
X0041000Y0091000D02*
X0041000Y0103500D01*
X0043500Y0106000D01*
X0039135Y0111534D02*
X0033200Y0111534D01*
X0033021Y0109136D02*
X0036737Y0109136D01*
X0036318Y0106737D02*
X0031920Y0106737D01*
X0029449Y0104339D02*
X0035400Y0104339D01*
X0035400Y0101940D02*
X0030800Y0101940D01*
X0030800Y0099542D02*
X0035400Y0099542D01*
X0041000Y0091000D02*
X0036000Y0086000D01*
X0036000Y0085843D01*
X0051000Y0099542D02*
X0051000Y0099542D01*
X0043800Y0113933D02*
X0033200Y0113933D01*
X0033200Y0116332D02*
X0043800Y0116332D01*
X0044338Y0118730D02*
X0033200Y0118730D01*
X0033200Y0121129D02*
X0045946Y0121129D01*
X0048345Y0123527D02*
X0033200Y0123527D01*
X0033200Y0125926D02*
X0047270Y0125926D01*
X0045421Y0128324D02*
X0034254Y0128324D01*
X0036653Y0130723D02*
X0044658Y0130723D01*
X0083593Y0099542D02*
X0091207Y0099542D01*
X0082400Y0097143D02*
X0126563Y0097143D01*
X0128961Y0094745D02*
X0082400Y0094745D01*
X0082400Y0092346D02*
X0131360Y0092346D01*
X0133758Y0089948D02*
X0082400Y0089948D01*
X0081498Y0087549D02*
X0136157Y0087549D01*
X0138556Y0085151D02*
X0079202Y0085151D01*
X0076803Y0082752D02*
X0140954Y0082752D01*
X0142054Y0080354D02*
X0099946Y0080354D01*
X0099926Y0080375D02*
X0099424Y0080664D01*
X0098864Y0080814D01*
X0096000Y0080814D01*
X0096000Y0076039D01*
X0096000Y0071265D01*
X0098864Y0071265D01*
X0099424Y0071414D01*
X0099926Y0071704D01*
X0100335Y0072114D01*
X0100625Y0072615D01*
X0100775Y0073175D01*
X0100775Y0076039D01*
X0096000Y0076039D01*
X0096000Y0076039D01*
X0096000Y0071265D01*
X0093136Y0071265D01*
X0092576Y0071414D01*
X0092074Y0071704D01*
X0091665Y0072114D01*
X0091375Y0072615D01*
X0091225Y0073175D01*
X0091225Y0076039D01*
X0096000Y0076039D01*
X0096000Y0076039D01*
X0096000Y0076039D01*
X0100775Y0076039D01*
X0100775Y0078904D01*
X0100625Y0079463D01*
X0100335Y0079965D01*
X0099926Y0080375D01*
X0100775Y0077955D02*
X0141225Y0077955D01*
X0141225Y0075557D02*
X0100775Y0075557D01*
X0100770Y0073158D02*
X0141230Y0073158D01*
X0146000Y0073158D02*
X0146000Y0073158D01*
X0146000Y0075557D02*
X0146000Y0075557D01*
X0145953Y0065963D02*
X0151443Y0065963D01*
X0151443Y0063564D02*
X0147564Y0063564D01*
X0148057Y0061166D02*
X0151443Y0061166D01*
X0151443Y0058767D02*
X0147701Y0058767D01*
X0146284Y0056369D02*
X0151443Y0056369D01*
X0150362Y0053970D02*
X0121221Y0053970D01*
X0119491Y0051572D02*
X0147963Y0051572D01*
X0145565Y0049173D02*
X0117093Y0049173D01*
X0114694Y0046775D02*
X0143166Y0046775D01*
X0141157Y0061000D02*
X0115843Y0061000D01*
X0116000Y0060843D01*
X0116000Y0056000D01*
X0111000Y0051000D01*
X0091000Y0051000D01*
X0100295Y0058767D02*
X0109299Y0058767D01*
X0108943Y0061166D02*
X0100857Y0061166D01*
X0096000Y0073158D02*
X0096000Y0073158D01*
X0096000Y0075557D02*
X0096000Y0075557D01*
X0096000Y0076039D02*
X0091225Y0076039D01*
X0091225Y0078904D01*
X0091375Y0079463D01*
X0091665Y0079965D01*
X0092074Y0080375D01*
X0092576Y0080664D01*
X0093136Y0080814D01*
X0096000Y0080814D01*
X0096000Y0076039D01*
X0096000Y0076039D01*
X0096000Y0077955D02*
X0096000Y0077955D01*
X0096000Y0080354D02*
X0096000Y0080354D01*
X0092054Y0080354D02*
X0074405Y0080354D01*
X0073000Y0077955D02*
X0091225Y0077955D01*
X0091225Y0075557D02*
X0072399Y0075557D01*
X0070658Y0073158D02*
X0091230Y0073158D01*
X0100793Y0099542D02*
X0124164Y0099542D01*
X0121766Y0101940D02*
X0102739Y0101940D01*
X0102975Y0104339D02*
X0119692Y0104339D01*
X0118698Y0106737D02*
X0102975Y0106737D01*
X0102975Y0109136D02*
X0118490Y0109136D01*
X0118490Y0111534D02*
X0101798Y0111534D01*
X0028950Y0015594D02*
X0027499Y0015594D01*
D17*
X0026000Y0111000D02*
X0026000Y0130252D01*
X0036079Y0140331D01*
X0051000Y0116000D02*
X0071000Y0136000D01*
X0071000Y0140252D01*
X0071079Y0140331D01*
X0051000Y0116000D02*
X0051000Y0111000D01*
D18*
X0076000Y0101000D02*
X0076000Y0091000D01*
X0066000Y0081000D01*
X0076000Y0101000D02*
X0080961Y0105961D01*
X0096000Y0105961D01*
D19*
X0127890Y0129000D02*
X0128000Y0129000D01*
X0127890Y0129000D02*
X0127890Y0141000D01*
X0161000Y0061157D02*
X0160843Y0061000D01*
X0141000Y0031000D02*
X0137890Y0027890D01*
X0137890Y0021000D01*
D20*
X0141000Y0031000D02*
X0141000Y0031315D01*
X0160843Y0051157D01*
X0161000Y0051000D01*
X0160843Y0051157D02*
X0160843Y0061000D01*
X0160843Y0076157D01*
X0127890Y0109110D01*
X0127890Y0129000D01*
M02*
