G04 Layer_Physical_Order=2*
G04 Layer_Color=11436288*
%FSAX23Y23*%
%MOIN*%
G70*
G01*
G75*
%ADD10C,0.010*%
%ADD11C,0.055*%
%ADD12R,0.055X0.055*%
%ADD13C,0.200*%
%ADD14C,0.098*%
%ADD15C,0.067*%
%ADD16O,0.060X0.080*%
%ADD17R,0.060X0.080*%
%ADD18C,0.102*%
%ADD19R,0.065X0.065*%
%ADD20C,0.065*%
%ADD21C,0.030*%
%ADD22C,0.150*%
G36*
X04490Y03105D02*
Y01000D01*
X01000D01*
X01000Y01000D01*
X01000Y03101D01*
X01004Y03105D01*
X04490D01*
X04490Y03105D01*
D02*
G37*
%LPC*%
G36*
X03395Y02487D02*
X03379Y02485D01*
X03364Y02481D01*
X03350Y02473D01*
X03337Y02463D01*
X03327Y02450D01*
X03319Y02436D01*
X03315Y02421D01*
X03313Y02405D01*
X03315Y02389D01*
X03319Y02374D01*
X03327Y02360D01*
X03337Y02347D01*
X03350Y02337D01*
X03364Y02330D01*
X03379Y02325D01*
X03395Y02324D01*
X03411Y02325D01*
X03426Y02330D01*
X03440Y02337D01*
X03453Y02347D01*
X03463Y02360D01*
X03470Y02374D01*
X03475Y02389D01*
X03476Y02405D01*
X03475Y02421D01*
X03470Y02436D01*
X03463Y02450D01*
X03453Y02463D01*
X03440Y02473D01*
X03426Y02481D01*
X03411Y02485D01*
X03395Y02487D01*
D02*
G37*
G36*
X04335Y01305D02*
X04315Y01304D01*
X04295Y01299D01*
X04276Y01291D01*
X04258Y01280D01*
X04243Y01267D01*
X04230Y01252D01*
X04219Y01234D01*
X04211Y01215D01*
X04206Y01195D01*
X04205Y01175D01*
X04206Y01155D01*
X04211Y01135D01*
X04219Y01116D01*
X04230Y01098D01*
X04243Y01083D01*
X04258Y01070D01*
X04276Y01059D01*
X04295Y01051D01*
X04315Y01046D01*
X04335Y01045D01*
X04355Y01046D01*
X04375Y01051D01*
X04394Y01059D01*
X04412Y01070D01*
X04427Y01083D01*
X04440Y01098D01*
X04451Y01116D01*
X04459Y01135D01*
X04464Y01155D01*
X04465Y01175D01*
X04464Y01195D01*
X04459Y01215D01*
X04451Y01234D01*
X04440Y01252D01*
X04427Y01267D01*
X04412Y01280D01*
X04394Y01291D01*
X04375Y01299D01*
X04355Y01304D01*
X04335Y01305D01*
D02*
G37*
G36*
X01170D02*
X01150Y01304D01*
X01130Y01299D01*
X01111Y01291D01*
X01093Y01280D01*
X01078Y01267D01*
X01065Y01252D01*
X01054Y01234D01*
X01046Y01215D01*
X01041Y01195D01*
X01040Y01175D01*
X01041Y01155D01*
X01046Y01135D01*
X01054Y01116D01*
X01065Y01098D01*
X01078Y01083D01*
X01093Y01070D01*
X01111Y01059D01*
X01130Y01051D01*
X01150Y01046D01*
X01170Y01045D01*
X01190Y01046D01*
X01210Y01051D01*
X01229Y01059D01*
X01247Y01070D01*
X01262Y01083D01*
X01275Y01098D01*
X01286Y01116D01*
X01294Y01135D01*
X01299Y01155D01*
X01300Y01175D01*
X01299Y01195D01*
X01294Y01215D01*
X01286Y01234D01*
X01275Y01252D01*
X01262Y01267D01*
X01247Y01280D01*
X01229Y01291D01*
X01210Y01299D01*
X01190Y01304D01*
X01170Y01305D01*
D02*
G37*
G36*
X02350Y02512D02*
X02334Y02510D01*
X02319Y02506D01*
X02305Y02498D01*
X02292Y02488D01*
X02282Y02475D01*
X02274Y02461D01*
X02270Y02446D01*
X02268Y02430D01*
X02270Y02414D01*
X02274Y02399D01*
X02282Y02385D01*
X02292Y02372D01*
X02305Y02362D01*
X02319Y02355D01*
X02334Y02350D01*
X02350Y02349D01*
X02366Y02350D01*
X02381Y02355D01*
X02395Y02362D01*
X02408Y02372D01*
X02418Y02385D01*
X02425Y02399D01*
X02430Y02414D01*
X02431Y02430D01*
X02430Y02446D01*
X02425Y02461D01*
X02418Y02475D01*
X02408Y02488D01*
X02395Y02498D01*
X02381Y02506D01*
X02366Y02510D01*
X02350Y02512D01*
D02*
G37*
G36*
X01190Y03090D02*
X01170Y03089D01*
X01150Y03084D01*
X01131Y03076D01*
X01113Y03065D01*
X01098Y03052D01*
X01085Y03037D01*
X01074Y03019D01*
X01066Y03000D01*
X01061Y02980D01*
X01060Y02960D01*
X01061Y02940D01*
X01066Y02920D01*
X01074Y02901D01*
X01085Y02883D01*
X01098Y02868D01*
X01113Y02855D01*
X01131Y02844D01*
X01150Y02836D01*
X01170Y02831D01*
X01190Y02830D01*
X01210Y02831D01*
X01230Y02836D01*
X01249Y02844D01*
X01267Y02855D01*
X01282Y02868D01*
X01295Y02883D01*
X01306Y02901D01*
X01314Y02920D01*
X01319Y02940D01*
X01320Y02960D01*
X01319Y02980D01*
X01314Y03000D01*
X01306Y03019D01*
X01295Y03037D01*
X01282Y03052D01*
X01267Y03065D01*
X01249Y03076D01*
X01230Y03084D01*
X01210Y03089D01*
X01190Y03090D01*
D02*
G37*
G36*
X03421Y02960D02*
X02777D01*
X02760Y02959D01*
X02744Y02955D01*
X02729Y02949D01*
X02715Y02940D01*
X02702Y02929D01*
X02692Y02917D01*
X02683Y02903D01*
X02681Y02898D01*
X02676D01*
X02674Y02903D01*
X02665Y02917D01*
X02654Y02929D01*
X02642Y02940D01*
X02628Y02949D01*
X02613Y02955D01*
X02596Y02959D01*
X02580Y02960D01*
X02564Y02959D01*
X02547Y02955D01*
X02532Y02949D01*
X02518Y02940D01*
X02506Y02929D01*
X02495Y02917D01*
X02486Y02903D01*
X02484Y02898D01*
X02479D01*
X02477Y02903D01*
X02468Y02917D01*
X02458Y02929D01*
X02445Y02940D01*
X02431Y02949D01*
X02416Y02955D01*
X02400Y02959D01*
X02383Y02960D01*
X02156D01*
X02140Y02959D01*
X02124Y02955D01*
X02108Y02949D01*
X02094Y02940D01*
X02082Y02929D01*
X01662Y02510D01*
X01651Y02497D01*
X01642Y02483D01*
X01636Y02468D01*
X01632Y02452D01*
X01631Y02435D01*
X01632Y02419D01*
X01636Y02403D01*
X01642Y02387D01*
X01651Y02373D01*
X01662Y02361D01*
X01674Y02350D01*
X01688Y02341D01*
X01704Y02335D01*
X01720Y02331D01*
X01736Y02330D01*
X01753Y02331D01*
X01769Y02335D01*
X01784Y02341D01*
X01798Y02350D01*
X01811Y02361D01*
X02200Y02750D01*
X02383D01*
X02400Y02751D01*
X02416Y02755D01*
X02431Y02761D01*
X02445Y02770D01*
X02458Y02781D01*
X02468Y02793D01*
X02470Y02796D01*
X02475Y02794D01*
Y02676D01*
X02476Y02660D01*
X02480Y02644D01*
X02486Y02629D01*
X02495Y02614D01*
X02506Y02602D01*
X02752Y02356D01*
X02764Y02345D01*
X02778Y02336D01*
X02794Y02330D01*
X02810Y02326D01*
X02826Y02325D01*
X02843Y02326D01*
X02859Y02330D01*
X02874Y02336D01*
X02888Y02345D01*
X02901Y02356D01*
X02911Y02368D01*
X02920Y02382D01*
X02926Y02398D01*
X02930Y02414D01*
X02932Y02430D01*
X02930Y02447D01*
X02926Y02463D01*
X02920Y02478D01*
X02911Y02492D01*
X02901Y02505D01*
X02685Y02720D01*
Y02794D01*
X02690Y02796D01*
X02692Y02793D01*
X02702Y02781D01*
X02715Y02770D01*
X02729Y02761D01*
X02744Y02755D01*
X02760Y02751D01*
X02777Y02750D01*
X03378D01*
X03797Y02331D01*
X03809Y02320D01*
X03823Y02311D01*
X03839Y02305D01*
X03855Y02301D01*
X03871Y02300D01*
X03879Y02300D01*
X03881Y02296D01*
X03821Y02235D01*
X03258D01*
X03251Y02240D01*
X03237Y02246D01*
X03229Y02247D01*
X03164Y02312D01*
X03155Y02319D01*
X03151Y02321D01*
X03144Y02324D01*
X03132Y02325D01*
X02925D01*
X02925Y02325D01*
X02913Y02324D01*
X02902Y02319D01*
X02900Y02318D01*
X02893Y02312D01*
X02893Y02312D01*
X02806Y02225D01*
X02127D01*
X02116Y02224D01*
X02113Y02223D01*
X02112Y02223D01*
X02097Y02221D01*
X02083Y02215D01*
X02071Y02206D01*
X02064Y02197D01*
X02058D01*
X02051Y02206D01*
X02039Y02215D01*
X02025Y02221D01*
X02010Y02223D01*
X01995Y02221D01*
X01981Y02215D01*
X01970Y02207D01*
X01965Y02209D01*
Y02223D01*
X01850D01*
Y02210D01*
X01474D01*
X01462Y02209D01*
X01451Y02204D01*
X01442Y02197D01*
X01280Y02035D01*
X01264Y02036D01*
X01248Y02035D01*
X01233Y02030D01*
X01218Y02023D01*
X01206Y02013D01*
X01203Y02009D01*
X01198Y02008D01*
X01167Y02039D01*
Y02100D01*
X01043D01*
Y01975D01*
X01103D01*
X01155Y01923D01*
X01165Y01916D01*
X01176Y01911D01*
X01187Y01909D01*
X01196D01*
X01206Y01897D01*
X01218Y01887D01*
X01233Y01879D01*
X01248Y01875D01*
X01262Y01873D01*
X01264Y01869D01*
X01134Y01738D01*
X01129Y01741D01*
X01117Y01744D01*
X01105Y01746D01*
X01093Y01744D01*
X01081Y01741D01*
X01070Y01735D01*
X01061Y01727D01*
X01053Y01718D01*
X01047Y01707D01*
X01043Y01695D01*
X01042Y01683D01*
X01043Y01671D01*
X01047Y01659D01*
X01053Y01648D01*
X01061Y01638D01*
X01070Y01631D01*
X01081Y01625D01*
X01093Y01621D01*
X01103Y01620D01*
X01666Y01058D01*
X01675Y01051D01*
X01686Y01046D01*
X01698Y01045D01*
X03292D01*
X03304Y01046D01*
X03310Y01049D01*
X03315Y01051D01*
X03324Y01058D01*
X03374Y01108D01*
X03440D01*
Y01117D01*
X03445Y01119D01*
X03447Y01118D01*
X03457Y01112D01*
X03468Y01109D01*
X03480Y01108D01*
X03486Y01108D01*
X03531Y01063D01*
X03540Y01056D01*
X03551Y01051D01*
X03563Y01050D01*
X04120D01*
X04132Y01051D01*
X04138Y01054D01*
X04143Y01056D01*
X04152Y01063D01*
X04177Y01088D01*
X04177Y01088D01*
X04184Y01097D01*
X04189Y01108D01*
X04190Y01120D01*
Y01756D01*
X04249Y01815D01*
X04257Y01825D01*
X04261Y01836D01*
X04263Y01847D01*
Y02140D01*
X04268Y02146D01*
X04273Y02160D01*
X04275Y02175D01*
X04273Y02190D01*
X04268Y02204D01*
X04258Y02216D01*
X04246Y02225D01*
X04242Y02227D01*
X04172Y02297D01*
X04163Y02304D01*
X04158Y02306D01*
X04152Y02309D01*
X04140Y02310D01*
X03927D01*
X03926Y02315D01*
X03933Y02320D01*
X03946Y02331D01*
X03956Y02343D01*
X03965Y02357D01*
X03971Y02373D01*
X03975Y02389D01*
X03977Y02405D01*
X03975Y02422D01*
X03971Y02438D01*
X03965Y02453D01*
X03956Y02467D01*
X03946Y02480D01*
X03496Y02929D01*
X03483Y02940D01*
X03469Y02949D01*
X03454Y02955D01*
X03438Y02959D01*
X03421Y02960D01*
D02*
G37*
G36*
X01260Y02517D02*
X01244Y02515D01*
X01229Y02511D01*
X01215Y02503D01*
X01202Y02493D01*
X01192Y02480D01*
X01184Y02466D01*
X01180Y02451D01*
X01178Y02435D01*
X01180Y02419D01*
X01184Y02404D01*
X01192Y02390D01*
X01202Y02377D01*
X01215Y02367D01*
X01229Y02360D01*
X01244Y02355D01*
X01260Y02354D01*
X01276Y02355D01*
X01291Y02360D01*
X01305Y02367D01*
X01318Y02377D01*
X01328Y02390D01*
X01335Y02404D01*
X01340Y02419D01*
X01341Y02435D01*
X01340Y02451D01*
X01335Y02466D01*
X01328Y02480D01*
X01318Y02493D01*
X01305Y02503D01*
X01291Y02511D01*
X01276Y02515D01*
X01260Y02517D01*
D02*
G37*
G36*
X04330Y03075D02*
X04310Y03074D01*
X04290Y03069D01*
X04271Y03061D01*
X04253Y03050D01*
X04238Y03037D01*
X04225Y03022D01*
X04214Y03004D01*
X04206Y02985D01*
X04201Y02965D01*
X04200Y02945D01*
X04201Y02925D01*
X04206Y02905D01*
X04214Y02886D01*
X04225Y02868D01*
X04238Y02853D01*
X04253Y02840D01*
X04271Y02829D01*
X04290Y02821D01*
X04310Y02816D01*
X04330Y02815D01*
X04350Y02816D01*
X04370Y02821D01*
X04389Y02829D01*
X04407Y02840D01*
X04422Y02853D01*
X04435Y02868D01*
X04446Y02886D01*
X04454Y02905D01*
X04459Y02925D01*
X04460Y02945D01*
X04459Y02965D01*
X04454Y02985D01*
X04446Y03004D01*
X04435Y03022D01*
X04422Y03037D01*
X04407Y03050D01*
X04389Y03061D01*
X04370Y03069D01*
X04350Y03074D01*
X04330Y03075D01*
D02*
G37*
%LPD*%
G36*
X02485Y01713D02*
Y01406D01*
X02480Y01404D01*
X02478Y01407D01*
X02468Y01419D01*
X02455Y01430D01*
X02441Y01439D01*
X02426Y01445D01*
X02410Y01449D01*
X02393Y01450D01*
X02220D01*
X02219Y01455D01*
X02222Y01458D01*
X02480Y01715D01*
X02485Y01713D01*
D02*
G37*
G36*
X02693Y01297D02*
X02702Y01283D01*
X02712Y01271D01*
X02725Y01260D01*
X02739Y01251D01*
X02754Y01245D01*
X02770Y01241D01*
X02787Y01240D01*
X02987D01*
X02989Y01235D01*
X02986Y01229D01*
X02982Y01217D01*
X02981Y01205D01*
X02982Y01195D01*
X02978Y01190D01*
X02169D01*
X02139Y01220D01*
X02138Y01232D01*
X02137Y01236D01*
X02140Y01240D01*
X02393D01*
X02410Y01241D01*
X02426Y01245D01*
X02441Y01251D01*
X02455Y01260D01*
X02468Y01271D01*
X02478Y01283D01*
X02487Y01297D01*
X02489Y01302D01*
X02494D01*
X02496Y01297D01*
X02505Y01283D01*
X02516Y01271D01*
X02528Y01260D01*
X02542Y01251D01*
X02557Y01245D01*
X02574Y01241D01*
X02590Y01240D01*
X02606Y01241D01*
X02623Y01245D01*
X02638Y01251D01*
X02652Y01260D01*
X02664Y01271D01*
X02675Y01283D01*
X02684Y01297D01*
X02686Y01302D01*
X02691D01*
X02693Y01297D01*
D02*
G37*
G36*
X01396Y01865D02*
X01396Y01860D01*
X01400Y01844D01*
X01406Y01828D01*
X01415Y01814D01*
X01426Y01802D01*
X01957Y01271D01*
X01969Y01260D01*
X01983Y01251D01*
X01999Y01245D01*
X02010Y01242D01*
X02014Y01236D01*
X02012Y01232D01*
X02011Y01220D01*
X02012Y01208D01*
X02016Y01196D01*
X02022Y01185D01*
X02030Y01175D01*
X02040Y01167D01*
X02051Y01161D01*
X02063Y01157D01*
X02075Y01156D01*
X02091Y01140D01*
X02089Y01135D01*
X01717D01*
X01188Y01664D01*
X01391Y01867D01*
X01396Y01865D01*
D02*
G37*
G36*
X02701Y01652D02*
X02708Y01643D01*
X02853Y01498D01*
X02862Y01491D01*
X02873Y01486D01*
X02885Y01485D01*
X02885Y01485D01*
X03117D01*
X03120Y01480D01*
X03090Y01450D01*
X02787D01*
X02770Y01449D01*
X02754Y01445D01*
X02739Y01439D01*
X02725Y01430D01*
X02712Y01419D01*
X02702Y01407D01*
X02700Y01404D01*
X02695Y01406D01*
Y01652D01*
X02700Y01653D01*
X02701Y01652D01*
D02*
G37*
G36*
X03075Y01904D02*
X03013Y01842D01*
X03006Y01833D01*
X03004Y01828D01*
X03001Y01822D01*
X03000Y01810D01*
Y01650D01*
X02992Y01640D01*
X02986Y01629D01*
X02982Y01617D01*
X02981Y01605D01*
X02982Y01593D01*
X02986Y01581D01*
X02987Y01580D01*
X02984Y01575D01*
X02904D01*
X02785Y01694D01*
Y01875D01*
X02790Y01877D01*
X02795Y01874D01*
X02810Y01870D01*
X02826Y01868D01*
X02842Y01870D01*
X02857Y01874D01*
X02872Y01882D01*
X02884Y01892D01*
X02894Y01905D01*
X02902Y01919D01*
X02906Y01934D01*
X02908Y01950D01*
X02906Y01966D01*
X02902Y01981D01*
X02894Y01995D01*
X02884Y02008D01*
X02872Y02018D01*
X02857Y02025D01*
X02842Y02030D01*
X02826Y02031D01*
X02810Y02030D01*
X02795Y02025D01*
X02781Y02018D01*
X02769Y02008D01*
X02758Y01995D01*
X02755D01*
X02755Y01995D01*
X02745Y01994D01*
X02702Y02037D01*
X02693Y02044D01*
X02688Y02046D01*
X02682Y02049D01*
X02676Y02050D01*
X02676Y02055D01*
X02928D01*
X02939Y02056D01*
X02946Y02059D01*
X02950Y02061D01*
X02960Y02068D01*
X03024Y02132D01*
X03075D01*
Y01904D01*
D02*
G37*
G36*
X03181Y02149D02*
X03193Y02140D01*
X03207Y02134D01*
X03222Y02132D01*
X03237Y02134D01*
X03251Y02140D01*
X03258Y02145D01*
X03563D01*
X03563Y02140D01*
X03557Y02139D01*
X03546Y02134D01*
X03537Y02127D01*
X03537Y02127D01*
X03415Y02005D01*
X03399Y02006D01*
X03383Y02005D01*
X03368Y02000D01*
X03353Y01993D01*
X03341Y01983D01*
X03339Y01982D01*
X03287Y02034D01*
Y02095D01*
X03165D01*
Y02155D01*
X03168Y02158D01*
X03174D01*
X03181Y02149D01*
D02*
G37*
G36*
X02469Y02130D02*
X02370Y02030D01*
X02354Y02031D01*
X02338Y02030D01*
X02323Y02025D01*
X02308Y02018D01*
X02296Y02008D01*
X02291Y02001D01*
X02286Y02001D01*
X02252Y02034D01*
Y02095D01*
X02128D01*
Y01970D01*
X02188D01*
X02240Y01918D01*
X02250Y01911D01*
X02261Y01906D01*
X02272Y01904D01*
X02286D01*
X02296Y01892D01*
X02308Y01882D01*
X02323Y01874D01*
X02338Y01870D01*
X02354Y01868D01*
X02370Y01870D01*
X02385Y01874D01*
X02399Y01882D01*
X02400Y01883D01*
X02405Y01881D01*
Y01769D01*
X02240Y01604D01*
X02235Y01606D01*
Y01635D01*
X02242Y01643D01*
X02248Y01654D01*
X02252Y01666D01*
X02253Y01678D01*
X02252Y01690D01*
X02248Y01702D01*
X02242Y01713D01*
X02234Y01722D01*
X02225Y01730D01*
X02214Y01736D01*
X02202Y01739D01*
X02190Y01741D01*
X02178Y01739D01*
X02166Y01736D01*
X02155Y01730D01*
X02146Y01722D01*
X02138Y01713D01*
X02132Y01702D01*
X02128Y01690D01*
X02127Y01678D01*
X02128Y01666D01*
X02130Y01661D01*
X02125Y01659D01*
X02120Y01665D01*
Y01845D01*
X02119Y01857D01*
X02114Y01868D01*
X02107Y01877D01*
X02055Y01929D01*
Y02130D01*
X02058Y02133D01*
X02064D01*
X02071Y02124D01*
X02083Y02115D01*
X02097Y02109D01*
X02112Y02107D01*
X02127Y02109D01*
X02141Y02115D01*
X02153Y02124D01*
X02162Y02135D01*
X02467D01*
X02469Y02130D01*
D02*
G37*
G36*
X01850Y02107D02*
X01965D01*
Y01910D01*
X01966Y01898D01*
X01969Y01892D01*
X01971Y01887D01*
X01978Y01878D01*
X02030Y01826D01*
Y01665D01*
X02022Y01655D01*
X02016Y01644D01*
X02012Y01632D01*
X02011Y01622D01*
X02006Y01620D01*
X01782Y01845D01*
Y01887D01*
X01794Y01897D01*
X01804Y01910D01*
X01812Y01924D01*
X01816Y01939D01*
X01818Y01955D01*
X01816Y01971D01*
X01812Y01986D01*
X01804Y02000D01*
X01794Y02013D01*
X01782Y02023D01*
X01767Y02030D01*
X01752Y02035D01*
X01736Y02036D01*
X01720Y02035D01*
X01705Y02030D01*
X01691Y02023D01*
X01679Y02013D01*
X01668Y02000D01*
X01659D01*
X01617Y02042D01*
X01608Y02049D01*
X01603Y02051D01*
X01597Y02054D01*
X01585Y02055D01*
X01470D01*
X01458Y02054D01*
X01447Y02049D01*
X01438Y02042D01*
X01438Y02042D01*
X01350Y01954D01*
X01345Y01956D01*
X01344Y01971D01*
X01493Y02120D01*
X01850D01*
Y02107D01*
D02*
G37*
G36*
X03300Y01893D02*
X03300Y01893D01*
X03307Y01887D01*
X03310Y01886D01*
X03321Y01881D01*
X03331Y01880D01*
X03331Y01880D01*
X03341Y01867D01*
X03353Y01857D01*
X03368Y01849D01*
X03369Y01849D01*
X03370Y01844D01*
X03257Y01731D01*
X03249Y01736D01*
X03237Y01739D01*
X03225Y01741D01*
X03213Y01739D01*
X03201Y01736D01*
X03190Y01730D01*
X03181Y01722D01*
X03173Y01713D01*
X03167Y01702D01*
X03163Y01690D01*
X03162Y01678D01*
X03163Y01666D01*
X03167Y01654D01*
X03170Y01649D01*
Y01644D01*
X03110Y01585D01*
X03106Y01587D01*
X03108Y01593D01*
X03109Y01605D01*
X03108Y01617D01*
X03104Y01629D01*
X03098Y01640D01*
X03090Y01650D01*
Y01791D01*
X03152Y01853D01*
X03159Y01862D01*
X03164Y01873D01*
X03165Y01885D01*
Y01970D01*
X03223D01*
X03300Y01893D01*
D02*
G37*
G36*
X04070Y01879D02*
X04018Y01827D01*
X04011Y01818D01*
X04009Y01813D01*
X04006Y01807D01*
X04005Y01795D01*
Y01600D01*
X03997Y01590D01*
X03991Y01579D01*
X03987Y01567D01*
X03986Y01555D01*
X03987Y01543D01*
X03991Y01531D01*
X03997Y01520D01*
X04005Y01510D01*
X04015Y01502D01*
X04026Y01496D01*
X04038Y01492D01*
X04050Y01491D01*
X04062Y01492D01*
X04074Y01496D01*
X04085Y01502D01*
X04095Y01510D01*
X04098Y01509D01*
X04100Y01508D01*
Y01202D01*
X04098Y01201D01*
X04095Y01200D01*
X04085Y01208D01*
X04074Y01214D01*
X04062Y01218D01*
X04050Y01219D01*
X04047Y01218D01*
X04039Y01222D01*
X04027Y01223D01*
X03829D01*
X03823Y01231D01*
X03813Y01238D01*
X03803Y01244D01*
X03792Y01247D01*
X03780Y01248D01*
X03768Y01247D01*
X03757Y01244D01*
X03747Y01238D01*
X03737Y01231D01*
X03733Y01225D01*
X03727D01*
X03724Y01229D01*
X03724Y01232D01*
X03719Y01243D01*
X03712Y01252D01*
X03587Y01377D01*
X03578Y01384D01*
X03573Y01386D01*
X03567Y01389D01*
X03555Y01390D01*
X03335D01*
X03333Y01395D01*
X03709Y01772D01*
X03720Y01784D01*
X03729Y01798D01*
X03735Y01814D01*
X03739Y01830D01*
X03740Y01846D01*
X03739Y01863D01*
X03735Y01879D01*
X03729Y01894D01*
X03720Y01908D01*
X03709Y01921D01*
X03699Y01930D01*
X03701Y01935D01*
X03787D01*
X03790Y01931D01*
X03790Y01925D01*
X03791Y01909D01*
X03796Y01894D01*
X03803Y01880D01*
X03814Y01867D01*
X03826Y01857D01*
X03840Y01849D01*
X03855Y01845D01*
X03871Y01843D01*
X03887Y01845D01*
X03902Y01849D01*
X03917Y01857D01*
X03929Y01867D01*
X03939Y01880D01*
X03947Y01894D01*
X03951Y01909D01*
X03953Y01925D01*
X03951Y01941D01*
X03947Y01956D01*
X03939Y01970D01*
X03929Y01983D01*
X03917Y01993D01*
X03902Y02000D01*
X03887Y02005D01*
X03871Y02006D01*
X03855Y02005D01*
X03848Y02012D01*
X03839Y02019D01*
X03834Y02021D01*
X03828Y02024D01*
X03816Y02025D01*
X03571D01*
X03569Y02027D01*
X03568Y02030D01*
X03588Y02050D01*
X03933D01*
X03944Y02051D01*
X03951Y02054D01*
X03955Y02056D01*
X03965Y02063D01*
X04019Y02117D01*
X04070D01*
Y01879D01*
D02*
G37*
D10*
X00000Y03350D02*
Y03370D01*
Y04145D02*
Y04850D01*
Y07045D01*
X03580Y01178D02*
Y01215D01*
D11*
X04115Y02175D02*
D03*
X04217D02*
D03*
X03120Y02190D02*
D03*
X03222D02*
D03*
X02010Y02165D02*
D03*
X02112D02*
D03*
D12*
X04013Y02175D02*
D03*
X03018Y02190D02*
D03*
X01908Y02165D02*
D03*
D13*
X04335Y01175D02*
D03*
X04330Y02945D02*
D03*
X01170Y01175D02*
D03*
X01190Y02960D02*
D03*
D14*
X02777Y02855D02*
D03*
X02580D02*
D03*
X02383D02*
D03*
X02393Y01345D02*
D03*
X02590D02*
D03*
X02787D02*
D03*
D15*
X04050Y01155D02*
D03*
Y01555D02*
D03*
X03045Y01205D02*
D03*
Y01605D02*
D03*
X02075Y01220D02*
D03*
Y01620D02*
D03*
D16*
X03480Y01178D02*
D03*
X03580D02*
D03*
X03680D02*
D03*
X03780D02*
D03*
D17*
X03380D02*
D03*
D18*
X01736Y01955D02*
D03*
Y02435D02*
D03*
X01260D02*
D03*
X01264Y01955D02*
D03*
X01500Y01876D02*
D03*
X02826Y01950D02*
D03*
Y02430D02*
D03*
X02350D02*
D03*
X02354Y01950D02*
D03*
X02590Y01871D02*
D03*
X03871Y01925D02*
D03*
Y02405D02*
D03*
X03395D02*
D03*
X03399Y01925D02*
D03*
X03635Y01846D02*
D03*
D19*
X01105Y02037D02*
D03*
X02190Y02032D02*
D03*
X03225D02*
D03*
D20*
X01105Y01683D02*
D03*
X02190Y01678D02*
D03*
X03225D02*
D03*
D21*
X02112Y02165D02*
X02127Y02180D01*
X02825D01*
X02925Y02280D01*
X03132D01*
X03222Y02190D01*
X04217Y02175D02*
Y02188D01*
Y01847D02*
Y02175D01*
X03222Y02190D02*
X03840D01*
X03915Y02265D01*
X04140D01*
X04217Y02188D01*
X04145Y01775D02*
X04217Y01847D01*
X04145Y01120D02*
Y01775D01*
X04120Y01095D02*
X04145Y01120D01*
X03563Y01095D02*
X04120D01*
X03480Y01178D02*
X03563Y01095D01*
X03680Y01178D02*
Y01220D01*
X03045Y01205D02*
X03185D01*
X03325Y01345D01*
X03555D01*
X03680Y01220D01*
X03780Y01178D02*
X04027D01*
X04115Y01860D02*
Y02175D01*
X04050Y01795D02*
X04115Y01860D01*
X04050Y01555D02*
Y01795D01*
X03933Y02095D02*
X04013Y02175D01*
X03569Y02095D02*
X03933D01*
X03399Y01925D02*
X03569Y02095D01*
X02928Y02100D02*
X03018Y02190D01*
X02504Y02100D02*
X02928D01*
X02354Y01950D02*
X02504Y02100D01*
X03120Y01885D02*
Y02190D01*
X03045Y01810D02*
X03120Y01885D01*
X03045Y01605D02*
Y01810D01*
X02010Y01910D02*
Y02165D01*
Y01910D02*
X02075Y01845D01*
Y01620D02*
Y01845D01*
X03332Y01925D02*
X03399D01*
X03225Y02032D02*
X03332Y01925D01*
X02272Y01950D02*
X02354D01*
X02190Y02032D02*
X02272Y01950D01*
X03215Y01625D02*
X03570Y01980D01*
X03120Y01530D02*
X03215Y01625D01*
Y01668D01*
X02740Y01935D02*
X02755Y01950D01*
X02826D01*
X03816Y01980D02*
X03871Y01925D01*
X03570Y01980D02*
X03816D01*
X02885Y01530D02*
X03120D01*
X02740Y01675D02*
X02885Y01530D01*
X02740Y01675D02*
Y01935D01*
X02670Y02005D02*
X02740Y01935D01*
X02525Y02005D02*
X02670D01*
X02450Y01930D02*
X02525Y02005D01*
X02450Y01750D02*
Y01930D01*
X02190Y01490D02*
X02450Y01750D01*
X02190Y01490D02*
Y01678D01*
X02072Y01490D02*
X02190D01*
X01736Y01826D02*
X02072Y01490D01*
X01736Y01826D02*
Y01955D01*
X01143Y01683D02*
X01470Y02010D01*
X01585D01*
X01264Y01955D02*
X01474Y02165D01*
X01908D01*
X01187Y01955D02*
X01264D01*
X01105Y02037D02*
X01187Y01955D01*
X03515Y01280D02*
X03580Y01215D01*
X03350Y01280D02*
X03515D01*
X03215Y01145D02*
X03350Y01280D01*
X02150Y01145D02*
X03215D01*
X02075Y01220D02*
X02150Y01145D01*
X03292Y01090D02*
X03380Y01178D01*
X01698Y01090D02*
X03292D01*
X01105Y01683D02*
X01698Y01090D01*
X01585Y02010D02*
X01640Y01955D01*
X01736D01*
D22*
X03134Y01345D02*
X03635Y01846D01*
X02787Y01345D02*
X03134D01*
X02590D02*
Y01871D01*
X01500Y01876D02*
X02031Y01345D01*
X02393D01*
X01736Y02435D02*
X02156Y02855D01*
X02383D01*
X02580Y02676D02*
X02826Y02430D01*
X02580Y02676D02*
Y02855D01*
X03421D02*
X03871Y02405D01*
X02777Y02855D02*
X03421D01*
M02*
