G04 Layer_Physical_Order=1*
G04 Layer_Color=25308*
%FSAX23Y23*%
%MOIN*%
G70*
G01*
G75*
%ADD10C,0.010*%
%ADD11C,0.055*%
%ADD12R,0.055X0.055*%
%ADD13C,0.200*%
%ADD14C,0.098*%
%ADD15C,0.067*%
%ADD16O,0.060X0.080*%
%ADD17R,0.060X0.080*%
%ADD18C,0.102*%
%ADD19R,0.065X0.065*%
%ADD20C,0.065*%
D10*
X01173Y01750D02*
X01827D01*
Y02640D01*
X01173D02*
X01827D01*
X01173Y01750D02*
Y02640D01*
X02263Y01745D02*
X02917D01*
Y02635D01*
X02263D02*
X02917D01*
X02263Y01745D02*
Y02635D01*
X03308Y01720D02*
X03962D01*
Y02610D01*
X03308D02*
X03962D01*
X03308Y01720D02*
Y02610D01*
D11*
X04115Y02175D02*
D03*
X04217D02*
D03*
X03120Y02190D02*
D03*
X03222D02*
D03*
X02010Y02165D02*
D03*
X02112D02*
D03*
D12*
X04013Y02175D02*
D03*
X03018Y02190D02*
D03*
X01908Y02165D02*
D03*
D13*
X04335Y01175D02*
D03*
X04330Y02945D02*
D03*
X01170Y01175D02*
D03*
X01190Y02960D02*
D03*
D14*
X02777Y02855D02*
D03*
X02580D02*
D03*
X02383D02*
D03*
X02393Y01345D02*
D03*
X02590D02*
D03*
X02787D02*
D03*
D15*
X04050Y01155D02*
D03*
Y01555D02*
D03*
X03045Y01205D02*
D03*
Y01605D02*
D03*
X02075Y01220D02*
D03*
Y01620D02*
D03*
D16*
X03480Y01178D02*
D03*
X03580D02*
D03*
X03680D02*
D03*
X03780D02*
D03*
D17*
X03380D02*
D03*
D18*
X01736Y01955D02*
D03*
Y02435D02*
D03*
X01260D02*
D03*
X01264Y01955D02*
D03*
X01500Y01876D02*
D03*
X02826Y01950D02*
D03*
Y02430D02*
D03*
X02350D02*
D03*
X02354Y01950D02*
D03*
X02590Y01871D02*
D03*
X03871Y01925D02*
D03*
Y02405D02*
D03*
X03395D02*
D03*
X03399Y01925D02*
D03*
X03635Y01846D02*
D03*
D19*
X01105Y02037D02*
D03*
X02190Y02032D02*
D03*
X03225D02*
D03*
D20*
X01105Y01683D02*
D03*
X02190Y01678D02*
D03*
X03225D02*
D03*
M02*
