G75*
%MOIN*%
%OFA0B0*%
%FSLAX25Y25*%
%IPPOS*%
%LPD*%
%AMOC8*
5,1,8,0,0,1.08239X$1,22.5*
%
%ADD10R,0.08858X0.08858*%
%ADD11R,0.07677X0.07677*%
%ADD12R,0.08268X0.08268*%
%ADD13C,0.06600*%
%ADD14R,0.06024X0.06024*%
%ADD15R,0.09449X0.09449*%
%ADD16R,0.05937X0.05937*%
%ADD17C,0.02400*%
%ADD18C,0.03200*%
%ADD19C,0.10000*%
%ADD20C,0.20000*%
%ADD21C,0.08600*%
%ADD22C,0.25400*%
%ADD23C,0.15000*%
D10*
X0095000Y0180000D03*
D11*
X0075315Y0170157D03*
X0114685Y0170157D03*
X0114685Y0130000D03*
X0075315Y0130000D03*
D12*
X0106732Y0094311D03*
X0123268Y0094311D03*
X0123268Y0072657D03*
X0106732Y0072657D03*
D13*
X0170157Y0140000D03*
X0189843Y0140000D03*
X0190157Y0150000D03*
X0209843Y0150000D03*
X0230157Y0140000D03*
X0249843Y0140000D03*
X0250157Y0150000D03*
X0269843Y0150000D03*
X0295157Y0140000D03*
X0314843Y0140000D03*
X0312657Y0150000D03*
X0332343Y0150000D03*
D14*
X0350000Y0168110D03*
X0350000Y0181890D03*
X0025000Y0161890D03*
X0025000Y0148110D03*
X0025000Y0111890D03*
X0025000Y0098110D03*
X0025000Y0061890D03*
X0025000Y0048110D03*
D15*
X0260472Y0178307D03*
X0260472Y0191693D03*
X0299528Y0191693D03*
X0299528Y0178307D03*
D16*
X0200354Y0172815D03*
X0169646Y0187185D03*
D17*
X0114685Y0170157D02*
X0099528Y0155000D01*
X0085000Y0155000D01*
X0028110Y0098110D01*
X0025000Y0098110D01*
X0025000Y0111890D02*
X0026890Y0111890D01*
X0075000Y0160000D01*
X0075000Y0169843D01*
X0075315Y0170157D01*
D18*
X0033588Y0017907D02*
X0032256Y0015600D01*
X0090244Y0015600D01*
X0088912Y0017907D01*
X0088101Y0020933D01*
X0088101Y0024067D01*
X0088912Y0027093D01*
X0090478Y0029806D01*
X0092694Y0032022D01*
X0095407Y0033588D01*
X0098433Y0034399D01*
X0101567Y0034399D01*
X0104593Y0033588D01*
X0107306Y0032022D01*
X0109522Y0029806D01*
X0111088Y0027093D01*
X0111899Y0024067D01*
X0111899Y0020933D01*
X0111088Y0017907D01*
X0109756Y0015600D01*
X0347572Y0015600D01*
X0345478Y0017694D01*
X0343912Y0020407D01*
X0343101Y0023433D01*
X0343101Y0026567D01*
X0343912Y0029593D01*
X0345478Y0032306D01*
X0347694Y0034522D01*
X0350407Y0036088D01*
X0353433Y0036899D01*
X0356567Y0036899D01*
X0358101Y0036488D01*
X0358101Y0128512D01*
X0356567Y0128101D01*
X0353433Y0128101D01*
X0350407Y0128912D01*
X0347694Y0130478D01*
X0345478Y0132694D01*
X0343912Y0135407D01*
X0343101Y0138433D01*
X0343101Y0141567D01*
X0343912Y0144593D01*
X0345478Y0147306D01*
X0347577Y0149405D01*
X0346262Y0150164D01*
X0344376Y0152049D01*
X0343043Y0154359D01*
X0342353Y0156934D01*
X0342353Y0159601D01*
X0343043Y0162177D01*
X0344376Y0164486D01*
X0344445Y0164555D01*
X0344388Y0164842D01*
X0344388Y0168110D01*
X0350000Y0168110D01*
X0350000Y0168110D01*
X0344388Y0168110D01*
X0344388Y0168790D01*
X0308536Y0168790D01*
X0307571Y0167824D01*
X0304584Y0166100D01*
X0301252Y0165207D01*
X0297803Y0165207D01*
X0294471Y0166100D01*
X0291484Y0167824D01*
X0289045Y0170263D01*
X0287320Y0173251D01*
X0286428Y0176582D01*
X0286428Y0180032D01*
X0287320Y0183363D01*
X0287913Y0184390D01*
X0287320Y0185416D01*
X0286428Y0188748D01*
X0286428Y0193418D01*
X0287320Y0196749D01*
X0289045Y0199736D01*
X0291484Y0202176D01*
X0294471Y0203900D01*
X0297803Y0204793D01*
X0301252Y0204793D01*
X0304584Y0203900D01*
X0307571Y0202176D01*
X0310010Y0199736D01*
X0310955Y0198100D01*
X0311725Y0198100D01*
X0315056Y0197207D01*
X0318044Y0195483D01*
X0318536Y0194990D01*
X0342868Y0194990D01*
X0343043Y0195641D01*
X0344376Y0197951D01*
X0346049Y0199623D01*
X0345478Y0200194D01*
X0343912Y0202907D01*
X0343101Y0205933D01*
X0343101Y0209067D01*
X0343912Y0212093D01*
X0345221Y0214361D01*
X0209779Y0214361D01*
X0211088Y0212093D01*
X0211899Y0209067D01*
X0211899Y0205933D01*
X0211088Y0202907D01*
X0209522Y0200194D01*
X0207306Y0197978D01*
X0204593Y0196412D01*
X0201567Y0195601D01*
X0198433Y0195601D01*
X0195407Y0196412D01*
X0192694Y0197978D01*
X0190478Y0200194D01*
X0188912Y0202907D01*
X0188101Y0205933D01*
X0188101Y0209067D01*
X0188912Y0212093D01*
X0190221Y0214361D01*
X0032279Y0214361D01*
X0033588Y0212093D01*
X0034399Y0209067D01*
X0034399Y0205933D01*
X0033588Y0202907D01*
X0032022Y0200194D01*
X0029806Y0197978D01*
X0027093Y0196412D01*
X0024067Y0195601D01*
X0020933Y0195601D01*
X0017907Y0196412D01*
X0015600Y0197744D01*
X0015600Y0179135D01*
X0016301Y0179836D01*
X0018611Y0181170D01*
X0021186Y0181860D01*
X0023853Y0181860D01*
X0026429Y0181170D01*
X0028738Y0179836D01*
X0030624Y0177951D01*
X0031957Y0175641D01*
X0032647Y0173066D01*
X0032647Y0170399D01*
X0032180Y0168653D01*
X0032759Y0168074D01*
X0033612Y0166015D01*
X0033612Y0157764D01*
X0032759Y0155706D01*
X0031184Y0154130D01*
X0029335Y0153365D01*
X0029669Y0153142D01*
X0030031Y0152779D01*
X0030316Y0152354D01*
X0030512Y0151880D01*
X0030612Y0151378D01*
X0030612Y0148110D01*
X0025000Y0148110D01*
X0025000Y0148110D01*
X0030612Y0148110D01*
X0030612Y0144842D01*
X0030555Y0144555D01*
X0030624Y0144486D01*
X0031957Y0142177D01*
X0032647Y0139601D01*
X0032647Y0136934D01*
X0031957Y0134359D01*
X0030624Y0132049D01*
X0028738Y0130164D01*
X0028455Y0130000D01*
X0028738Y0129836D01*
X0030624Y0127951D01*
X0031616Y0126232D01*
X0067630Y0162246D01*
X0066729Y0163147D01*
X0065876Y0165205D01*
X0065876Y0175110D01*
X0066729Y0177168D01*
X0068304Y0178744D01*
X0070362Y0179596D01*
X0080267Y0179596D01*
X0082326Y0178744D01*
X0083901Y0177168D01*
X0084754Y0175110D01*
X0084754Y0165205D01*
X0083901Y0163147D01*
X0082326Y0161571D01*
X0081800Y0161354D01*
X0081800Y0161035D01*
X0083647Y0161800D01*
X0096711Y0161800D01*
X0105246Y0170336D01*
X0105246Y0175110D01*
X0106099Y0177168D01*
X0107674Y0178744D01*
X0109733Y0179596D01*
X0119638Y0179596D01*
X0121696Y0178744D01*
X0123271Y0177168D01*
X0124124Y0175110D01*
X0124124Y0165205D01*
X0123271Y0163147D01*
X0121696Y0161571D01*
X0119638Y0160719D01*
X0114863Y0160719D01*
X0103379Y0149235D01*
X0100880Y0148200D01*
X0087817Y0148200D01*
X0079055Y0139439D01*
X0080267Y0139439D01*
X0082326Y0138586D01*
X0083901Y0137011D01*
X0084754Y0134952D01*
X0084754Y0128280D01*
X0096956Y0140483D01*
X0099944Y0142207D01*
X0103275Y0143100D01*
X0116410Y0143100D01*
X0119741Y0142207D01*
X0122729Y0140483D01*
X0125168Y0138044D01*
X0126892Y0135056D01*
X0127785Y0131725D01*
X0127785Y0128275D01*
X0126892Y0124944D01*
X0125168Y0121956D01*
X0122729Y0119517D01*
X0119741Y0117793D01*
X0116410Y0116900D01*
X0110426Y0116900D01*
X0048044Y0054517D01*
X0045056Y0052793D01*
X0041725Y0051900D01*
X0040563Y0051900D01*
X0038285Y0051290D01*
X0030612Y0051290D01*
X0030612Y0048110D01*
X0025000Y0048110D01*
X0025000Y0048110D01*
X0030612Y0048110D01*
X0030612Y0044842D01*
X0030555Y0044555D01*
X0030624Y0044486D01*
X0031957Y0042177D01*
X0032647Y0039601D01*
X0032647Y0036934D01*
X0031957Y0034359D01*
X0030624Y0032049D01*
X0030201Y0031627D01*
X0032022Y0029806D01*
X0033588Y0027093D01*
X0034399Y0024067D01*
X0034399Y0020933D01*
X0033588Y0017907D01*
X0033523Y0017794D02*
X0088977Y0017794D01*
X0088101Y0020993D02*
X0034399Y0020993D01*
X0034366Y0024191D02*
X0088134Y0024191D01*
X0089083Y0027390D02*
X0033417Y0027390D01*
X0031240Y0030588D02*
X0091260Y0030588D01*
X0096147Y0033787D02*
X0031627Y0033787D01*
X0032647Y0036985D02*
X0105953Y0036985D01*
X0105421Y0037517D02*
X0115421Y0027517D01*
X0118979Y0025463D01*
X0122946Y0024400D01*
X0147054Y0024400D01*
X0151021Y0025463D01*
X0154579Y0027517D01*
X0157483Y0030421D01*
X0177483Y0050421D01*
X0179537Y0053979D01*
X0180600Y0057946D01*
X0180600Y0092054D01*
X0179537Y0096021D01*
X0177483Y0099579D01*
X0174579Y0102483D01*
X0160600Y0116462D01*
X0160600Y0138538D01*
X0165067Y0143005D01*
X0164690Y0142265D01*
X0164403Y0141382D01*
X0164257Y0140464D01*
X0164257Y0140000D01*
X0164257Y0139536D01*
X0164403Y0138618D01*
X0164690Y0137735D01*
X0165111Y0136908D01*
X0165657Y0136156D01*
X0166314Y0135500D01*
X0167065Y0134954D01*
X0167893Y0134532D01*
X0168776Y0134245D01*
X0169693Y0134100D01*
X0170157Y0134100D01*
X0170157Y0140000D01*
X0164257Y0140000D01*
X0170157Y0140000D01*
X0170157Y0140000D01*
X0170158Y0140000D01*
X0176057Y0140000D01*
X0176057Y0140464D01*
X0175912Y0141382D01*
X0175625Y0142265D01*
X0175204Y0143092D01*
X0174658Y0143844D01*
X0174001Y0144500D01*
X0173577Y0144808D01*
X0176021Y0145463D01*
X0179579Y0147517D01*
X0181257Y0149196D01*
X0181257Y0148230D01*
X0182496Y0145240D01*
X0182297Y0145041D01*
X0180943Y0141770D01*
X0180943Y0138230D01*
X0182297Y0134959D01*
X0184801Y0132455D01*
X0188072Y0131100D01*
X0191613Y0131100D01*
X0194884Y0132455D01*
X0197388Y0134959D01*
X0198743Y0138230D01*
X0198743Y0141770D01*
X0197504Y0144760D01*
X0197703Y0144959D01*
X0199057Y0148230D01*
X0199057Y0151770D01*
X0197918Y0154522D01*
X0197945Y0154515D01*
X0202079Y0154515D01*
X0200943Y0151770D01*
X0200943Y0148230D01*
X0202297Y0144959D01*
X0204801Y0142455D01*
X0208072Y0141100D01*
X0211613Y0141100D01*
X0214884Y0142455D01*
X0217388Y0144959D01*
X0218743Y0148230D01*
X0218743Y0151770D01*
X0217606Y0154515D01*
X0242394Y0154515D01*
X0241257Y0151770D01*
X0241257Y0148230D01*
X0242496Y0145240D01*
X0242297Y0145041D01*
X0240943Y0141770D01*
X0240943Y0138230D01*
X0242297Y0134959D01*
X0244801Y0132455D01*
X0248072Y0131100D01*
X0251613Y0131100D01*
X0254884Y0132455D01*
X0257388Y0134959D01*
X0258743Y0138230D01*
X0258743Y0141770D01*
X0257504Y0144760D01*
X0257703Y0144959D01*
X0259057Y0148230D01*
X0259057Y0151770D01*
X0257868Y0154643D01*
X0262044Y0155762D01*
X0264349Y0157093D01*
X0262297Y0155041D01*
X0260943Y0151770D01*
X0260943Y0148230D01*
X0262297Y0144959D01*
X0264801Y0142455D01*
X0268072Y0141100D01*
X0271613Y0141100D01*
X0274884Y0142455D01*
X0277388Y0144959D01*
X0278743Y0148230D01*
X0278743Y0151770D01*
X0277388Y0155041D01*
X0274884Y0157545D01*
X0271613Y0158900D01*
X0268072Y0158900D01*
X0265972Y0158030D01*
X0266217Y0158171D01*
X0271709Y0163663D01*
X0275116Y0167071D01*
X0277525Y0171244D01*
X0278772Y0175898D01*
X0278772Y0194102D01*
X0277525Y0198756D01*
X0275116Y0202929D01*
X0271709Y0206337D01*
X0267536Y0208746D01*
X0262882Y0209993D01*
X0258063Y0209993D01*
X0253409Y0208746D01*
X0249236Y0206337D01*
X0245829Y0202929D01*
X0243420Y0198756D01*
X0242172Y0194102D01*
X0242172Y0191115D01*
X0197945Y0191115D01*
X0193291Y0189868D01*
X0190774Y0188415D01*
X0180761Y0188415D01*
X0178214Y0187732D01*
X0178214Y0191267D01*
X0177362Y0193326D01*
X0175786Y0194901D01*
X0173728Y0195754D01*
X0165563Y0195754D01*
X0163505Y0194901D01*
X0161930Y0193326D01*
X0161077Y0191267D01*
X0161077Y0183103D01*
X0161930Y0181044D01*
X0163505Y0179469D01*
X0165563Y0178617D01*
X0166555Y0178617D01*
X0163538Y0175600D01*
X0157946Y0175600D01*
X0153979Y0174537D01*
X0150421Y0172483D01*
X0135421Y0157483D01*
X0132517Y0154579D01*
X0130463Y0151021D01*
X0129400Y0147054D01*
X0129400Y0107946D01*
X0130463Y0103979D01*
X0132517Y0100421D01*
X0149400Y0083538D01*
X0149400Y0083111D01*
X0148836Y0083675D01*
X0146213Y0085190D01*
X0143286Y0085974D01*
X0140257Y0085974D01*
X0137331Y0085190D01*
X0134707Y0083675D01*
X0132565Y0081533D01*
X0131838Y0080274D01*
X0130574Y0081539D01*
X0128515Y0082391D01*
X0127608Y0082391D01*
X0127359Y0082535D01*
X0124663Y0083257D01*
X0105337Y0083257D01*
X0102641Y0082535D01*
X0102392Y0082391D01*
X0101485Y0082391D01*
X0099426Y0081539D01*
X0098162Y0080274D01*
X0097435Y0081533D01*
X0095293Y0083675D01*
X0092669Y0085190D01*
X0089743Y0085974D01*
X0086714Y0085974D01*
X0083787Y0085190D01*
X0081164Y0083675D01*
X0079022Y0081533D01*
X0077507Y0078909D01*
X0076723Y0075983D01*
X0076723Y0072954D01*
X0077507Y0070028D01*
X0079022Y0067404D01*
X0081164Y0065262D01*
X0083787Y0063747D01*
X0086714Y0062963D01*
X0089743Y0062963D01*
X0092669Y0063747D01*
X0095293Y0065262D01*
X0097128Y0067097D01*
X0097851Y0065351D01*
X0099400Y0063802D01*
X0099400Y0047946D01*
X0100463Y0043979D01*
X0102517Y0040421D01*
X0105421Y0037517D01*
X0102755Y0040184D02*
X0032491Y0040184D01*
X0031261Y0043382D02*
X0100807Y0043382D01*
X0099766Y0046581D02*
X0030612Y0046581D01*
X0030612Y0049779D02*
X0099400Y0049779D01*
X0099400Y0052978D02*
X0045377Y0052978D01*
X0049702Y0056176D02*
X0099400Y0056176D01*
X0099400Y0059375D02*
X0052901Y0059375D01*
X0056099Y0062573D02*
X0099400Y0062573D01*
X0097677Y0065772D02*
X0095803Y0065772D01*
X0080654Y0065772D02*
X0059298Y0065772D01*
X0062496Y0068970D02*
X0078117Y0068970D01*
X0076933Y0072169D02*
X0065695Y0072169D01*
X0068893Y0075367D02*
X0076723Y0075367D01*
X0077415Y0078566D02*
X0072092Y0078566D01*
X0075290Y0081764D02*
X0079253Y0081764D01*
X0078489Y0084963D02*
X0083394Y0084963D01*
X0081687Y0088161D02*
X0100937Y0088161D01*
X0100941Y0088158D02*
X0101367Y0087873D01*
X0101840Y0087677D01*
X0102342Y0087577D01*
X0106732Y0087577D01*
X0106732Y0094311D01*
X0099998Y0094311D01*
X0099998Y0089921D01*
X0100098Y0089419D01*
X0100294Y0088946D01*
X0100579Y0088520D01*
X0100941Y0088158D01*
X0099998Y0091360D02*
X0084886Y0091360D01*
X0088085Y0094558D02*
X0099998Y0094558D01*
X0099998Y0094311D02*
X0106732Y0094311D01*
X0106732Y0094311D01*
X0106732Y0094311D01*
X0106732Y0101045D01*
X0102342Y0101045D01*
X0101840Y0100945D01*
X0101367Y0100749D01*
X0100941Y0100464D01*
X0100579Y0100102D01*
X0100294Y0099676D01*
X0100098Y0099203D01*
X0099998Y0098701D01*
X0099998Y0094311D01*
X0099998Y0097757D02*
X0091283Y0097757D01*
X0094482Y0100955D02*
X0101892Y0100955D01*
X0106732Y0100955D02*
X0106732Y0100955D01*
X0106732Y0101045D02*
X0106732Y0094311D01*
X0106732Y0094311D01*
X0106732Y0087577D01*
X0111122Y0087577D01*
X0111625Y0087677D01*
X0112098Y0087873D01*
X0112524Y0088158D01*
X0112886Y0088520D01*
X0113170Y0088946D01*
X0113366Y0089419D01*
X0113466Y0089921D01*
X0113466Y0094311D01*
X0106732Y0094311D01*
X0113466Y0094311D01*
X0113466Y0098701D01*
X0113366Y0099203D01*
X0113170Y0099676D01*
X0112886Y0100102D01*
X0112524Y0100464D01*
X0112098Y0100749D01*
X0111625Y0100945D01*
X0111122Y0101045D01*
X0106732Y0101045D01*
X0106732Y0097757D02*
X0106732Y0097757D01*
X0106732Y0094558D02*
X0106732Y0094558D01*
X0106732Y0094311D02*
X0106732Y0094311D01*
X0106732Y0091360D02*
X0106732Y0091360D01*
X0106732Y0088161D02*
X0106732Y0088161D01*
X0112527Y0088161D02*
X0117473Y0088161D01*
X0117476Y0088158D02*
X0117902Y0087873D01*
X0118375Y0087677D01*
X0118878Y0087577D01*
X0123268Y0087577D01*
X0127658Y0087577D01*
X0128160Y0087677D01*
X0128633Y0087873D01*
X0129059Y0088158D01*
X0129421Y0088520D01*
X0129706Y0088946D01*
X0129902Y0089419D01*
X0130002Y0089921D01*
X0130002Y0094311D01*
X0130002Y0098701D01*
X0129902Y0099203D01*
X0129706Y0099676D01*
X0129421Y0100102D01*
X0129059Y0100464D01*
X0128633Y0100749D01*
X0128160Y0100945D01*
X0127658Y0101045D01*
X0123268Y0101045D01*
X0123268Y0094311D01*
X0123268Y0094311D01*
X0130002Y0094311D01*
X0123268Y0094311D01*
X0123268Y0087577D01*
X0123268Y0094311D01*
X0123268Y0094311D01*
X0123268Y0094311D01*
X0123268Y0101045D01*
X0118878Y0101045D01*
X0118375Y0100945D01*
X0117902Y0100749D01*
X0117476Y0100464D01*
X0117114Y0100102D01*
X0116830Y0099676D01*
X0116634Y0099203D01*
X0116534Y0098701D01*
X0116534Y0094311D01*
X0116534Y0089921D01*
X0116634Y0089419D01*
X0116830Y0088946D01*
X0117114Y0088520D01*
X0117476Y0088158D01*
X0116534Y0091360D02*
X0113466Y0091360D01*
X0113466Y0094558D02*
X0116534Y0094558D01*
X0116534Y0094311D02*
X0123268Y0094311D01*
X0116534Y0094311D01*
X0116534Y0097757D02*
X0113466Y0097757D01*
X0111572Y0100955D02*
X0118428Y0100955D01*
X0123268Y0100955D02*
X0123268Y0100955D01*
X0123268Y0097757D02*
X0123268Y0097757D01*
X0128108Y0100955D02*
X0132209Y0100955D01*
X0130002Y0097757D02*
X0135181Y0097757D01*
X0138380Y0094558D02*
X0130002Y0094558D01*
X0130002Y0091360D02*
X0141578Y0091360D01*
X0144777Y0088161D02*
X0129063Y0088161D01*
X0123268Y0088161D02*
X0123268Y0088161D01*
X0123268Y0091360D02*
X0123268Y0091360D01*
X0123268Y0094311D02*
X0123268Y0094311D01*
X0123268Y0094558D02*
X0123268Y0094558D01*
X0136937Y0084963D02*
X0093063Y0084963D01*
X0097204Y0081764D02*
X0099971Y0081764D01*
X0130029Y0081764D02*
X0132796Y0081764D01*
X0146606Y0084963D02*
X0147975Y0084963D01*
X0176106Y0100955D02*
X0358101Y0100955D01*
X0358101Y0097757D02*
X0178535Y0097757D01*
X0179929Y0094558D02*
X0358101Y0094558D01*
X0358101Y0091360D02*
X0180600Y0091360D01*
X0180600Y0088161D02*
X0358101Y0088161D01*
X0358101Y0084963D02*
X0180600Y0084963D01*
X0180600Y0081764D02*
X0358101Y0081764D01*
X0358101Y0078566D02*
X0180600Y0078566D01*
X0180600Y0075367D02*
X0358101Y0075367D01*
X0358101Y0072169D02*
X0180600Y0072169D01*
X0180600Y0068970D02*
X0358101Y0068970D01*
X0358101Y0065772D02*
X0180600Y0065772D01*
X0180600Y0062573D02*
X0358101Y0062573D01*
X0358101Y0059375D02*
X0180600Y0059375D01*
X0180126Y0056176D02*
X0358101Y0056176D01*
X0358101Y0052978D02*
X0178959Y0052978D01*
X0176841Y0049779D02*
X0358101Y0049779D01*
X0358101Y0046581D02*
X0173642Y0046581D01*
X0170444Y0043382D02*
X0358101Y0043382D01*
X0358101Y0040184D02*
X0167245Y0040184D01*
X0164047Y0036985D02*
X0358101Y0036985D01*
X0346959Y0033787D02*
X0160848Y0033787D01*
X0157650Y0030588D02*
X0344486Y0030588D01*
X0343321Y0027390D02*
X0154358Y0027390D01*
X0115642Y0027390D02*
X0110917Y0027390D01*
X0112350Y0030588D02*
X0108740Y0030588D01*
X0109152Y0033787D02*
X0103853Y0033787D01*
X0111866Y0024191D02*
X0343101Y0024191D01*
X0343755Y0020993D02*
X0111899Y0020993D01*
X0111023Y0017794D02*
X0345420Y0017794D01*
X0358101Y0104154D02*
X0172908Y0104154D01*
X0169709Y0107352D02*
X0358101Y0107352D01*
X0358101Y0110551D02*
X0166511Y0110551D01*
X0163312Y0113749D02*
X0358101Y0113749D01*
X0358101Y0116948D02*
X0160600Y0116948D01*
X0160600Y0120146D02*
X0358101Y0120146D01*
X0358101Y0123345D02*
X0160600Y0123345D01*
X0160600Y0126543D02*
X0358101Y0126543D01*
X0348969Y0129742D02*
X0160600Y0129742D01*
X0160600Y0132940D02*
X0184316Y0132940D01*
X0181809Y0136139D02*
X0174640Y0136139D01*
X0174658Y0136156D02*
X0175204Y0136908D01*
X0175625Y0137735D01*
X0175912Y0138618D01*
X0176057Y0139536D01*
X0176057Y0140000D01*
X0170158Y0140000D01*
X0170158Y0140000D01*
X0170158Y0134100D01*
X0170622Y0134100D01*
X0171539Y0134245D01*
X0172422Y0134532D01*
X0173250Y0134954D01*
X0174001Y0135500D01*
X0174658Y0136156D01*
X0176026Y0139337D02*
X0180943Y0139337D01*
X0181260Y0142536D02*
X0175487Y0142536D01*
X0176491Y0145734D02*
X0182291Y0145734D01*
X0181257Y0148933D02*
X0180995Y0148933D01*
X0170158Y0139337D02*
X0170157Y0139337D01*
X0170157Y0136139D02*
X0170158Y0136139D01*
X0165675Y0136139D02*
X0160600Y0136139D01*
X0161399Y0139337D02*
X0164289Y0139337D01*
X0164598Y0142536D02*
X0164828Y0142536D01*
X0139665Y0161727D02*
X0121851Y0161727D01*
X0124008Y0164926D02*
X0142864Y0164926D01*
X0146062Y0168124D02*
X0124124Y0168124D01*
X0124124Y0171323D02*
X0149261Y0171323D01*
X0153951Y0174521D02*
X0124124Y0174521D01*
X0122720Y0177720D02*
X0165658Y0177720D01*
X0162056Y0180918D02*
X0105029Y0180918D01*
X0105029Y0184117D02*
X0161077Y0184117D01*
X0161077Y0187315D02*
X0104295Y0187315D01*
X0104177Y0187601D02*
X0105029Y0185543D01*
X0105029Y0174457D01*
X0104177Y0172399D01*
X0102601Y0170823D01*
X0100543Y0169971D01*
X0089457Y0169971D01*
X0087399Y0170823D01*
X0085823Y0172399D01*
X0084971Y0174457D01*
X0084971Y0185543D01*
X0085823Y0187601D01*
X0087399Y0189177D01*
X0089457Y0190029D01*
X0100543Y0190029D01*
X0102601Y0189177D01*
X0104177Y0187601D01*
X0105029Y0177720D02*
X0106650Y0177720D01*
X0105246Y0174521D02*
X0105029Y0174521D01*
X0105246Y0171323D02*
X0103100Y0171323D01*
X0103035Y0168124D02*
X0084754Y0168124D01*
X0084754Y0171323D02*
X0086900Y0171323D01*
X0084971Y0174521D02*
X0084754Y0174521D01*
X0084971Y0177720D02*
X0083350Y0177720D01*
X0084971Y0180918D02*
X0026864Y0180918D01*
X0030757Y0177720D02*
X0067280Y0177720D01*
X0065876Y0174521D02*
X0032257Y0174521D01*
X0032647Y0171323D02*
X0065876Y0171323D01*
X0065876Y0168124D02*
X0032709Y0168124D01*
X0033612Y0164926D02*
X0065992Y0164926D01*
X0067110Y0161727D02*
X0033612Y0161727D01*
X0033612Y0158529D02*
X0063912Y0158529D01*
X0060713Y0155330D02*
X0032383Y0155330D01*
X0030408Y0152132D02*
X0057515Y0152132D01*
X0054316Y0148933D02*
X0030612Y0148933D01*
X0030612Y0145734D02*
X0051118Y0145734D01*
X0047919Y0142536D02*
X0031750Y0142536D01*
X0032647Y0139337D02*
X0044721Y0139337D01*
X0041522Y0136139D02*
X0032434Y0136139D01*
X0031138Y0132940D02*
X0038324Y0132940D01*
X0035125Y0129742D02*
X0028833Y0129742D01*
X0031436Y0126543D02*
X0031927Y0126543D01*
X0080512Y0139337D02*
X0095811Y0139337D01*
X0092613Y0136139D02*
X0084262Y0136139D01*
X0084754Y0132940D02*
X0089414Y0132940D01*
X0086216Y0129742D02*
X0084754Y0129742D01*
X0082153Y0142536D02*
X0101170Y0142536D01*
X0102650Y0148933D02*
X0129904Y0148933D01*
X0129400Y0145734D02*
X0085351Y0145734D01*
X0106276Y0152132D02*
X0131104Y0152132D01*
X0133268Y0155330D02*
X0109474Y0155330D01*
X0112673Y0158529D02*
X0136467Y0158529D01*
X0129400Y0142536D02*
X0118515Y0142536D01*
X0123874Y0139337D02*
X0129400Y0139337D01*
X0129400Y0136139D02*
X0126267Y0136139D01*
X0127459Y0132940D02*
X0129400Y0132940D01*
X0129400Y0129742D02*
X0127785Y0129742D01*
X0127321Y0126543D02*
X0129400Y0126543D01*
X0129400Y0123345D02*
X0125969Y0123345D01*
X0123358Y0120146D02*
X0129400Y0120146D01*
X0129400Y0116948D02*
X0116588Y0116948D01*
X0107276Y0113749D02*
X0129400Y0113749D01*
X0129400Y0110551D02*
X0104077Y0110551D01*
X0100879Y0107352D02*
X0129559Y0107352D01*
X0130416Y0104154D02*
X0097680Y0104154D01*
X0083471Y0161727D02*
X0082481Y0161727D01*
X0084638Y0164926D02*
X0099836Y0164926D01*
X0084971Y0184117D02*
X0015600Y0184117D01*
X0015600Y0187315D02*
X0085705Y0187315D01*
X0033696Y0203308D02*
X0188804Y0203308D01*
X0190563Y0200109D02*
X0031937Y0200109D01*
X0027957Y0196911D02*
X0194543Y0196911D01*
X0195701Y0190514D02*
X0178214Y0190514D01*
X0176975Y0193712D02*
X0242172Y0193712D01*
X0242925Y0196911D02*
X0205457Y0196911D01*
X0209437Y0200109D02*
X0244201Y0200109D01*
X0246207Y0203308D02*
X0211196Y0203308D01*
X0211899Y0206506D02*
X0249530Y0206506D01*
X0256988Y0209705D02*
X0211728Y0209705D01*
X0210620Y0212903D02*
X0344380Y0212903D01*
X0343272Y0209705D02*
X0263957Y0209705D01*
X0271415Y0206506D02*
X0343101Y0206506D01*
X0343804Y0203308D02*
X0305610Y0203308D01*
X0309637Y0200109D02*
X0345563Y0200109D01*
X0343776Y0196911D02*
X0315570Y0196911D01*
X0293445Y0203308D02*
X0274738Y0203308D01*
X0276744Y0200109D02*
X0289418Y0200109D01*
X0287413Y0196911D02*
X0278020Y0196911D01*
X0278772Y0193712D02*
X0286507Y0193712D01*
X0286428Y0190514D02*
X0278772Y0190514D01*
X0278772Y0187315D02*
X0286811Y0187315D01*
X0287755Y0184117D02*
X0278772Y0184117D01*
X0278772Y0180918D02*
X0286665Y0180918D01*
X0286428Y0177720D02*
X0278772Y0177720D01*
X0278404Y0174521D02*
X0286980Y0174521D01*
X0288433Y0171323D02*
X0277546Y0171323D01*
X0275724Y0168124D02*
X0291184Y0168124D01*
X0307871Y0168124D02*
X0344388Y0168124D01*
X0344388Y0164926D02*
X0272971Y0164926D01*
X0269773Y0161727D02*
X0342922Y0161727D01*
X0342353Y0158529D02*
X0335010Y0158529D01*
X0334113Y0158900D02*
X0330572Y0158900D01*
X0327301Y0157545D01*
X0324797Y0155041D01*
X0323443Y0151770D01*
X0323443Y0148230D01*
X0324797Y0144959D01*
X0327301Y0142455D01*
X0330572Y0141100D01*
X0334113Y0141100D01*
X0337384Y0142455D01*
X0339888Y0144959D01*
X0341243Y0148230D01*
X0341243Y0151770D01*
X0339888Y0155041D01*
X0337384Y0157545D01*
X0334113Y0158900D01*
X0329675Y0158529D02*
X0315325Y0158529D01*
X0314428Y0158900D02*
X0310887Y0158900D01*
X0307616Y0157545D01*
X0305112Y0155041D01*
X0303757Y0151770D01*
X0303757Y0148230D01*
X0305112Y0144959D01*
X0306633Y0143438D01*
X0305943Y0141770D01*
X0305943Y0138230D01*
X0307297Y0134959D01*
X0309801Y0132455D01*
X0313072Y0131100D01*
X0316613Y0131100D01*
X0319884Y0132455D01*
X0322388Y0134959D01*
X0323743Y0138230D01*
X0323743Y0141770D01*
X0322388Y0145041D01*
X0320867Y0146562D01*
X0321557Y0148230D01*
X0321557Y0151770D01*
X0320203Y0155041D01*
X0317699Y0157545D01*
X0314428Y0158900D01*
X0309990Y0158529D02*
X0272510Y0158529D01*
X0267175Y0158529D02*
X0266574Y0158529D01*
X0262586Y0155330D02*
X0260431Y0155330D01*
X0261092Y0152132D02*
X0258908Y0152132D01*
X0259057Y0148933D02*
X0260943Y0148933D01*
X0261976Y0145734D02*
X0258024Y0145734D01*
X0258425Y0142536D02*
X0264720Y0142536D01*
X0258743Y0139337D02*
X0286257Y0139337D01*
X0286257Y0138230D02*
X0287612Y0134959D01*
X0290116Y0132455D01*
X0293387Y0131100D01*
X0296928Y0131100D01*
X0300199Y0132455D01*
X0302703Y0134959D01*
X0304057Y0138230D01*
X0304057Y0141770D01*
X0302703Y0145041D01*
X0300199Y0147545D01*
X0296928Y0148900D01*
X0293387Y0148900D01*
X0290116Y0147545D01*
X0287612Y0145041D01*
X0286257Y0141770D01*
X0286257Y0138230D01*
X0287123Y0136139D02*
X0257877Y0136139D01*
X0255369Y0132940D02*
X0289631Y0132940D01*
X0300684Y0132940D02*
X0309316Y0132940D01*
X0306809Y0136139D02*
X0303191Y0136139D01*
X0304057Y0139337D02*
X0305943Y0139337D01*
X0306260Y0142536D02*
X0303740Y0142536D01*
X0304791Y0145734D02*
X0302009Y0145734D01*
X0303757Y0148933D02*
X0278743Y0148933D01*
X0277709Y0145734D02*
X0288305Y0145734D01*
X0286575Y0142536D02*
X0274965Y0142536D01*
X0278593Y0152132D02*
X0303907Y0152132D01*
X0305401Y0155330D02*
X0277099Y0155330D01*
X0241407Y0152132D02*
X0218593Y0152132D01*
X0218743Y0148933D02*
X0241257Y0148933D01*
X0242291Y0145734D02*
X0237009Y0145734D01*
X0237703Y0145041D02*
X0235199Y0147545D01*
X0231928Y0148900D01*
X0228387Y0148900D01*
X0225116Y0147545D01*
X0222612Y0145041D01*
X0221257Y0141770D01*
X0221257Y0138230D01*
X0222612Y0134959D01*
X0225116Y0132455D01*
X0228387Y0131100D01*
X0231928Y0131100D01*
X0235199Y0132455D01*
X0237703Y0134959D01*
X0239057Y0138230D01*
X0239057Y0141770D01*
X0237703Y0145041D01*
X0238740Y0142536D02*
X0241260Y0142536D01*
X0240943Y0139337D02*
X0239057Y0139337D01*
X0238191Y0136139D02*
X0241809Y0136139D01*
X0244316Y0132940D02*
X0235684Y0132940D01*
X0224631Y0132940D02*
X0195369Y0132940D01*
X0197877Y0136139D02*
X0222123Y0136139D01*
X0221257Y0139337D02*
X0198743Y0139337D01*
X0198425Y0142536D02*
X0204720Y0142536D01*
X0201976Y0145734D02*
X0198024Y0145734D01*
X0199057Y0148933D02*
X0200943Y0148933D01*
X0201092Y0152132D02*
X0198908Y0152132D01*
X0214965Y0142536D02*
X0221575Y0142536D01*
X0223305Y0145734D02*
X0217709Y0145734D01*
X0161077Y0190514D02*
X0015600Y0190514D01*
X0015600Y0193712D02*
X0162316Y0193712D01*
X0188101Y0206506D02*
X0034399Y0206506D01*
X0034228Y0209705D02*
X0188272Y0209705D01*
X0189380Y0212903D02*
X0033120Y0212903D01*
X0017043Y0196911D02*
X0015600Y0196911D01*
X0015600Y0180918D02*
X0018175Y0180918D01*
X0319914Y0155330D02*
X0325086Y0155330D01*
X0323592Y0152132D02*
X0321408Y0152132D01*
X0321557Y0148933D02*
X0323443Y0148933D01*
X0324476Y0145734D02*
X0321695Y0145734D01*
X0323425Y0142536D02*
X0327220Y0142536D01*
X0323743Y0139337D02*
X0343101Y0139337D01*
X0343716Y0136139D02*
X0322877Y0136139D01*
X0320369Y0132940D02*
X0345336Y0132940D01*
X0343361Y0142536D02*
X0337465Y0142536D01*
X0340209Y0145734D02*
X0344571Y0145734D01*
X0347105Y0148933D02*
X0341243Y0148933D01*
X0341093Y0152132D02*
X0344329Y0152132D01*
X0342783Y0155330D02*
X0339599Y0155330D01*
D19*
X0123268Y0072657D02*
X0106732Y0072657D01*
X0040000Y0065000D02*
X0036890Y0061890D01*
X0025000Y0061890D01*
D20*
X0115000Y0065000D02*
X0115000Y0050000D01*
X0125000Y0040000D01*
X0145000Y0040000D01*
X0165000Y0060000D01*
X0165000Y0090000D01*
X0145000Y0110000D01*
X0145000Y0145000D01*
X0160000Y0160000D01*
X0170000Y0160000D01*
X0182815Y0172815D01*
X0200354Y0172815D01*
D21*
X0123268Y0072657D02*
X0122657Y0072657D01*
X0115000Y0065000D01*
D22*
X0200354Y0172815D02*
X0254980Y0172815D01*
X0260472Y0178307D01*
X0260472Y0191693D01*
D23*
X0299528Y0191693D02*
X0299528Y0190472D01*
X0305000Y0185000D01*
X0306220Y0185000D01*
X0303110Y0181890D01*
X0299528Y0178307D01*
X0303110Y0181890D02*
X0350000Y0181890D01*
X0310000Y0185000D02*
X0306220Y0185000D01*
X0114685Y0130000D02*
X0105000Y0130000D01*
X0040000Y0065000D01*
M02*
