%
M48
M72
T01C0.03000
T02C0.03937
T03C0.04016
T04C0.05118
T05C0.05512
T06C0.05906
T07C0.06299
T08C0.09055
T09C0.11811
T10C0.12598
%
T01
X170157Y140000
X189843Y140000
X190157Y150000
X209843Y150000
X230157Y140000
X249843Y140000
X250157Y150000
X269843Y150000
X295157Y140000
X314843Y140000
X312657Y150000
X332343Y150000
T02
X200354Y172815
X169646Y187185
T03
X25000Y161890
X25000Y148110
X25000Y111890
X25000Y98110
X25000Y61890
X25000Y48110
X350000Y168110
X350000Y181890
T04
X114685Y170157
X75315Y170157
X75315Y130000
X114685Y130000
T05
X106732Y94311
X123268Y94311
X123268Y72657
X106732Y72657
T06
X95000Y180000
T07
X260472Y178307
X260472Y191693
X299528Y191693
X299528Y178307
T08
X352480Y191732
X352480Y158268
X22520Y171732
X22520Y138268
X22520Y121732
X22520Y88268
X22520Y71732
X22520Y38268
T09
X88228Y74469
X141772Y74469
T10
X22500Y22500
X100000Y22500
X355000Y25000
X355000Y140000
X355000Y207500
X200000Y207500
X22500Y207500
M30
