G75*
%MOIN*%
%OFA0B0*%
%FSLAX25Y25*%
%IPPOS*%
%LPD*%
%AMOC8*
5,1,8,0,0,1.08239X$1,22.5*
%
%ADD10C,0.00800*%
%ADD11C,0.00000*%
%ADD12C,0.00300*%
%ADD13C,0.00200*%
%ADD14C,0.00500*%
%ADD15C,0.00050*%
D10*
X0006000Y0006000D02*
X0133500Y0006000D01*
X0133500Y0151000D01*
X0006000Y0151000D01*
X0006000Y0006000D01*
X0038500Y0013500D02*
X0038500Y0038500D01*
X0048500Y0038500D01*
X0048500Y0041000D01*
X0058500Y0041000D01*
X0058500Y0038500D01*
X0068500Y0038500D01*
X0068500Y0013500D01*
X0038500Y0013500D01*
X0048500Y0038500D02*
X0058500Y0038500D01*
X0073500Y0038500D02*
X0083500Y0038500D01*
X0083500Y0041000D01*
X0093500Y0041000D01*
X0093500Y0038500D01*
X0103500Y0038500D01*
X0103500Y0013500D01*
X0073500Y0013500D01*
X0073500Y0038500D01*
X0083500Y0038500D02*
X0093500Y0038500D01*
X0103500Y0046000D02*
X0103500Y0056000D01*
X0101000Y0056000D01*
X0101000Y0066000D01*
X0103500Y0066000D01*
X0103500Y0076000D01*
X0128500Y0076000D01*
X0128500Y0046000D01*
X0103500Y0046000D01*
X0103500Y0056000D02*
X0103500Y0066000D01*
X0096846Y0089898D02*
X0090154Y0089898D01*
X0090154Y0102102D01*
X0096846Y0102102D01*
X0096846Y0089898D01*
X0081846Y0089898D02*
X0081846Y0102102D01*
X0075154Y0102102D01*
X0075154Y0089898D01*
X0081846Y0089898D01*
X0066846Y0089898D02*
X0066846Y0102102D01*
X0060154Y0102102D01*
X0060154Y0089898D01*
X0066846Y0089898D01*
X0051846Y0089898D02*
X0051846Y0102102D01*
X0045154Y0102102D01*
X0045154Y0089898D01*
X0051846Y0089898D01*
X0038500Y0076000D02*
X0038500Y0066000D01*
X0041000Y0066000D01*
X0041000Y0056000D01*
X0038500Y0056000D01*
X0038500Y0046000D01*
X0013500Y0046000D01*
X0013500Y0076000D01*
X0038500Y0076000D01*
X0038500Y0066000D02*
X0038500Y0056000D01*
X0036000Y0121000D02*
X0046000Y0121000D01*
X0046000Y0123500D01*
X0036000Y0123500D01*
X0036000Y0121000D01*
X0036000Y0123500D02*
X0026000Y0123500D01*
X0026000Y0148500D01*
X0056000Y0148500D01*
X0056000Y0123500D01*
X0046000Y0123500D01*
X0063500Y0123500D02*
X0063500Y0148500D01*
X0113500Y0148500D01*
X0113500Y0123500D01*
X0098500Y0123500D01*
X0098500Y0121000D01*
X0078500Y0121000D01*
X0078500Y0123500D01*
X0063500Y0123500D01*
X0078500Y0123500D02*
X0098500Y0123500D01*
D11*
X0107201Y0131669D02*
X0107203Y0131766D01*
X0107209Y0131863D01*
X0107219Y0131959D01*
X0107233Y0132055D01*
X0107251Y0132151D01*
X0107272Y0132245D01*
X0107298Y0132339D01*
X0107327Y0132431D01*
X0107361Y0132522D01*
X0107397Y0132612D01*
X0107438Y0132700D01*
X0107482Y0132786D01*
X0107530Y0132871D01*
X0107581Y0132953D01*
X0107635Y0133034D01*
X0107693Y0133112D01*
X0107754Y0133187D01*
X0107817Y0133260D01*
X0107884Y0133331D01*
X0107954Y0133398D01*
X0108026Y0133463D01*
X0108101Y0133524D01*
X0108179Y0133583D01*
X0108258Y0133638D01*
X0108340Y0133690D01*
X0108424Y0133738D01*
X0108510Y0133783D01*
X0108598Y0133825D01*
X0108687Y0133863D01*
X0108778Y0133897D01*
X0108870Y0133927D01*
X0108963Y0133954D01*
X0109058Y0133976D01*
X0109153Y0133995D01*
X0109249Y0134010D01*
X0109345Y0134021D01*
X0109442Y0134028D01*
X0109539Y0134031D01*
X0109636Y0134030D01*
X0109733Y0134025D01*
X0109829Y0134016D01*
X0109925Y0134003D01*
X0110021Y0133986D01*
X0110116Y0133965D01*
X0110209Y0133941D01*
X0110302Y0133912D01*
X0110394Y0133880D01*
X0110484Y0133844D01*
X0110572Y0133805D01*
X0110659Y0133761D01*
X0110744Y0133715D01*
X0110827Y0133664D01*
X0110908Y0133611D01*
X0110986Y0133554D01*
X0111063Y0133494D01*
X0111136Y0133431D01*
X0111207Y0133365D01*
X0111275Y0133296D01*
X0111341Y0133224D01*
X0111403Y0133150D01*
X0111462Y0133073D01*
X0111518Y0132994D01*
X0111571Y0132912D01*
X0111621Y0132829D01*
X0111666Y0132743D01*
X0111709Y0132656D01*
X0111748Y0132567D01*
X0111783Y0132477D01*
X0111814Y0132385D01*
X0111841Y0132292D01*
X0111865Y0132198D01*
X0111885Y0132103D01*
X0111901Y0132007D01*
X0111913Y0131911D01*
X0111921Y0131814D01*
X0111925Y0131717D01*
X0111925Y0131621D01*
X0111921Y0131524D01*
X0111913Y0131427D01*
X0111901Y0131331D01*
X0111885Y0131235D01*
X0111865Y0131140D01*
X0111841Y0131046D01*
X0111814Y0130953D01*
X0111783Y0130861D01*
X0111748Y0130771D01*
X0111709Y0130682D01*
X0111666Y0130595D01*
X0111621Y0130509D01*
X0111571Y0130426D01*
X0111518Y0130344D01*
X0111462Y0130265D01*
X0111403Y0130188D01*
X0111341Y0130114D01*
X0111275Y0130042D01*
X0111207Y0129973D01*
X0111136Y0129907D01*
X0111063Y0129844D01*
X0110986Y0129784D01*
X0110908Y0129727D01*
X0110827Y0129674D01*
X0110744Y0129623D01*
X0110659Y0129577D01*
X0110572Y0129533D01*
X0110484Y0129494D01*
X0110394Y0129458D01*
X0110302Y0129426D01*
X0110209Y0129397D01*
X0110116Y0129373D01*
X0110021Y0129352D01*
X0109925Y0129335D01*
X0109829Y0129322D01*
X0109733Y0129313D01*
X0109636Y0129308D01*
X0109539Y0129307D01*
X0109442Y0129310D01*
X0109345Y0129317D01*
X0109249Y0129328D01*
X0109153Y0129343D01*
X0109058Y0129362D01*
X0108963Y0129384D01*
X0108870Y0129411D01*
X0108778Y0129441D01*
X0108687Y0129475D01*
X0108598Y0129513D01*
X0108510Y0129555D01*
X0108424Y0129600D01*
X0108340Y0129648D01*
X0108258Y0129700D01*
X0108179Y0129755D01*
X0108101Y0129814D01*
X0108026Y0129875D01*
X0107954Y0129940D01*
X0107884Y0130007D01*
X0107817Y0130078D01*
X0107754Y0130151D01*
X0107693Y0130226D01*
X0107635Y0130304D01*
X0107581Y0130385D01*
X0107530Y0130467D01*
X0107482Y0130552D01*
X0107438Y0130638D01*
X0107397Y0130726D01*
X0107361Y0130816D01*
X0107327Y0130907D01*
X0107298Y0130999D01*
X0107272Y0131093D01*
X0107251Y0131187D01*
X0107233Y0131283D01*
X0107219Y0131379D01*
X0107209Y0131475D01*
X0107203Y0131572D01*
X0107201Y0131669D01*
X0117201Y0143500D02*
X0117203Y0143658D01*
X0117209Y0143816D01*
X0117219Y0143974D01*
X0117233Y0144132D01*
X0117251Y0144289D01*
X0117272Y0144446D01*
X0117298Y0144602D01*
X0117328Y0144758D01*
X0117361Y0144913D01*
X0117399Y0145066D01*
X0117440Y0145219D01*
X0117485Y0145371D01*
X0117534Y0145522D01*
X0117587Y0145671D01*
X0117643Y0145819D01*
X0117703Y0145965D01*
X0117767Y0146110D01*
X0117835Y0146253D01*
X0117906Y0146395D01*
X0117980Y0146535D01*
X0118058Y0146672D01*
X0118140Y0146808D01*
X0118224Y0146942D01*
X0118313Y0147073D01*
X0118404Y0147202D01*
X0118499Y0147329D01*
X0118596Y0147454D01*
X0118697Y0147576D01*
X0118801Y0147695D01*
X0118908Y0147812D01*
X0119018Y0147926D01*
X0119131Y0148037D01*
X0119246Y0148146D01*
X0119364Y0148251D01*
X0119485Y0148353D01*
X0119608Y0148453D01*
X0119734Y0148549D01*
X0119862Y0148642D01*
X0119992Y0148732D01*
X0120125Y0148818D01*
X0120260Y0148902D01*
X0120396Y0148981D01*
X0120535Y0149058D01*
X0120676Y0149130D01*
X0120818Y0149200D01*
X0120962Y0149265D01*
X0121108Y0149327D01*
X0121255Y0149385D01*
X0121404Y0149440D01*
X0121554Y0149491D01*
X0121705Y0149538D01*
X0121857Y0149581D01*
X0122010Y0149620D01*
X0122165Y0149656D01*
X0122320Y0149687D01*
X0122476Y0149715D01*
X0122632Y0149739D01*
X0122789Y0149759D01*
X0122947Y0149775D01*
X0123104Y0149787D01*
X0123263Y0149795D01*
X0123421Y0149799D01*
X0123579Y0149799D01*
X0123737Y0149795D01*
X0123896Y0149787D01*
X0124053Y0149775D01*
X0124211Y0149759D01*
X0124368Y0149739D01*
X0124524Y0149715D01*
X0124680Y0149687D01*
X0124835Y0149656D01*
X0124990Y0149620D01*
X0125143Y0149581D01*
X0125295Y0149538D01*
X0125446Y0149491D01*
X0125596Y0149440D01*
X0125745Y0149385D01*
X0125892Y0149327D01*
X0126038Y0149265D01*
X0126182Y0149200D01*
X0126324Y0149130D01*
X0126465Y0149058D01*
X0126604Y0148981D01*
X0126740Y0148902D01*
X0126875Y0148818D01*
X0127008Y0148732D01*
X0127138Y0148642D01*
X0127266Y0148549D01*
X0127392Y0148453D01*
X0127515Y0148353D01*
X0127636Y0148251D01*
X0127754Y0148146D01*
X0127869Y0148037D01*
X0127982Y0147926D01*
X0128092Y0147812D01*
X0128199Y0147695D01*
X0128303Y0147576D01*
X0128404Y0147454D01*
X0128501Y0147329D01*
X0128596Y0147202D01*
X0128687Y0147073D01*
X0128776Y0146942D01*
X0128860Y0146808D01*
X0128942Y0146672D01*
X0129020Y0146535D01*
X0129094Y0146395D01*
X0129165Y0146253D01*
X0129233Y0146110D01*
X0129297Y0145965D01*
X0129357Y0145819D01*
X0129413Y0145671D01*
X0129466Y0145522D01*
X0129515Y0145371D01*
X0129560Y0145219D01*
X0129601Y0145066D01*
X0129639Y0144913D01*
X0129672Y0144758D01*
X0129702Y0144602D01*
X0129728Y0144446D01*
X0129749Y0144289D01*
X0129767Y0144132D01*
X0129781Y0143974D01*
X0129791Y0143816D01*
X0129797Y0143658D01*
X0129799Y0143500D01*
X0129797Y0143342D01*
X0129791Y0143184D01*
X0129781Y0143026D01*
X0129767Y0142868D01*
X0129749Y0142711D01*
X0129728Y0142554D01*
X0129702Y0142398D01*
X0129672Y0142242D01*
X0129639Y0142087D01*
X0129601Y0141934D01*
X0129560Y0141781D01*
X0129515Y0141629D01*
X0129466Y0141478D01*
X0129413Y0141329D01*
X0129357Y0141181D01*
X0129297Y0141035D01*
X0129233Y0140890D01*
X0129165Y0140747D01*
X0129094Y0140605D01*
X0129020Y0140465D01*
X0128942Y0140328D01*
X0128860Y0140192D01*
X0128776Y0140058D01*
X0128687Y0139927D01*
X0128596Y0139798D01*
X0128501Y0139671D01*
X0128404Y0139546D01*
X0128303Y0139424D01*
X0128199Y0139305D01*
X0128092Y0139188D01*
X0127982Y0139074D01*
X0127869Y0138963D01*
X0127754Y0138854D01*
X0127636Y0138749D01*
X0127515Y0138647D01*
X0127392Y0138547D01*
X0127266Y0138451D01*
X0127138Y0138358D01*
X0127008Y0138268D01*
X0126875Y0138182D01*
X0126740Y0138098D01*
X0126604Y0138019D01*
X0126465Y0137942D01*
X0126324Y0137870D01*
X0126182Y0137800D01*
X0126038Y0137735D01*
X0125892Y0137673D01*
X0125745Y0137615D01*
X0125596Y0137560D01*
X0125446Y0137509D01*
X0125295Y0137462D01*
X0125143Y0137419D01*
X0124990Y0137380D01*
X0124835Y0137344D01*
X0124680Y0137313D01*
X0124524Y0137285D01*
X0124368Y0137261D01*
X0124211Y0137241D01*
X0124053Y0137225D01*
X0123896Y0137213D01*
X0123737Y0137205D01*
X0123579Y0137201D01*
X0123421Y0137201D01*
X0123263Y0137205D01*
X0123104Y0137213D01*
X0122947Y0137225D01*
X0122789Y0137241D01*
X0122632Y0137261D01*
X0122476Y0137285D01*
X0122320Y0137313D01*
X0122165Y0137344D01*
X0122010Y0137380D01*
X0121857Y0137419D01*
X0121705Y0137462D01*
X0121554Y0137509D01*
X0121404Y0137560D01*
X0121255Y0137615D01*
X0121108Y0137673D01*
X0120962Y0137735D01*
X0120818Y0137800D01*
X0120676Y0137870D01*
X0120535Y0137942D01*
X0120396Y0138019D01*
X0120260Y0138098D01*
X0120125Y0138182D01*
X0119992Y0138268D01*
X0119862Y0138358D01*
X0119734Y0138451D01*
X0119608Y0138547D01*
X0119485Y0138647D01*
X0119364Y0138749D01*
X0119246Y0138854D01*
X0119131Y0138963D01*
X0119018Y0139074D01*
X0118908Y0139188D01*
X0118801Y0139305D01*
X0118697Y0139424D01*
X0118596Y0139546D01*
X0118499Y0139671D01*
X0118404Y0139798D01*
X0118313Y0139927D01*
X0118224Y0140058D01*
X0118140Y0140192D01*
X0118058Y0140328D01*
X0117980Y0140465D01*
X0117906Y0140605D01*
X0117835Y0140747D01*
X0117767Y0140890D01*
X0117703Y0141035D01*
X0117643Y0141181D01*
X0117587Y0141329D01*
X0117534Y0141478D01*
X0117485Y0141629D01*
X0117440Y0141781D01*
X0117399Y0141934D01*
X0117361Y0142087D01*
X0117328Y0142242D01*
X0117298Y0142398D01*
X0117272Y0142554D01*
X0117251Y0142711D01*
X0117233Y0142868D01*
X0117219Y0143026D01*
X0117209Y0143184D01*
X0117203Y0143342D01*
X0117201Y0143500D01*
X0049858Y0131669D02*
X0049860Y0131766D01*
X0049866Y0131863D01*
X0049876Y0131959D01*
X0049890Y0132055D01*
X0049908Y0132151D01*
X0049929Y0132245D01*
X0049955Y0132339D01*
X0049984Y0132431D01*
X0050018Y0132522D01*
X0050054Y0132612D01*
X0050095Y0132700D01*
X0050139Y0132786D01*
X0050187Y0132871D01*
X0050238Y0132953D01*
X0050292Y0133034D01*
X0050350Y0133112D01*
X0050411Y0133187D01*
X0050474Y0133260D01*
X0050541Y0133331D01*
X0050611Y0133398D01*
X0050683Y0133463D01*
X0050758Y0133524D01*
X0050836Y0133583D01*
X0050915Y0133638D01*
X0050997Y0133690D01*
X0051081Y0133738D01*
X0051167Y0133783D01*
X0051255Y0133825D01*
X0051344Y0133863D01*
X0051435Y0133897D01*
X0051527Y0133927D01*
X0051620Y0133954D01*
X0051715Y0133976D01*
X0051810Y0133995D01*
X0051906Y0134010D01*
X0052002Y0134021D01*
X0052099Y0134028D01*
X0052196Y0134031D01*
X0052293Y0134030D01*
X0052390Y0134025D01*
X0052486Y0134016D01*
X0052582Y0134003D01*
X0052678Y0133986D01*
X0052773Y0133965D01*
X0052866Y0133941D01*
X0052959Y0133912D01*
X0053051Y0133880D01*
X0053141Y0133844D01*
X0053229Y0133805D01*
X0053316Y0133761D01*
X0053401Y0133715D01*
X0053484Y0133664D01*
X0053565Y0133611D01*
X0053643Y0133554D01*
X0053720Y0133494D01*
X0053793Y0133431D01*
X0053864Y0133365D01*
X0053932Y0133296D01*
X0053998Y0133224D01*
X0054060Y0133150D01*
X0054119Y0133073D01*
X0054175Y0132994D01*
X0054228Y0132912D01*
X0054278Y0132829D01*
X0054323Y0132743D01*
X0054366Y0132656D01*
X0054405Y0132567D01*
X0054440Y0132477D01*
X0054471Y0132385D01*
X0054498Y0132292D01*
X0054522Y0132198D01*
X0054542Y0132103D01*
X0054558Y0132007D01*
X0054570Y0131911D01*
X0054578Y0131814D01*
X0054582Y0131717D01*
X0054582Y0131621D01*
X0054578Y0131524D01*
X0054570Y0131427D01*
X0054558Y0131331D01*
X0054542Y0131235D01*
X0054522Y0131140D01*
X0054498Y0131046D01*
X0054471Y0130953D01*
X0054440Y0130861D01*
X0054405Y0130771D01*
X0054366Y0130682D01*
X0054323Y0130595D01*
X0054278Y0130509D01*
X0054228Y0130426D01*
X0054175Y0130344D01*
X0054119Y0130265D01*
X0054060Y0130188D01*
X0053998Y0130114D01*
X0053932Y0130042D01*
X0053864Y0129973D01*
X0053793Y0129907D01*
X0053720Y0129844D01*
X0053643Y0129784D01*
X0053565Y0129727D01*
X0053484Y0129674D01*
X0053401Y0129623D01*
X0053316Y0129577D01*
X0053229Y0129533D01*
X0053141Y0129494D01*
X0053051Y0129458D01*
X0052959Y0129426D01*
X0052866Y0129397D01*
X0052773Y0129373D01*
X0052678Y0129352D01*
X0052582Y0129335D01*
X0052486Y0129322D01*
X0052390Y0129313D01*
X0052293Y0129308D01*
X0052196Y0129307D01*
X0052099Y0129310D01*
X0052002Y0129317D01*
X0051906Y0129328D01*
X0051810Y0129343D01*
X0051715Y0129362D01*
X0051620Y0129384D01*
X0051527Y0129411D01*
X0051435Y0129441D01*
X0051344Y0129475D01*
X0051255Y0129513D01*
X0051167Y0129555D01*
X0051081Y0129600D01*
X0050997Y0129648D01*
X0050915Y0129700D01*
X0050836Y0129755D01*
X0050758Y0129814D01*
X0050683Y0129875D01*
X0050611Y0129940D01*
X0050541Y0130007D01*
X0050474Y0130078D01*
X0050411Y0130151D01*
X0050350Y0130226D01*
X0050292Y0130304D01*
X0050238Y0130385D01*
X0050187Y0130467D01*
X0050139Y0130552D01*
X0050095Y0130638D01*
X0050054Y0130726D01*
X0050018Y0130816D01*
X0049984Y0130907D01*
X0049955Y0130999D01*
X0049929Y0131093D01*
X0049908Y0131187D01*
X0049890Y0131283D01*
X0049876Y0131379D01*
X0049866Y0131475D01*
X0049860Y0131572D01*
X0049858Y0131669D01*
X0009701Y0141000D02*
X0009703Y0141158D01*
X0009709Y0141316D01*
X0009719Y0141474D01*
X0009733Y0141632D01*
X0009751Y0141789D01*
X0009772Y0141946D01*
X0009798Y0142102D01*
X0009828Y0142258D01*
X0009861Y0142413D01*
X0009899Y0142566D01*
X0009940Y0142719D01*
X0009985Y0142871D01*
X0010034Y0143022D01*
X0010087Y0143171D01*
X0010143Y0143319D01*
X0010203Y0143465D01*
X0010267Y0143610D01*
X0010335Y0143753D01*
X0010406Y0143895D01*
X0010480Y0144035D01*
X0010558Y0144172D01*
X0010640Y0144308D01*
X0010724Y0144442D01*
X0010813Y0144573D01*
X0010904Y0144702D01*
X0010999Y0144829D01*
X0011096Y0144954D01*
X0011197Y0145076D01*
X0011301Y0145195D01*
X0011408Y0145312D01*
X0011518Y0145426D01*
X0011631Y0145537D01*
X0011746Y0145646D01*
X0011864Y0145751D01*
X0011985Y0145853D01*
X0012108Y0145953D01*
X0012234Y0146049D01*
X0012362Y0146142D01*
X0012492Y0146232D01*
X0012625Y0146318D01*
X0012760Y0146402D01*
X0012896Y0146481D01*
X0013035Y0146558D01*
X0013176Y0146630D01*
X0013318Y0146700D01*
X0013462Y0146765D01*
X0013608Y0146827D01*
X0013755Y0146885D01*
X0013904Y0146940D01*
X0014054Y0146991D01*
X0014205Y0147038D01*
X0014357Y0147081D01*
X0014510Y0147120D01*
X0014665Y0147156D01*
X0014820Y0147187D01*
X0014976Y0147215D01*
X0015132Y0147239D01*
X0015289Y0147259D01*
X0015447Y0147275D01*
X0015604Y0147287D01*
X0015763Y0147295D01*
X0015921Y0147299D01*
X0016079Y0147299D01*
X0016237Y0147295D01*
X0016396Y0147287D01*
X0016553Y0147275D01*
X0016711Y0147259D01*
X0016868Y0147239D01*
X0017024Y0147215D01*
X0017180Y0147187D01*
X0017335Y0147156D01*
X0017490Y0147120D01*
X0017643Y0147081D01*
X0017795Y0147038D01*
X0017946Y0146991D01*
X0018096Y0146940D01*
X0018245Y0146885D01*
X0018392Y0146827D01*
X0018538Y0146765D01*
X0018682Y0146700D01*
X0018824Y0146630D01*
X0018965Y0146558D01*
X0019104Y0146481D01*
X0019240Y0146402D01*
X0019375Y0146318D01*
X0019508Y0146232D01*
X0019638Y0146142D01*
X0019766Y0146049D01*
X0019892Y0145953D01*
X0020015Y0145853D01*
X0020136Y0145751D01*
X0020254Y0145646D01*
X0020369Y0145537D01*
X0020482Y0145426D01*
X0020592Y0145312D01*
X0020699Y0145195D01*
X0020803Y0145076D01*
X0020904Y0144954D01*
X0021001Y0144829D01*
X0021096Y0144702D01*
X0021187Y0144573D01*
X0021276Y0144442D01*
X0021360Y0144308D01*
X0021442Y0144172D01*
X0021520Y0144035D01*
X0021594Y0143895D01*
X0021665Y0143753D01*
X0021733Y0143610D01*
X0021797Y0143465D01*
X0021857Y0143319D01*
X0021913Y0143171D01*
X0021966Y0143022D01*
X0022015Y0142871D01*
X0022060Y0142719D01*
X0022101Y0142566D01*
X0022139Y0142413D01*
X0022172Y0142258D01*
X0022202Y0142102D01*
X0022228Y0141946D01*
X0022249Y0141789D01*
X0022267Y0141632D01*
X0022281Y0141474D01*
X0022291Y0141316D01*
X0022297Y0141158D01*
X0022299Y0141000D01*
X0022297Y0140842D01*
X0022291Y0140684D01*
X0022281Y0140526D01*
X0022267Y0140368D01*
X0022249Y0140211D01*
X0022228Y0140054D01*
X0022202Y0139898D01*
X0022172Y0139742D01*
X0022139Y0139587D01*
X0022101Y0139434D01*
X0022060Y0139281D01*
X0022015Y0139129D01*
X0021966Y0138978D01*
X0021913Y0138829D01*
X0021857Y0138681D01*
X0021797Y0138535D01*
X0021733Y0138390D01*
X0021665Y0138247D01*
X0021594Y0138105D01*
X0021520Y0137965D01*
X0021442Y0137828D01*
X0021360Y0137692D01*
X0021276Y0137558D01*
X0021187Y0137427D01*
X0021096Y0137298D01*
X0021001Y0137171D01*
X0020904Y0137046D01*
X0020803Y0136924D01*
X0020699Y0136805D01*
X0020592Y0136688D01*
X0020482Y0136574D01*
X0020369Y0136463D01*
X0020254Y0136354D01*
X0020136Y0136249D01*
X0020015Y0136147D01*
X0019892Y0136047D01*
X0019766Y0135951D01*
X0019638Y0135858D01*
X0019508Y0135768D01*
X0019375Y0135682D01*
X0019240Y0135598D01*
X0019104Y0135519D01*
X0018965Y0135442D01*
X0018824Y0135370D01*
X0018682Y0135300D01*
X0018538Y0135235D01*
X0018392Y0135173D01*
X0018245Y0135115D01*
X0018096Y0135060D01*
X0017946Y0135009D01*
X0017795Y0134962D01*
X0017643Y0134919D01*
X0017490Y0134880D01*
X0017335Y0134844D01*
X0017180Y0134813D01*
X0017024Y0134785D01*
X0016868Y0134761D01*
X0016711Y0134741D01*
X0016553Y0134725D01*
X0016396Y0134713D01*
X0016237Y0134705D01*
X0016079Y0134701D01*
X0015921Y0134701D01*
X0015763Y0134705D01*
X0015604Y0134713D01*
X0015447Y0134725D01*
X0015289Y0134741D01*
X0015132Y0134761D01*
X0014976Y0134785D01*
X0014820Y0134813D01*
X0014665Y0134844D01*
X0014510Y0134880D01*
X0014357Y0134919D01*
X0014205Y0134962D01*
X0014054Y0135009D01*
X0013904Y0135060D01*
X0013755Y0135115D01*
X0013608Y0135173D01*
X0013462Y0135235D01*
X0013318Y0135300D01*
X0013176Y0135370D01*
X0013035Y0135442D01*
X0012896Y0135519D01*
X0012760Y0135598D01*
X0012625Y0135682D01*
X0012492Y0135768D01*
X0012362Y0135858D01*
X0012234Y0135951D01*
X0012108Y0136047D01*
X0011985Y0136147D01*
X0011864Y0136249D01*
X0011746Y0136354D01*
X0011631Y0136463D01*
X0011518Y0136574D01*
X0011408Y0136688D01*
X0011301Y0136805D01*
X0011197Y0136924D01*
X0011096Y0137046D01*
X0010999Y0137171D01*
X0010904Y0137298D01*
X0010813Y0137427D01*
X0010724Y0137558D01*
X0010640Y0137692D01*
X0010558Y0137828D01*
X0010480Y0137965D01*
X0010406Y0138105D01*
X0010335Y0138247D01*
X0010267Y0138390D01*
X0010203Y0138535D01*
X0010143Y0138681D01*
X0010087Y0138829D01*
X0010034Y0138978D01*
X0009985Y0139129D01*
X0009940Y0139281D01*
X0009899Y0139434D01*
X0009861Y0139587D01*
X0009828Y0139742D01*
X0009798Y0139898D01*
X0009772Y0140054D01*
X0009751Y0140211D01*
X0009733Y0140368D01*
X0009719Y0140526D01*
X0009709Y0140684D01*
X0009703Y0140842D01*
X0009701Y0141000D01*
X0027969Y0072220D02*
X0027971Y0072317D01*
X0027977Y0072414D01*
X0027987Y0072510D01*
X0028001Y0072606D01*
X0028019Y0072702D01*
X0028040Y0072796D01*
X0028066Y0072890D01*
X0028095Y0072982D01*
X0028129Y0073073D01*
X0028165Y0073163D01*
X0028206Y0073251D01*
X0028250Y0073337D01*
X0028298Y0073422D01*
X0028349Y0073504D01*
X0028403Y0073585D01*
X0028461Y0073663D01*
X0028522Y0073738D01*
X0028585Y0073811D01*
X0028652Y0073882D01*
X0028722Y0073949D01*
X0028794Y0074014D01*
X0028869Y0074075D01*
X0028947Y0074134D01*
X0029026Y0074189D01*
X0029108Y0074241D01*
X0029192Y0074289D01*
X0029278Y0074334D01*
X0029366Y0074376D01*
X0029455Y0074414D01*
X0029546Y0074448D01*
X0029638Y0074478D01*
X0029731Y0074505D01*
X0029826Y0074527D01*
X0029921Y0074546D01*
X0030017Y0074561D01*
X0030113Y0074572D01*
X0030210Y0074579D01*
X0030307Y0074582D01*
X0030404Y0074581D01*
X0030501Y0074576D01*
X0030597Y0074567D01*
X0030693Y0074554D01*
X0030789Y0074537D01*
X0030884Y0074516D01*
X0030977Y0074492D01*
X0031070Y0074463D01*
X0031162Y0074431D01*
X0031252Y0074395D01*
X0031340Y0074356D01*
X0031427Y0074312D01*
X0031512Y0074266D01*
X0031595Y0074215D01*
X0031676Y0074162D01*
X0031754Y0074105D01*
X0031831Y0074045D01*
X0031904Y0073982D01*
X0031975Y0073916D01*
X0032043Y0073847D01*
X0032109Y0073775D01*
X0032171Y0073701D01*
X0032230Y0073624D01*
X0032286Y0073545D01*
X0032339Y0073463D01*
X0032389Y0073380D01*
X0032434Y0073294D01*
X0032477Y0073207D01*
X0032516Y0073118D01*
X0032551Y0073028D01*
X0032582Y0072936D01*
X0032609Y0072843D01*
X0032633Y0072749D01*
X0032653Y0072654D01*
X0032669Y0072558D01*
X0032681Y0072462D01*
X0032689Y0072365D01*
X0032693Y0072268D01*
X0032693Y0072172D01*
X0032689Y0072075D01*
X0032681Y0071978D01*
X0032669Y0071882D01*
X0032653Y0071786D01*
X0032633Y0071691D01*
X0032609Y0071597D01*
X0032582Y0071504D01*
X0032551Y0071412D01*
X0032516Y0071322D01*
X0032477Y0071233D01*
X0032434Y0071146D01*
X0032389Y0071060D01*
X0032339Y0070977D01*
X0032286Y0070895D01*
X0032230Y0070816D01*
X0032171Y0070739D01*
X0032109Y0070665D01*
X0032043Y0070593D01*
X0031975Y0070524D01*
X0031904Y0070458D01*
X0031831Y0070395D01*
X0031754Y0070335D01*
X0031676Y0070278D01*
X0031595Y0070225D01*
X0031512Y0070174D01*
X0031427Y0070128D01*
X0031340Y0070084D01*
X0031252Y0070045D01*
X0031162Y0070009D01*
X0031070Y0069977D01*
X0030977Y0069948D01*
X0030884Y0069924D01*
X0030789Y0069903D01*
X0030693Y0069886D01*
X0030597Y0069873D01*
X0030501Y0069864D01*
X0030404Y0069859D01*
X0030307Y0069858D01*
X0030210Y0069861D01*
X0030113Y0069868D01*
X0030017Y0069879D01*
X0029921Y0069894D01*
X0029826Y0069913D01*
X0029731Y0069935D01*
X0029638Y0069962D01*
X0029546Y0069992D01*
X0029455Y0070026D01*
X0029366Y0070064D01*
X0029278Y0070106D01*
X0029192Y0070151D01*
X0029108Y0070199D01*
X0029026Y0070251D01*
X0028947Y0070306D01*
X0028869Y0070365D01*
X0028794Y0070426D01*
X0028722Y0070491D01*
X0028652Y0070558D01*
X0028585Y0070629D01*
X0028522Y0070702D01*
X0028461Y0070777D01*
X0028403Y0070855D01*
X0028349Y0070936D01*
X0028298Y0071018D01*
X0028250Y0071103D01*
X0028206Y0071189D01*
X0028165Y0071277D01*
X0028129Y0071367D01*
X0028095Y0071458D01*
X0028066Y0071550D01*
X0028040Y0071644D01*
X0028019Y0071738D01*
X0028001Y0071834D01*
X0027987Y0071930D01*
X0027977Y0072026D01*
X0027971Y0072123D01*
X0027969Y0072220D01*
X0039918Y0030331D02*
X0039920Y0030428D01*
X0039926Y0030525D01*
X0039936Y0030621D01*
X0039950Y0030717D01*
X0039968Y0030813D01*
X0039989Y0030907D01*
X0040015Y0031001D01*
X0040044Y0031093D01*
X0040078Y0031184D01*
X0040114Y0031274D01*
X0040155Y0031362D01*
X0040199Y0031448D01*
X0040247Y0031533D01*
X0040298Y0031615D01*
X0040352Y0031696D01*
X0040410Y0031774D01*
X0040471Y0031849D01*
X0040534Y0031922D01*
X0040601Y0031993D01*
X0040671Y0032060D01*
X0040743Y0032125D01*
X0040818Y0032186D01*
X0040896Y0032245D01*
X0040975Y0032300D01*
X0041057Y0032352D01*
X0041141Y0032400D01*
X0041227Y0032445D01*
X0041315Y0032487D01*
X0041404Y0032525D01*
X0041495Y0032559D01*
X0041587Y0032589D01*
X0041680Y0032616D01*
X0041775Y0032638D01*
X0041870Y0032657D01*
X0041966Y0032672D01*
X0042062Y0032683D01*
X0042159Y0032690D01*
X0042256Y0032693D01*
X0042353Y0032692D01*
X0042450Y0032687D01*
X0042546Y0032678D01*
X0042642Y0032665D01*
X0042738Y0032648D01*
X0042833Y0032627D01*
X0042926Y0032603D01*
X0043019Y0032574D01*
X0043111Y0032542D01*
X0043201Y0032506D01*
X0043289Y0032467D01*
X0043376Y0032423D01*
X0043461Y0032377D01*
X0043544Y0032326D01*
X0043625Y0032273D01*
X0043703Y0032216D01*
X0043780Y0032156D01*
X0043853Y0032093D01*
X0043924Y0032027D01*
X0043992Y0031958D01*
X0044058Y0031886D01*
X0044120Y0031812D01*
X0044179Y0031735D01*
X0044235Y0031656D01*
X0044288Y0031574D01*
X0044338Y0031491D01*
X0044383Y0031405D01*
X0044426Y0031318D01*
X0044465Y0031229D01*
X0044500Y0031139D01*
X0044531Y0031047D01*
X0044558Y0030954D01*
X0044582Y0030860D01*
X0044602Y0030765D01*
X0044618Y0030669D01*
X0044630Y0030573D01*
X0044638Y0030476D01*
X0044642Y0030379D01*
X0044642Y0030283D01*
X0044638Y0030186D01*
X0044630Y0030089D01*
X0044618Y0029993D01*
X0044602Y0029897D01*
X0044582Y0029802D01*
X0044558Y0029708D01*
X0044531Y0029615D01*
X0044500Y0029523D01*
X0044465Y0029433D01*
X0044426Y0029344D01*
X0044383Y0029257D01*
X0044338Y0029171D01*
X0044288Y0029088D01*
X0044235Y0029006D01*
X0044179Y0028927D01*
X0044120Y0028850D01*
X0044058Y0028776D01*
X0043992Y0028704D01*
X0043924Y0028635D01*
X0043853Y0028569D01*
X0043780Y0028506D01*
X0043703Y0028446D01*
X0043625Y0028389D01*
X0043544Y0028336D01*
X0043461Y0028285D01*
X0043376Y0028239D01*
X0043289Y0028195D01*
X0043201Y0028156D01*
X0043111Y0028120D01*
X0043019Y0028088D01*
X0042926Y0028059D01*
X0042833Y0028035D01*
X0042738Y0028014D01*
X0042642Y0027997D01*
X0042546Y0027984D01*
X0042450Y0027975D01*
X0042353Y0027970D01*
X0042256Y0027969D01*
X0042159Y0027972D01*
X0042062Y0027979D01*
X0041966Y0027990D01*
X0041870Y0028005D01*
X0041775Y0028024D01*
X0041680Y0028046D01*
X0041587Y0028073D01*
X0041495Y0028103D01*
X0041404Y0028137D01*
X0041315Y0028175D01*
X0041227Y0028217D01*
X0041141Y0028262D01*
X0041057Y0028310D01*
X0040975Y0028362D01*
X0040896Y0028417D01*
X0040818Y0028476D01*
X0040743Y0028537D01*
X0040671Y0028602D01*
X0040601Y0028669D01*
X0040534Y0028740D01*
X0040471Y0028813D01*
X0040410Y0028888D01*
X0040352Y0028966D01*
X0040298Y0029047D01*
X0040247Y0029129D01*
X0040199Y0029214D01*
X0040155Y0029300D01*
X0040114Y0029388D01*
X0040078Y0029478D01*
X0040044Y0029569D01*
X0040015Y0029661D01*
X0039989Y0029755D01*
X0039968Y0029849D01*
X0039950Y0029945D01*
X0039936Y0030041D01*
X0039926Y0030137D01*
X0039920Y0030234D01*
X0039918Y0030331D01*
X0009701Y0016000D02*
X0009703Y0016158D01*
X0009709Y0016316D01*
X0009719Y0016474D01*
X0009733Y0016632D01*
X0009751Y0016789D01*
X0009772Y0016946D01*
X0009798Y0017102D01*
X0009828Y0017258D01*
X0009861Y0017413D01*
X0009899Y0017566D01*
X0009940Y0017719D01*
X0009985Y0017871D01*
X0010034Y0018022D01*
X0010087Y0018171D01*
X0010143Y0018319D01*
X0010203Y0018465D01*
X0010267Y0018610D01*
X0010335Y0018753D01*
X0010406Y0018895D01*
X0010480Y0019035D01*
X0010558Y0019172D01*
X0010640Y0019308D01*
X0010724Y0019442D01*
X0010813Y0019573D01*
X0010904Y0019702D01*
X0010999Y0019829D01*
X0011096Y0019954D01*
X0011197Y0020076D01*
X0011301Y0020195D01*
X0011408Y0020312D01*
X0011518Y0020426D01*
X0011631Y0020537D01*
X0011746Y0020646D01*
X0011864Y0020751D01*
X0011985Y0020853D01*
X0012108Y0020953D01*
X0012234Y0021049D01*
X0012362Y0021142D01*
X0012492Y0021232D01*
X0012625Y0021318D01*
X0012760Y0021402D01*
X0012896Y0021481D01*
X0013035Y0021558D01*
X0013176Y0021630D01*
X0013318Y0021700D01*
X0013462Y0021765D01*
X0013608Y0021827D01*
X0013755Y0021885D01*
X0013904Y0021940D01*
X0014054Y0021991D01*
X0014205Y0022038D01*
X0014357Y0022081D01*
X0014510Y0022120D01*
X0014665Y0022156D01*
X0014820Y0022187D01*
X0014976Y0022215D01*
X0015132Y0022239D01*
X0015289Y0022259D01*
X0015447Y0022275D01*
X0015604Y0022287D01*
X0015763Y0022295D01*
X0015921Y0022299D01*
X0016079Y0022299D01*
X0016237Y0022295D01*
X0016396Y0022287D01*
X0016553Y0022275D01*
X0016711Y0022259D01*
X0016868Y0022239D01*
X0017024Y0022215D01*
X0017180Y0022187D01*
X0017335Y0022156D01*
X0017490Y0022120D01*
X0017643Y0022081D01*
X0017795Y0022038D01*
X0017946Y0021991D01*
X0018096Y0021940D01*
X0018245Y0021885D01*
X0018392Y0021827D01*
X0018538Y0021765D01*
X0018682Y0021700D01*
X0018824Y0021630D01*
X0018965Y0021558D01*
X0019104Y0021481D01*
X0019240Y0021402D01*
X0019375Y0021318D01*
X0019508Y0021232D01*
X0019638Y0021142D01*
X0019766Y0021049D01*
X0019892Y0020953D01*
X0020015Y0020853D01*
X0020136Y0020751D01*
X0020254Y0020646D01*
X0020369Y0020537D01*
X0020482Y0020426D01*
X0020592Y0020312D01*
X0020699Y0020195D01*
X0020803Y0020076D01*
X0020904Y0019954D01*
X0021001Y0019829D01*
X0021096Y0019702D01*
X0021187Y0019573D01*
X0021276Y0019442D01*
X0021360Y0019308D01*
X0021442Y0019172D01*
X0021520Y0019035D01*
X0021594Y0018895D01*
X0021665Y0018753D01*
X0021733Y0018610D01*
X0021797Y0018465D01*
X0021857Y0018319D01*
X0021913Y0018171D01*
X0021966Y0018022D01*
X0022015Y0017871D01*
X0022060Y0017719D01*
X0022101Y0017566D01*
X0022139Y0017413D01*
X0022172Y0017258D01*
X0022202Y0017102D01*
X0022228Y0016946D01*
X0022249Y0016789D01*
X0022267Y0016632D01*
X0022281Y0016474D01*
X0022291Y0016316D01*
X0022297Y0016158D01*
X0022299Y0016000D01*
X0022297Y0015842D01*
X0022291Y0015684D01*
X0022281Y0015526D01*
X0022267Y0015368D01*
X0022249Y0015211D01*
X0022228Y0015054D01*
X0022202Y0014898D01*
X0022172Y0014742D01*
X0022139Y0014587D01*
X0022101Y0014434D01*
X0022060Y0014281D01*
X0022015Y0014129D01*
X0021966Y0013978D01*
X0021913Y0013829D01*
X0021857Y0013681D01*
X0021797Y0013535D01*
X0021733Y0013390D01*
X0021665Y0013247D01*
X0021594Y0013105D01*
X0021520Y0012965D01*
X0021442Y0012828D01*
X0021360Y0012692D01*
X0021276Y0012558D01*
X0021187Y0012427D01*
X0021096Y0012298D01*
X0021001Y0012171D01*
X0020904Y0012046D01*
X0020803Y0011924D01*
X0020699Y0011805D01*
X0020592Y0011688D01*
X0020482Y0011574D01*
X0020369Y0011463D01*
X0020254Y0011354D01*
X0020136Y0011249D01*
X0020015Y0011147D01*
X0019892Y0011047D01*
X0019766Y0010951D01*
X0019638Y0010858D01*
X0019508Y0010768D01*
X0019375Y0010682D01*
X0019240Y0010598D01*
X0019104Y0010519D01*
X0018965Y0010442D01*
X0018824Y0010370D01*
X0018682Y0010300D01*
X0018538Y0010235D01*
X0018392Y0010173D01*
X0018245Y0010115D01*
X0018096Y0010060D01*
X0017946Y0010009D01*
X0017795Y0009962D01*
X0017643Y0009919D01*
X0017490Y0009880D01*
X0017335Y0009844D01*
X0017180Y0009813D01*
X0017024Y0009785D01*
X0016868Y0009761D01*
X0016711Y0009741D01*
X0016553Y0009725D01*
X0016396Y0009713D01*
X0016237Y0009705D01*
X0016079Y0009701D01*
X0015921Y0009701D01*
X0015763Y0009705D01*
X0015604Y0009713D01*
X0015447Y0009725D01*
X0015289Y0009741D01*
X0015132Y0009761D01*
X0014976Y0009785D01*
X0014820Y0009813D01*
X0014665Y0009844D01*
X0014510Y0009880D01*
X0014357Y0009919D01*
X0014205Y0009962D01*
X0014054Y0010009D01*
X0013904Y0010060D01*
X0013755Y0010115D01*
X0013608Y0010173D01*
X0013462Y0010235D01*
X0013318Y0010300D01*
X0013176Y0010370D01*
X0013035Y0010442D01*
X0012896Y0010519D01*
X0012760Y0010598D01*
X0012625Y0010682D01*
X0012492Y0010768D01*
X0012362Y0010858D01*
X0012234Y0010951D01*
X0012108Y0011047D01*
X0011985Y0011147D01*
X0011864Y0011249D01*
X0011746Y0011354D01*
X0011631Y0011463D01*
X0011518Y0011574D01*
X0011408Y0011688D01*
X0011301Y0011805D01*
X0011197Y0011924D01*
X0011096Y0012046D01*
X0010999Y0012171D01*
X0010904Y0012298D01*
X0010813Y0012427D01*
X0010724Y0012558D01*
X0010640Y0012692D01*
X0010558Y0012828D01*
X0010480Y0012965D01*
X0010406Y0013105D01*
X0010335Y0013247D01*
X0010267Y0013390D01*
X0010203Y0013535D01*
X0010143Y0013681D01*
X0010087Y0013829D01*
X0010034Y0013978D01*
X0009985Y0014129D01*
X0009940Y0014281D01*
X0009899Y0014434D01*
X0009861Y0014587D01*
X0009828Y0014742D01*
X0009798Y0014898D01*
X0009772Y0015054D01*
X0009751Y0015211D01*
X0009733Y0015368D01*
X0009719Y0015526D01*
X0009709Y0015684D01*
X0009703Y0015842D01*
X0009701Y0016000D01*
X0074918Y0030331D02*
X0074920Y0030428D01*
X0074926Y0030525D01*
X0074936Y0030621D01*
X0074950Y0030717D01*
X0074968Y0030813D01*
X0074989Y0030907D01*
X0075015Y0031001D01*
X0075044Y0031093D01*
X0075078Y0031184D01*
X0075114Y0031274D01*
X0075155Y0031362D01*
X0075199Y0031448D01*
X0075247Y0031533D01*
X0075298Y0031615D01*
X0075352Y0031696D01*
X0075410Y0031774D01*
X0075471Y0031849D01*
X0075534Y0031922D01*
X0075601Y0031993D01*
X0075671Y0032060D01*
X0075743Y0032125D01*
X0075818Y0032186D01*
X0075896Y0032245D01*
X0075975Y0032300D01*
X0076057Y0032352D01*
X0076141Y0032400D01*
X0076227Y0032445D01*
X0076315Y0032487D01*
X0076404Y0032525D01*
X0076495Y0032559D01*
X0076587Y0032589D01*
X0076680Y0032616D01*
X0076775Y0032638D01*
X0076870Y0032657D01*
X0076966Y0032672D01*
X0077062Y0032683D01*
X0077159Y0032690D01*
X0077256Y0032693D01*
X0077353Y0032692D01*
X0077450Y0032687D01*
X0077546Y0032678D01*
X0077642Y0032665D01*
X0077738Y0032648D01*
X0077833Y0032627D01*
X0077926Y0032603D01*
X0078019Y0032574D01*
X0078111Y0032542D01*
X0078201Y0032506D01*
X0078289Y0032467D01*
X0078376Y0032423D01*
X0078461Y0032377D01*
X0078544Y0032326D01*
X0078625Y0032273D01*
X0078703Y0032216D01*
X0078780Y0032156D01*
X0078853Y0032093D01*
X0078924Y0032027D01*
X0078992Y0031958D01*
X0079058Y0031886D01*
X0079120Y0031812D01*
X0079179Y0031735D01*
X0079235Y0031656D01*
X0079288Y0031574D01*
X0079338Y0031491D01*
X0079383Y0031405D01*
X0079426Y0031318D01*
X0079465Y0031229D01*
X0079500Y0031139D01*
X0079531Y0031047D01*
X0079558Y0030954D01*
X0079582Y0030860D01*
X0079602Y0030765D01*
X0079618Y0030669D01*
X0079630Y0030573D01*
X0079638Y0030476D01*
X0079642Y0030379D01*
X0079642Y0030283D01*
X0079638Y0030186D01*
X0079630Y0030089D01*
X0079618Y0029993D01*
X0079602Y0029897D01*
X0079582Y0029802D01*
X0079558Y0029708D01*
X0079531Y0029615D01*
X0079500Y0029523D01*
X0079465Y0029433D01*
X0079426Y0029344D01*
X0079383Y0029257D01*
X0079338Y0029171D01*
X0079288Y0029088D01*
X0079235Y0029006D01*
X0079179Y0028927D01*
X0079120Y0028850D01*
X0079058Y0028776D01*
X0078992Y0028704D01*
X0078924Y0028635D01*
X0078853Y0028569D01*
X0078780Y0028506D01*
X0078703Y0028446D01*
X0078625Y0028389D01*
X0078544Y0028336D01*
X0078461Y0028285D01*
X0078376Y0028239D01*
X0078289Y0028195D01*
X0078201Y0028156D01*
X0078111Y0028120D01*
X0078019Y0028088D01*
X0077926Y0028059D01*
X0077833Y0028035D01*
X0077738Y0028014D01*
X0077642Y0027997D01*
X0077546Y0027984D01*
X0077450Y0027975D01*
X0077353Y0027970D01*
X0077256Y0027969D01*
X0077159Y0027972D01*
X0077062Y0027979D01*
X0076966Y0027990D01*
X0076870Y0028005D01*
X0076775Y0028024D01*
X0076680Y0028046D01*
X0076587Y0028073D01*
X0076495Y0028103D01*
X0076404Y0028137D01*
X0076315Y0028175D01*
X0076227Y0028217D01*
X0076141Y0028262D01*
X0076057Y0028310D01*
X0075975Y0028362D01*
X0075896Y0028417D01*
X0075818Y0028476D01*
X0075743Y0028537D01*
X0075671Y0028602D01*
X0075601Y0028669D01*
X0075534Y0028740D01*
X0075471Y0028813D01*
X0075410Y0028888D01*
X0075352Y0028966D01*
X0075298Y0029047D01*
X0075247Y0029129D01*
X0075199Y0029214D01*
X0075155Y0029300D01*
X0075114Y0029388D01*
X0075078Y0029478D01*
X0075044Y0029569D01*
X0075015Y0029661D01*
X0074989Y0029755D01*
X0074968Y0029849D01*
X0074950Y0029945D01*
X0074936Y0030041D01*
X0074926Y0030137D01*
X0074920Y0030234D01*
X0074918Y0030331D01*
X0109307Y0049780D02*
X0109309Y0049877D01*
X0109315Y0049974D01*
X0109325Y0050070D01*
X0109339Y0050166D01*
X0109357Y0050262D01*
X0109378Y0050356D01*
X0109404Y0050450D01*
X0109433Y0050542D01*
X0109467Y0050633D01*
X0109503Y0050723D01*
X0109544Y0050811D01*
X0109588Y0050897D01*
X0109636Y0050982D01*
X0109687Y0051064D01*
X0109741Y0051145D01*
X0109799Y0051223D01*
X0109860Y0051298D01*
X0109923Y0051371D01*
X0109990Y0051442D01*
X0110060Y0051509D01*
X0110132Y0051574D01*
X0110207Y0051635D01*
X0110285Y0051694D01*
X0110364Y0051749D01*
X0110446Y0051801D01*
X0110530Y0051849D01*
X0110616Y0051894D01*
X0110704Y0051936D01*
X0110793Y0051974D01*
X0110884Y0052008D01*
X0110976Y0052038D01*
X0111069Y0052065D01*
X0111164Y0052087D01*
X0111259Y0052106D01*
X0111355Y0052121D01*
X0111451Y0052132D01*
X0111548Y0052139D01*
X0111645Y0052142D01*
X0111742Y0052141D01*
X0111839Y0052136D01*
X0111935Y0052127D01*
X0112031Y0052114D01*
X0112127Y0052097D01*
X0112222Y0052076D01*
X0112315Y0052052D01*
X0112408Y0052023D01*
X0112500Y0051991D01*
X0112590Y0051955D01*
X0112678Y0051916D01*
X0112765Y0051872D01*
X0112850Y0051826D01*
X0112933Y0051775D01*
X0113014Y0051722D01*
X0113092Y0051665D01*
X0113169Y0051605D01*
X0113242Y0051542D01*
X0113313Y0051476D01*
X0113381Y0051407D01*
X0113447Y0051335D01*
X0113509Y0051261D01*
X0113568Y0051184D01*
X0113624Y0051105D01*
X0113677Y0051023D01*
X0113727Y0050940D01*
X0113772Y0050854D01*
X0113815Y0050767D01*
X0113854Y0050678D01*
X0113889Y0050588D01*
X0113920Y0050496D01*
X0113947Y0050403D01*
X0113971Y0050309D01*
X0113991Y0050214D01*
X0114007Y0050118D01*
X0114019Y0050022D01*
X0114027Y0049925D01*
X0114031Y0049828D01*
X0114031Y0049732D01*
X0114027Y0049635D01*
X0114019Y0049538D01*
X0114007Y0049442D01*
X0113991Y0049346D01*
X0113971Y0049251D01*
X0113947Y0049157D01*
X0113920Y0049064D01*
X0113889Y0048972D01*
X0113854Y0048882D01*
X0113815Y0048793D01*
X0113772Y0048706D01*
X0113727Y0048620D01*
X0113677Y0048537D01*
X0113624Y0048455D01*
X0113568Y0048376D01*
X0113509Y0048299D01*
X0113447Y0048225D01*
X0113381Y0048153D01*
X0113313Y0048084D01*
X0113242Y0048018D01*
X0113169Y0047955D01*
X0113092Y0047895D01*
X0113014Y0047838D01*
X0112933Y0047785D01*
X0112850Y0047734D01*
X0112765Y0047688D01*
X0112678Y0047644D01*
X0112590Y0047605D01*
X0112500Y0047569D01*
X0112408Y0047537D01*
X0112315Y0047508D01*
X0112222Y0047484D01*
X0112127Y0047463D01*
X0112031Y0047446D01*
X0111935Y0047433D01*
X0111839Y0047424D01*
X0111742Y0047419D01*
X0111645Y0047418D01*
X0111548Y0047421D01*
X0111451Y0047428D01*
X0111355Y0047439D01*
X0111259Y0047454D01*
X0111164Y0047473D01*
X0111069Y0047495D01*
X0110976Y0047522D01*
X0110884Y0047552D01*
X0110793Y0047586D01*
X0110704Y0047624D01*
X0110616Y0047666D01*
X0110530Y0047711D01*
X0110446Y0047759D01*
X0110364Y0047811D01*
X0110285Y0047866D01*
X0110207Y0047925D01*
X0110132Y0047986D01*
X0110060Y0048051D01*
X0109990Y0048118D01*
X0109923Y0048189D01*
X0109860Y0048262D01*
X0109799Y0048337D01*
X0109741Y0048415D01*
X0109687Y0048496D01*
X0109636Y0048578D01*
X0109588Y0048663D01*
X0109544Y0048749D01*
X0109503Y0048837D01*
X0109467Y0048927D01*
X0109433Y0049018D01*
X0109404Y0049110D01*
X0109378Y0049204D01*
X0109357Y0049298D01*
X0109339Y0049394D01*
X0109325Y0049490D01*
X0109315Y0049586D01*
X0109309Y0049683D01*
X0109307Y0049780D01*
X0117201Y0016000D02*
X0117203Y0016158D01*
X0117209Y0016316D01*
X0117219Y0016474D01*
X0117233Y0016632D01*
X0117251Y0016789D01*
X0117272Y0016946D01*
X0117298Y0017102D01*
X0117328Y0017258D01*
X0117361Y0017413D01*
X0117399Y0017566D01*
X0117440Y0017719D01*
X0117485Y0017871D01*
X0117534Y0018022D01*
X0117587Y0018171D01*
X0117643Y0018319D01*
X0117703Y0018465D01*
X0117767Y0018610D01*
X0117835Y0018753D01*
X0117906Y0018895D01*
X0117980Y0019035D01*
X0118058Y0019172D01*
X0118140Y0019308D01*
X0118224Y0019442D01*
X0118313Y0019573D01*
X0118404Y0019702D01*
X0118499Y0019829D01*
X0118596Y0019954D01*
X0118697Y0020076D01*
X0118801Y0020195D01*
X0118908Y0020312D01*
X0119018Y0020426D01*
X0119131Y0020537D01*
X0119246Y0020646D01*
X0119364Y0020751D01*
X0119485Y0020853D01*
X0119608Y0020953D01*
X0119734Y0021049D01*
X0119862Y0021142D01*
X0119992Y0021232D01*
X0120125Y0021318D01*
X0120260Y0021402D01*
X0120396Y0021481D01*
X0120535Y0021558D01*
X0120676Y0021630D01*
X0120818Y0021700D01*
X0120962Y0021765D01*
X0121108Y0021827D01*
X0121255Y0021885D01*
X0121404Y0021940D01*
X0121554Y0021991D01*
X0121705Y0022038D01*
X0121857Y0022081D01*
X0122010Y0022120D01*
X0122165Y0022156D01*
X0122320Y0022187D01*
X0122476Y0022215D01*
X0122632Y0022239D01*
X0122789Y0022259D01*
X0122947Y0022275D01*
X0123104Y0022287D01*
X0123263Y0022295D01*
X0123421Y0022299D01*
X0123579Y0022299D01*
X0123737Y0022295D01*
X0123896Y0022287D01*
X0124053Y0022275D01*
X0124211Y0022259D01*
X0124368Y0022239D01*
X0124524Y0022215D01*
X0124680Y0022187D01*
X0124835Y0022156D01*
X0124990Y0022120D01*
X0125143Y0022081D01*
X0125295Y0022038D01*
X0125446Y0021991D01*
X0125596Y0021940D01*
X0125745Y0021885D01*
X0125892Y0021827D01*
X0126038Y0021765D01*
X0126182Y0021700D01*
X0126324Y0021630D01*
X0126465Y0021558D01*
X0126604Y0021481D01*
X0126740Y0021402D01*
X0126875Y0021318D01*
X0127008Y0021232D01*
X0127138Y0021142D01*
X0127266Y0021049D01*
X0127392Y0020953D01*
X0127515Y0020853D01*
X0127636Y0020751D01*
X0127754Y0020646D01*
X0127869Y0020537D01*
X0127982Y0020426D01*
X0128092Y0020312D01*
X0128199Y0020195D01*
X0128303Y0020076D01*
X0128404Y0019954D01*
X0128501Y0019829D01*
X0128596Y0019702D01*
X0128687Y0019573D01*
X0128776Y0019442D01*
X0128860Y0019308D01*
X0128942Y0019172D01*
X0129020Y0019035D01*
X0129094Y0018895D01*
X0129165Y0018753D01*
X0129233Y0018610D01*
X0129297Y0018465D01*
X0129357Y0018319D01*
X0129413Y0018171D01*
X0129466Y0018022D01*
X0129515Y0017871D01*
X0129560Y0017719D01*
X0129601Y0017566D01*
X0129639Y0017413D01*
X0129672Y0017258D01*
X0129702Y0017102D01*
X0129728Y0016946D01*
X0129749Y0016789D01*
X0129767Y0016632D01*
X0129781Y0016474D01*
X0129791Y0016316D01*
X0129797Y0016158D01*
X0129799Y0016000D01*
X0129797Y0015842D01*
X0129791Y0015684D01*
X0129781Y0015526D01*
X0129767Y0015368D01*
X0129749Y0015211D01*
X0129728Y0015054D01*
X0129702Y0014898D01*
X0129672Y0014742D01*
X0129639Y0014587D01*
X0129601Y0014434D01*
X0129560Y0014281D01*
X0129515Y0014129D01*
X0129466Y0013978D01*
X0129413Y0013829D01*
X0129357Y0013681D01*
X0129297Y0013535D01*
X0129233Y0013390D01*
X0129165Y0013247D01*
X0129094Y0013105D01*
X0129020Y0012965D01*
X0128942Y0012828D01*
X0128860Y0012692D01*
X0128776Y0012558D01*
X0128687Y0012427D01*
X0128596Y0012298D01*
X0128501Y0012171D01*
X0128404Y0012046D01*
X0128303Y0011924D01*
X0128199Y0011805D01*
X0128092Y0011688D01*
X0127982Y0011574D01*
X0127869Y0011463D01*
X0127754Y0011354D01*
X0127636Y0011249D01*
X0127515Y0011147D01*
X0127392Y0011047D01*
X0127266Y0010951D01*
X0127138Y0010858D01*
X0127008Y0010768D01*
X0126875Y0010682D01*
X0126740Y0010598D01*
X0126604Y0010519D01*
X0126465Y0010442D01*
X0126324Y0010370D01*
X0126182Y0010300D01*
X0126038Y0010235D01*
X0125892Y0010173D01*
X0125745Y0010115D01*
X0125596Y0010060D01*
X0125446Y0010009D01*
X0125295Y0009962D01*
X0125143Y0009919D01*
X0124990Y0009880D01*
X0124835Y0009844D01*
X0124680Y0009813D01*
X0124524Y0009785D01*
X0124368Y0009761D01*
X0124211Y0009741D01*
X0124053Y0009725D01*
X0123896Y0009713D01*
X0123737Y0009705D01*
X0123579Y0009701D01*
X0123421Y0009701D01*
X0123263Y0009705D01*
X0123104Y0009713D01*
X0122947Y0009725D01*
X0122789Y0009741D01*
X0122632Y0009761D01*
X0122476Y0009785D01*
X0122320Y0009813D01*
X0122165Y0009844D01*
X0122010Y0009880D01*
X0121857Y0009919D01*
X0121705Y0009962D01*
X0121554Y0010009D01*
X0121404Y0010060D01*
X0121255Y0010115D01*
X0121108Y0010173D01*
X0120962Y0010235D01*
X0120818Y0010300D01*
X0120676Y0010370D01*
X0120535Y0010442D01*
X0120396Y0010519D01*
X0120260Y0010598D01*
X0120125Y0010682D01*
X0119992Y0010768D01*
X0119862Y0010858D01*
X0119734Y0010951D01*
X0119608Y0011047D01*
X0119485Y0011147D01*
X0119364Y0011249D01*
X0119246Y0011354D01*
X0119131Y0011463D01*
X0119018Y0011574D01*
X0118908Y0011688D01*
X0118801Y0011805D01*
X0118697Y0011924D01*
X0118596Y0012046D01*
X0118499Y0012171D01*
X0118404Y0012298D01*
X0118313Y0012427D01*
X0118224Y0012558D01*
X0118140Y0012692D01*
X0118058Y0012828D01*
X0117980Y0012965D01*
X0117906Y0013105D01*
X0117835Y0013247D01*
X0117767Y0013390D01*
X0117703Y0013535D01*
X0117643Y0013681D01*
X0117587Y0013829D01*
X0117534Y0013978D01*
X0117485Y0014129D01*
X0117440Y0014281D01*
X0117399Y0014434D01*
X0117361Y0014587D01*
X0117328Y0014742D01*
X0117298Y0014898D01*
X0117272Y0015054D01*
X0117251Y0015211D01*
X0117233Y0015368D01*
X0117219Y0015526D01*
X0117209Y0015684D01*
X0117203Y0015842D01*
X0117201Y0016000D01*
D12*
X0128431Y0098650D02*
X0127948Y0099134D01*
X0127948Y0100101D01*
X0128431Y0100585D01*
X0128915Y0100585D01*
X0129399Y0100101D01*
X0129883Y0100585D01*
X0130366Y0100585D01*
X0130850Y0100101D01*
X0130850Y0099134D01*
X0130366Y0098650D01*
X0129399Y0099617D02*
X0129399Y0100101D01*
X0129399Y0104543D02*
X0129399Y0105994D01*
X0129883Y0106478D01*
X0130366Y0106478D01*
X0130850Y0105994D01*
X0130850Y0104543D01*
X0127948Y0104543D01*
X0127948Y0105994D01*
X0128431Y0106478D01*
X0128915Y0106478D01*
X0129399Y0105994D01*
X0129883Y0107490D02*
X0128915Y0108457D01*
X0128915Y0108941D01*
X0128915Y0107490D02*
X0130850Y0107490D01*
X0130366Y0109945D02*
X0129883Y0110429D01*
X0129883Y0111880D01*
X0129399Y0111880D02*
X0130850Y0111880D01*
X0130850Y0110429D01*
X0130366Y0109945D01*
X0128915Y0110429D02*
X0128915Y0111396D01*
X0129399Y0111880D01*
X0129883Y0112891D02*
X0128915Y0114343D01*
X0129399Y0115347D02*
X0128915Y0115831D01*
X0128915Y0116798D01*
X0129399Y0117282D01*
X0129883Y0117282D01*
X0129883Y0115347D01*
X0130366Y0115347D02*
X0129399Y0115347D01*
X0130366Y0115347D02*
X0130850Y0115831D01*
X0130850Y0116798D01*
X0129399Y0118293D02*
X0129399Y0120228D01*
X0128915Y0121240D02*
X0127948Y0122207D01*
X0130850Y0122207D01*
X0130850Y0121240D02*
X0130850Y0123175D01*
X0130850Y0127133D02*
X0127948Y0127133D01*
X0127948Y0128584D01*
X0128431Y0129068D01*
X0128915Y0129068D01*
X0129399Y0128584D01*
X0129399Y0127133D01*
X0130850Y0127133D02*
X0130850Y0128584D01*
X0130366Y0129068D01*
X0129883Y0129068D01*
X0129399Y0128584D01*
X0129883Y0130080D02*
X0129883Y0131531D01*
X0129399Y0132014D01*
X0128431Y0132014D01*
X0127948Y0131531D01*
X0127948Y0130080D01*
X0130850Y0130080D01*
X0130366Y0133026D02*
X0130850Y0133510D01*
X0130850Y0134477D01*
X0130366Y0134961D01*
X0129883Y0134961D01*
X0129399Y0134477D01*
X0129399Y0133510D01*
X0128915Y0133026D01*
X0128431Y0133026D01*
X0127948Y0133510D01*
X0127948Y0134477D01*
X0128431Y0134961D01*
X0125850Y0134715D02*
X0125366Y0134231D01*
X0124399Y0134231D01*
X0123915Y0134715D01*
X0123915Y0135682D01*
X0124399Y0136166D01*
X0124883Y0136166D01*
X0124883Y0134231D01*
X0125850Y0134715D02*
X0125850Y0135682D01*
X0125850Y0133220D02*
X0122948Y0133220D01*
X0123915Y0133220D02*
X0123915Y0131768D01*
X0124399Y0131285D01*
X0125366Y0131285D01*
X0125850Y0131768D01*
X0125850Y0133220D01*
X0125366Y0130273D02*
X0124399Y0130273D01*
X0123915Y0129789D01*
X0123915Y0128822D01*
X0124399Y0128338D01*
X0125366Y0128338D01*
X0125850Y0128822D01*
X0125850Y0129789D01*
X0125366Y0130273D01*
X0125850Y0127326D02*
X0122948Y0127326D01*
X0122948Y0125391D02*
X0125850Y0127326D01*
X0125850Y0125391D02*
X0122948Y0125391D01*
X0120850Y0126366D02*
X0120850Y0127334D01*
X0120366Y0127818D01*
X0118431Y0127818D01*
X0117948Y0127334D01*
X0117948Y0126366D01*
X0118431Y0125883D01*
X0120366Y0125883D01*
X0120850Y0126366D01*
X0120366Y0124871D02*
X0119883Y0124871D01*
X0119399Y0124387D01*
X0119399Y0123420D01*
X0118915Y0122936D01*
X0118431Y0122936D01*
X0117948Y0123420D01*
X0117948Y0124387D01*
X0118431Y0124871D01*
X0120366Y0124871D02*
X0120850Y0124387D01*
X0120850Y0123420D01*
X0120366Y0122936D01*
X0123915Y0121441D02*
X0123915Y0120957D01*
X0124883Y0119990D01*
X0125850Y0119990D02*
X0123915Y0119990D01*
X0124399Y0118978D02*
X0123915Y0118494D01*
X0123915Y0117527D01*
X0124883Y0117527D02*
X0124883Y0118978D01*
X0124399Y0118978D02*
X0125850Y0118978D01*
X0125850Y0117527D01*
X0125366Y0117043D01*
X0124883Y0117527D01*
X0124883Y0116031D02*
X0124883Y0114097D01*
X0125366Y0114097D02*
X0124399Y0114097D01*
X0123915Y0114580D01*
X0123915Y0115548D01*
X0124399Y0116031D01*
X0124883Y0116031D01*
X0125850Y0115548D02*
X0125850Y0114580D01*
X0125366Y0114097D01*
X0125850Y0113085D02*
X0124883Y0112117D01*
X0124883Y0112601D02*
X0124883Y0111150D01*
X0125850Y0111150D02*
X0122948Y0111150D01*
X0122948Y0112601D01*
X0123431Y0113085D01*
X0124399Y0113085D01*
X0124883Y0112601D01*
X0127948Y0112891D02*
X0130850Y0112891D01*
X0129883Y0112891D02*
X0130850Y0114343D01*
X0120850Y0114097D02*
X0120850Y0115548D01*
X0120366Y0116031D01*
X0119883Y0116031D01*
X0119399Y0115548D01*
X0119399Y0114097D01*
X0120366Y0113085D02*
X0120850Y0112601D01*
X0120850Y0111634D01*
X0120366Y0111150D01*
X0117948Y0111150D01*
X0117948Y0113085D02*
X0120366Y0113085D01*
X0120850Y0114097D02*
X0117948Y0114097D01*
X0117948Y0115548D01*
X0118431Y0116031D01*
X0118915Y0116031D01*
X0119399Y0115548D01*
X0120366Y0117043D02*
X0118431Y0117043D01*
X0117948Y0117527D01*
X0117948Y0118494D01*
X0118431Y0118978D01*
X0120366Y0118978D02*
X0120850Y0118494D01*
X0120850Y0117527D01*
X0120366Y0117043D01*
X0120850Y0128829D02*
X0117948Y0128829D01*
X0118915Y0131776D02*
X0117948Y0132743D01*
X0118915Y0133711D01*
X0120850Y0133711D01*
X0120850Y0134722D02*
X0117948Y0134722D01*
X0117948Y0136173D01*
X0118431Y0136657D01*
X0119399Y0136657D01*
X0119883Y0136173D01*
X0119883Y0134722D01*
X0119883Y0135690D02*
X0120850Y0136657D01*
X0119399Y0133711D02*
X0119399Y0131776D01*
X0118915Y0131776D02*
X0120850Y0131776D01*
X0120850Y0130764D02*
X0120850Y0128829D01*
X0127948Y0138919D02*
X0127948Y0140854D01*
X0127948Y0139887D02*
X0130850Y0139887D01*
X0130850Y0141866D02*
X0127948Y0141866D01*
X0127948Y0143317D01*
X0128431Y0143801D01*
X0129399Y0143801D01*
X0129883Y0143317D01*
X0129883Y0141866D01*
X0129883Y0142833D02*
X0130850Y0143801D01*
X0130850Y0144812D02*
X0130850Y0145780D01*
X0130850Y0145296D02*
X0127948Y0145296D01*
X0127948Y0144812D02*
X0127948Y0145780D01*
X0127948Y0146776D02*
X0127948Y0148228D01*
X0128431Y0148711D01*
X0129399Y0148711D01*
X0129883Y0148228D01*
X0129883Y0146776D01*
X0130850Y0146776D02*
X0127948Y0146776D01*
D13*
X0119198Y0110802D02*
X0119198Y0108600D01*
X0118464Y0109334D01*
X0117730Y0108600D01*
X0117730Y0110802D01*
X0116988Y0110435D02*
X0116621Y0110802D01*
X0115887Y0110802D01*
X0115520Y0110435D01*
X0115520Y0110068D01*
X0115887Y0109701D01*
X0116621Y0109701D01*
X0116988Y0109334D01*
X0116988Y0108967D01*
X0116621Y0108600D01*
X0115887Y0108600D01*
X0115520Y0108967D01*
X0114778Y0108233D02*
X0113310Y0108233D01*
X0112568Y0108600D02*
X0111100Y0108600D01*
X0111100Y0110802D01*
X0099561Y0100343D02*
X0099561Y0098875D01*
X0097359Y0098875D01*
X0099928Y0098133D02*
X0099928Y0096665D01*
X0099561Y0095923D02*
X0099561Y0094455D01*
X0099561Y0095189D02*
X0097359Y0095189D01*
X0098093Y0094455D01*
X0098460Y0093713D02*
X0098827Y0093346D01*
X0098827Y0092245D01*
X0099561Y0092245D02*
X0097359Y0092245D01*
X0097359Y0093346D01*
X0097726Y0093713D01*
X0098460Y0093713D01*
X0098827Y0092979D02*
X0099561Y0093713D01*
X0084928Y0096665D02*
X0084928Y0098133D01*
X0084194Y0098875D02*
X0084561Y0099242D01*
X0084561Y0099976D01*
X0084194Y0100343D01*
X0084194Y0098875D02*
X0082726Y0098875D01*
X0082359Y0099242D01*
X0082359Y0099976D01*
X0082726Y0100343D01*
X0082726Y0095923D02*
X0082359Y0095556D01*
X0082359Y0094822D01*
X0082726Y0094455D01*
X0082726Y0093713D02*
X0083460Y0093713D01*
X0083827Y0093346D01*
X0083827Y0092245D01*
X0084561Y0092245D02*
X0082359Y0092245D01*
X0082359Y0093346D01*
X0082726Y0093713D01*
X0083827Y0092979D02*
X0084561Y0093713D01*
X0084561Y0094455D02*
X0083093Y0095923D01*
X0082726Y0095923D01*
X0084561Y0095923D02*
X0084561Y0094455D01*
X0069928Y0096665D02*
X0069928Y0098133D01*
X0069561Y0098875D02*
X0067359Y0098875D01*
X0067359Y0099976D01*
X0067726Y0100343D01*
X0068460Y0100343D01*
X0068827Y0099976D01*
X0068827Y0098875D01*
X0068827Y0099609D02*
X0069561Y0100343D01*
X0069194Y0095923D02*
X0069561Y0095556D01*
X0069561Y0094822D01*
X0069194Y0094455D01*
X0069561Y0093713D02*
X0068827Y0092979D01*
X0068827Y0093346D02*
X0068827Y0092245D01*
X0069561Y0092245D02*
X0067359Y0092245D01*
X0067359Y0093346D01*
X0067726Y0093713D01*
X0068460Y0093713D01*
X0068827Y0093346D01*
X0067726Y0094455D02*
X0067359Y0094822D01*
X0067359Y0095556D01*
X0067726Y0095923D01*
X0068093Y0095923D01*
X0068460Y0095556D01*
X0068827Y0095923D01*
X0069194Y0095923D01*
X0068460Y0095556D02*
X0068460Y0095189D01*
X0054928Y0096665D02*
X0054928Y0098133D01*
X0054194Y0098875D02*
X0054561Y0099242D01*
X0054561Y0099976D01*
X0054194Y0100343D01*
X0053827Y0100343D01*
X0053460Y0099976D01*
X0053460Y0099242D01*
X0053093Y0098875D01*
X0052726Y0098875D01*
X0052359Y0099242D01*
X0052359Y0099976D01*
X0052726Y0100343D01*
X0053460Y0095923D02*
X0053460Y0094455D01*
X0052359Y0095556D01*
X0054561Y0095556D01*
X0054561Y0093713D02*
X0053827Y0092979D01*
X0053827Y0093346D02*
X0053827Y0092245D01*
X0054561Y0092245D02*
X0052359Y0092245D01*
X0052359Y0093346D01*
X0052726Y0093713D01*
X0053460Y0093713D01*
X0053827Y0093346D01*
X0034198Y0113600D02*
X0034198Y0115802D01*
X0032730Y0115802D02*
X0032730Y0113600D01*
X0033464Y0114334D01*
X0034198Y0113600D01*
X0031988Y0113967D02*
X0031621Y0113600D01*
X0030887Y0113600D01*
X0030520Y0113967D01*
X0030887Y0114701D02*
X0030520Y0115068D01*
X0030520Y0115435D01*
X0030887Y0115802D01*
X0031621Y0115802D01*
X0031988Y0115435D01*
X0031621Y0114701D02*
X0031988Y0114334D01*
X0031988Y0113967D01*
X0031621Y0114701D02*
X0030887Y0114701D01*
X0029778Y0113233D02*
X0028310Y0113233D01*
X0027568Y0113967D02*
X0027201Y0113600D01*
X0026467Y0113600D01*
X0026100Y0113967D01*
X0026467Y0114701D02*
X0027201Y0114701D01*
X0027568Y0114334D01*
X0027568Y0113967D01*
X0026467Y0114701D02*
X0026100Y0115068D01*
X0026100Y0115435D01*
X0026467Y0115802D01*
X0027201Y0115802D01*
X0027568Y0115435D01*
X0031100Y0126100D02*
X0031100Y0128402D01*
X0032251Y0128402D01*
X0032635Y0128018D01*
X0032635Y0127251D01*
X0032251Y0126867D01*
X0031100Y0126867D01*
X0033402Y0126484D02*
X0033402Y0128018D01*
X0033786Y0128402D01*
X0034553Y0128402D01*
X0034937Y0128018D01*
X0034937Y0126484D01*
X0034553Y0126100D01*
X0033786Y0126100D01*
X0033402Y0126484D01*
X0035704Y0126100D02*
X0036471Y0126867D01*
X0037239Y0126100D01*
X0037239Y0128402D01*
X0038006Y0128402D02*
X0038006Y0126100D01*
X0039541Y0126100D01*
X0040308Y0126100D02*
X0040308Y0128402D01*
X0041459Y0128402D01*
X0041842Y0128018D01*
X0041842Y0127251D01*
X0041459Y0126867D01*
X0040308Y0126867D01*
X0041075Y0126867D02*
X0041842Y0126100D01*
X0039541Y0128402D02*
X0038006Y0128402D01*
X0038006Y0127251D02*
X0038773Y0127251D01*
X0035704Y0128402D02*
X0035704Y0126100D01*
X0068600Y0131484D02*
X0068984Y0131100D01*
X0069751Y0131100D01*
X0070135Y0131484D01*
X0070902Y0131484D02*
X0071286Y0131100D01*
X0072053Y0131100D01*
X0072437Y0131484D01*
X0072437Y0133018D01*
X0072053Y0133402D01*
X0071286Y0133402D01*
X0070902Y0133018D01*
X0070902Y0131484D01*
X0070135Y0133018D02*
X0069751Y0133402D01*
X0068984Y0133402D01*
X0068600Y0133018D01*
X0068600Y0131484D01*
X0073204Y0131100D02*
X0073204Y0133402D01*
X0074739Y0131100D01*
X0074739Y0133402D01*
X0075506Y0133402D02*
X0077041Y0133402D01*
X0077808Y0133402D02*
X0078959Y0133402D01*
X0079342Y0133018D01*
X0079342Y0132251D01*
X0078959Y0131867D01*
X0077808Y0131867D01*
X0077808Y0131100D02*
X0077808Y0133402D01*
X0076273Y0133402D02*
X0076273Y0131100D01*
X0078575Y0131867D02*
X0079342Y0131100D01*
X0080110Y0131484D02*
X0080110Y0133018D01*
X0080493Y0133402D01*
X0081261Y0133402D01*
X0081644Y0133018D01*
X0081644Y0131484D01*
X0081261Y0131100D01*
X0080493Y0131100D01*
X0080110Y0131484D01*
X0082412Y0131100D02*
X0083946Y0131100D01*
X0082412Y0131100D02*
X0082412Y0133402D01*
X0106098Y0070333D02*
X0106098Y0068798D01*
X0106098Y0068031D02*
X0106098Y0066496D01*
X0108400Y0066496D01*
X0108400Y0065729D02*
X0108400Y0064194D01*
X0106098Y0064194D01*
X0106098Y0065729D01*
X0107249Y0066496D02*
X0107249Y0067263D01*
X0107249Y0064961D02*
X0107249Y0064194D01*
X0108400Y0063427D02*
X0108400Y0061892D01*
X0106098Y0061892D01*
X0106098Y0069565D02*
X0108400Y0069565D01*
X0084198Y0053302D02*
X0084198Y0051100D01*
X0083464Y0051834D01*
X0082730Y0051100D01*
X0082730Y0053302D01*
X0081988Y0052935D02*
X0081621Y0053302D01*
X0080887Y0053302D01*
X0080520Y0052935D01*
X0080520Y0052568D01*
X0080887Y0052201D01*
X0081621Y0052201D01*
X0081988Y0051834D01*
X0081988Y0051467D01*
X0081621Y0051100D01*
X0080887Y0051100D01*
X0080520Y0051467D01*
X0079778Y0050733D02*
X0078310Y0050733D01*
X0077568Y0051467D02*
X0077201Y0051100D01*
X0076467Y0051100D01*
X0076100Y0051467D01*
X0076100Y0052935D01*
X0076467Y0053302D01*
X0077201Y0053302D01*
X0077568Y0052935D01*
X0085172Y0035902D02*
X0084788Y0035518D01*
X0084788Y0033984D01*
X0085172Y0033600D01*
X0085939Y0033600D01*
X0086323Y0033984D01*
X0087090Y0033600D02*
X0087090Y0035902D01*
X0088625Y0035902D01*
X0089392Y0035902D02*
X0089392Y0033600D01*
X0088625Y0033600D02*
X0087090Y0033600D01*
X0087090Y0034751D02*
X0087857Y0034751D01*
X0086323Y0035518D02*
X0085939Y0035902D01*
X0085172Y0035902D01*
X0089392Y0035902D02*
X0090927Y0033600D01*
X0090927Y0035902D01*
X0091694Y0035902D02*
X0093229Y0035902D01*
X0093996Y0035902D02*
X0093996Y0033600D01*
X0095531Y0033600D01*
X0096298Y0033600D02*
X0096298Y0035902D01*
X0097449Y0035902D01*
X0097833Y0035518D01*
X0097833Y0034751D01*
X0097449Y0034367D01*
X0096298Y0034367D01*
X0097065Y0034367D02*
X0097833Y0033600D01*
X0095531Y0035902D02*
X0093996Y0035902D01*
X0093996Y0034751D02*
X0094763Y0034751D01*
X0092461Y0033600D02*
X0092461Y0035902D01*
X0062833Y0035902D02*
X0061298Y0035902D01*
X0062065Y0035902D02*
X0062065Y0033600D01*
X0060531Y0033600D02*
X0060531Y0035902D01*
X0060531Y0034751D02*
X0058996Y0034751D01*
X0058229Y0034751D02*
X0058229Y0033984D01*
X0057845Y0033600D01*
X0057078Y0033600D01*
X0056694Y0033984D01*
X0056694Y0035518D01*
X0057078Y0035902D01*
X0057845Y0035902D01*
X0058229Y0035518D01*
X0058229Y0034751D02*
X0057461Y0034751D01*
X0055927Y0035902D02*
X0055159Y0035902D01*
X0055543Y0035902D02*
X0055543Y0033600D01*
X0055159Y0033600D02*
X0055927Y0033600D01*
X0054392Y0033600D02*
X0053625Y0034367D01*
X0054008Y0034367D02*
X0052857Y0034367D01*
X0052857Y0033600D02*
X0052857Y0035902D01*
X0054008Y0035902D01*
X0054392Y0035518D01*
X0054392Y0034751D01*
X0054008Y0034367D01*
X0058996Y0033600D02*
X0058996Y0035902D01*
X0054198Y0051100D02*
X0054198Y0053302D01*
X0052730Y0053302D02*
X0052730Y0051100D01*
X0053464Y0051834D01*
X0054198Y0051100D01*
X0051988Y0051467D02*
X0051988Y0051834D01*
X0051621Y0052201D01*
X0050887Y0052201D01*
X0050520Y0052568D01*
X0050520Y0052935D01*
X0050887Y0053302D01*
X0051621Y0053302D01*
X0051988Y0052935D01*
X0051988Y0051467D02*
X0051621Y0051100D01*
X0050887Y0051100D01*
X0050520Y0051467D01*
X0049778Y0050733D02*
X0048310Y0050733D01*
X0047568Y0051100D02*
X0046834Y0051834D01*
X0047201Y0051834D02*
X0046100Y0051834D01*
X0046100Y0051100D02*
X0046100Y0053302D01*
X0047201Y0053302D01*
X0047568Y0052935D01*
X0047568Y0052201D01*
X0047201Y0051834D01*
X0035900Y0051484D02*
X0035516Y0051100D01*
X0035900Y0051484D02*
X0035900Y0052251D01*
X0035516Y0052635D01*
X0035133Y0052635D01*
X0034749Y0052251D01*
X0034749Y0051484D01*
X0034365Y0051100D01*
X0033982Y0051100D01*
X0033598Y0051484D01*
X0033598Y0052251D01*
X0033982Y0052635D01*
X0033598Y0053402D02*
X0033598Y0054937D01*
X0033598Y0055704D02*
X0033598Y0056855D01*
X0033982Y0057239D01*
X0034749Y0057239D01*
X0035133Y0056855D01*
X0035133Y0055704D01*
X0035900Y0055704D02*
X0033598Y0055704D01*
X0033598Y0054169D02*
X0035900Y0054169D01*
X0035133Y0056471D02*
X0035900Y0057239D01*
X0035516Y0058006D02*
X0035900Y0058390D01*
X0035900Y0059157D01*
X0035516Y0059541D01*
X0033982Y0059541D01*
X0033598Y0059157D01*
X0033598Y0058390D01*
X0033982Y0058006D01*
X0035516Y0058006D01*
X0035900Y0060308D02*
X0033598Y0060308D01*
X0033598Y0061459D01*
X0033982Y0061842D01*
X0034365Y0061842D01*
X0034749Y0061459D01*
X0034749Y0060308D01*
X0034749Y0061459D02*
X0035133Y0061842D01*
X0035516Y0061842D01*
X0035900Y0061459D01*
X0035900Y0060308D01*
X0035900Y0062610D02*
X0033598Y0062610D01*
X0033598Y0064144D01*
X0034749Y0063377D02*
X0034749Y0062610D01*
X0035900Y0062610D02*
X0035900Y0064144D01*
D14*
X0045548Y0060000D02*
X0047127Y0060000D01*
X0047754Y0054500D02*
X0064246Y0054500D01*
X0064873Y0060000D02*
X0066452Y0060000D01*
X0075548Y0060000D02*
X0077127Y0060000D01*
X0077754Y0054500D02*
X0094246Y0054500D01*
X0094873Y0060000D02*
X0096452Y0060000D01*
X0087127Y0060000D02*
X0084873Y0060000D01*
X0077754Y0054500D02*
X0077601Y0054699D01*
X0077453Y0054901D01*
X0077310Y0055106D01*
X0077172Y0055315D01*
X0077039Y0055527D01*
X0076911Y0055742D01*
X0076789Y0055960D01*
X0076671Y0056181D01*
X0076559Y0056405D01*
X0076452Y0056631D01*
X0076351Y0056860D01*
X0076255Y0057091D01*
X0076164Y0057325D01*
X0076079Y0057560D01*
X0076000Y0057798D01*
X0075927Y0058037D01*
X0075859Y0058278D01*
X0075797Y0058520D01*
X0075741Y0058764D01*
X0075690Y0059010D01*
X0075646Y0059256D01*
X0075607Y0059503D01*
X0075575Y0059751D01*
X0075548Y0060000D01*
X0075526Y0060255D01*
X0075511Y0060511D01*
X0075503Y0060767D01*
X0075500Y0061024D01*
X0075504Y0061280D01*
X0075514Y0061536D01*
X0075530Y0061792D01*
X0075552Y0062047D01*
X0075581Y0062302D01*
X0075616Y0062556D01*
X0075657Y0062809D01*
X0075704Y0063061D01*
X0075758Y0063311D01*
X0075817Y0063560D01*
X0075883Y0063808D01*
X0075954Y0064054D01*
X0076032Y0064299D01*
X0076115Y0064541D01*
X0076204Y0064781D01*
X0076300Y0065019D01*
X0076401Y0065255D01*
X0076507Y0065488D01*
X0076620Y0065718D01*
X0076738Y0065946D01*
X0076861Y0066170D01*
X0076990Y0066392D01*
X0077124Y0066610D01*
X0077264Y0066825D01*
X0077409Y0067036D01*
X0077559Y0067244D01*
X0077713Y0067448D01*
X0077873Y0067649D01*
X0078038Y0067845D01*
X0078207Y0068037D01*
X0078382Y0068226D01*
X0078560Y0068409D01*
X0078743Y0068589D01*
X0078931Y0068764D01*
X0079122Y0068934D01*
X0079318Y0069099D01*
X0079518Y0069260D01*
X0079721Y0069416D01*
X0079928Y0069566D01*
X0080139Y0069712D01*
X0080354Y0069853D01*
X0080571Y0069988D01*
X0080792Y0070118D01*
X0081016Y0070242D01*
X0081243Y0070361D01*
X0081473Y0070474D01*
X0081706Y0070582D01*
X0081941Y0070684D01*
X0082179Y0070780D01*
X0082418Y0070870D01*
X0082660Y0070955D01*
X0082904Y0071033D01*
X0089096Y0071033D02*
X0089338Y0070955D01*
X0089578Y0070871D01*
X0089816Y0070782D01*
X0090052Y0070687D01*
X0090286Y0070585D01*
X0090517Y0070479D01*
X0090745Y0070366D01*
X0090971Y0070249D01*
X0091194Y0070126D01*
X0091413Y0069997D01*
X0091630Y0069863D01*
X0091843Y0069724D01*
X0092053Y0069580D01*
X0092259Y0069431D01*
X0092461Y0069277D01*
X0092660Y0069118D01*
X0092855Y0068954D01*
X0093046Y0068785D01*
X0093232Y0068612D01*
X0093415Y0068435D01*
X0093593Y0068253D01*
X0093766Y0068067D01*
X0093935Y0067876D01*
X0094099Y0067682D01*
X0094259Y0067484D01*
X0094414Y0067282D01*
X0094563Y0067076D01*
X0094708Y0066867D01*
X0094848Y0066654D01*
X0094982Y0066438D01*
X0095111Y0066218D01*
X0095235Y0065996D01*
X0095354Y0065771D01*
X0095466Y0065543D01*
X0095574Y0065312D01*
X0095675Y0065079D01*
X0095771Y0064843D01*
X0095862Y0064605D01*
X0095946Y0064365D01*
X0096025Y0064123D01*
X0096098Y0063879D01*
X0096164Y0063633D01*
X0096225Y0063386D01*
X0096280Y0063138D01*
X0096329Y0062888D01*
X0096372Y0062637D01*
X0096408Y0062385D01*
X0096439Y0062133D01*
X0096463Y0061879D01*
X0096481Y0061626D01*
X0096493Y0061371D01*
X0096499Y0061117D01*
X0096499Y0060862D01*
X0096493Y0060608D01*
X0096480Y0060354D01*
X0096461Y0060100D01*
X0096436Y0059847D01*
X0096405Y0059594D01*
X0096368Y0059342D01*
X0096325Y0059092D01*
X0096276Y0058842D01*
X0096220Y0058593D01*
X0096159Y0058346D01*
X0096092Y0058101D01*
X0096019Y0057857D01*
X0095940Y0057615D01*
X0095855Y0057376D01*
X0095764Y0057138D01*
X0095667Y0056902D01*
X0095565Y0056669D01*
X0095457Y0056439D01*
X0095344Y0056211D01*
X0095225Y0055986D01*
X0095101Y0055764D01*
X0094971Y0055545D01*
X0094837Y0055329D01*
X0094697Y0055116D01*
X0094551Y0054907D01*
X0094401Y0054702D01*
X0094246Y0054500D01*
X0115000Y0085548D02*
X0115000Y0087127D01*
X0109500Y0087754D02*
X0109500Y0104246D01*
X0115000Y0104873D02*
X0115000Y0106452D01*
X0115000Y0097127D02*
X0115000Y0094873D01*
X0109500Y0104246D02*
X0109699Y0104399D01*
X0109901Y0104547D01*
X0110106Y0104690D01*
X0110315Y0104828D01*
X0110527Y0104961D01*
X0110742Y0105089D01*
X0110960Y0105211D01*
X0111181Y0105329D01*
X0111405Y0105441D01*
X0111631Y0105548D01*
X0111860Y0105649D01*
X0112091Y0105745D01*
X0112325Y0105836D01*
X0112560Y0105921D01*
X0112798Y0106000D01*
X0113037Y0106073D01*
X0113278Y0106141D01*
X0113520Y0106203D01*
X0113764Y0106259D01*
X0114010Y0106310D01*
X0114256Y0106354D01*
X0114503Y0106393D01*
X0114751Y0106425D01*
X0115000Y0106452D01*
X0115255Y0106474D01*
X0115511Y0106489D01*
X0115767Y0106497D01*
X0116024Y0106500D01*
X0116280Y0106496D01*
X0116536Y0106486D01*
X0116792Y0106470D01*
X0117047Y0106448D01*
X0117302Y0106419D01*
X0117556Y0106384D01*
X0117809Y0106343D01*
X0118061Y0106296D01*
X0118311Y0106242D01*
X0118560Y0106183D01*
X0118808Y0106117D01*
X0119054Y0106046D01*
X0119299Y0105968D01*
X0119541Y0105885D01*
X0119781Y0105796D01*
X0120019Y0105700D01*
X0120255Y0105599D01*
X0120488Y0105493D01*
X0120718Y0105380D01*
X0120946Y0105262D01*
X0121170Y0105139D01*
X0121392Y0105010D01*
X0121610Y0104876D01*
X0121825Y0104736D01*
X0122036Y0104591D01*
X0122244Y0104441D01*
X0122448Y0104287D01*
X0122649Y0104127D01*
X0122845Y0103962D01*
X0123037Y0103793D01*
X0123226Y0103618D01*
X0123409Y0103440D01*
X0123589Y0103257D01*
X0123764Y0103069D01*
X0123934Y0102878D01*
X0124099Y0102682D01*
X0124260Y0102482D01*
X0124416Y0102279D01*
X0124566Y0102072D01*
X0124712Y0101861D01*
X0124853Y0101646D01*
X0124988Y0101429D01*
X0125118Y0101208D01*
X0125242Y0100984D01*
X0125361Y0100757D01*
X0125474Y0100527D01*
X0125582Y0100294D01*
X0125684Y0100059D01*
X0125780Y0099821D01*
X0125870Y0099582D01*
X0125955Y0099340D01*
X0126033Y0099096D01*
X0126033Y0092904D02*
X0125955Y0092662D01*
X0125871Y0092422D01*
X0125782Y0092184D01*
X0125687Y0091948D01*
X0125585Y0091714D01*
X0125479Y0091483D01*
X0125366Y0091255D01*
X0125249Y0091029D01*
X0125126Y0090806D01*
X0124997Y0090587D01*
X0124863Y0090370D01*
X0124724Y0090157D01*
X0124580Y0089947D01*
X0124431Y0089741D01*
X0124277Y0089539D01*
X0124118Y0089340D01*
X0123954Y0089145D01*
X0123785Y0088954D01*
X0123612Y0088768D01*
X0123435Y0088585D01*
X0123253Y0088407D01*
X0123067Y0088234D01*
X0122876Y0088065D01*
X0122682Y0087901D01*
X0122484Y0087741D01*
X0122282Y0087586D01*
X0122076Y0087437D01*
X0121867Y0087292D01*
X0121654Y0087152D01*
X0121438Y0087018D01*
X0121218Y0086889D01*
X0120996Y0086765D01*
X0120771Y0086646D01*
X0120543Y0086534D01*
X0120312Y0086426D01*
X0120079Y0086325D01*
X0119843Y0086229D01*
X0119605Y0086138D01*
X0119365Y0086054D01*
X0119123Y0085975D01*
X0118879Y0085902D01*
X0118633Y0085836D01*
X0118386Y0085775D01*
X0118138Y0085720D01*
X0117888Y0085671D01*
X0117637Y0085628D01*
X0117385Y0085592D01*
X0117133Y0085561D01*
X0116879Y0085537D01*
X0116626Y0085519D01*
X0116371Y0085507D01*
X0116117Y0085501D01*
X0115862Y0085501D01*
X0115608Y0085507D01*
X0115354Y0085520D01*
X0115100Y0085539D01*
X0114847Y0085564D01*
X0114594Y0085595D01*
X0114342Y0085632D01*
X0114092Y0085675D01*
X0113842Y0085724D01*
X0113593Y0085780D01*
X0113346Y0085841D01*
X0113101Y0085908D01*
X0112857Y0085981D01*
X0112615Y0086060D01*
X0112376Y0086145D01*
X0112138Y0086236D01*
X0111902Y0086333D01*
X0111669Y0086435D01*
X0111439Y0086543D01*
X0111211Y0086656D01*
X0110986Y0086775D01*
X0110764Y0086899D01*
X0110545Y0087029D01*
X0110329Y0087163D01*
X0110116Y0087303D01*
X0109907Y0087449D01*
X0109702Y0087599D01*
X0109500Y0087754D01*
X0094763Y0092481D02*
X0094312Y0092031D01*
X0094763Y0092481D02*
X0094763Y0093382D01*
X0094312Y0093832D01*
X0093411Y0093832D01*
X0092961Y0093382D01*
X0092961Y0092931D01*
X0093411Y0092031D01*
X0092060Y0092031D01*
X0092060Y0093832D01*
X0094312Y0094977D02*
X0094312Y0095428D01*
X0094763Y0095428D01*
X0094763Y0094977D01*
X0094312Y0094977D01*
X0094312Y0096450D02*
X0094763Y0096450D01*
X0094312Y0096450D02*
X0092511Y0098252D01*
X0092060Y0098252D01*
X0092060Y0096450D01*
X0092060Y0099397D02*
X0094763Y0099397D01*
X0093862Y0099397D02*
X0092961Y0100748D01*
X0093862Y0099397D02*
X0094763Y0100748D01*
X0079763Y0100748D02*
X0078862Y0099397D01*
X0077961Y0100748D01*
X0077060Y0099397D02*
X0079763Y0099397D01*
X0077511Y0098252D02*
X0079312Y0096450D01*
X0079763Y0096450D01*
X0079763Y0095428D02*
X0079312Y0095428D01*
X0079312Y0094977D01*
X0079763Y0094977D01*
X0079763Y0095428D01*
X0079312Y0093832D02*
X0079763Y0093382D01*
X0079763Y0092481D01*
X0079312Y0092031D01*
X0078411Y0092031D02*
X0077961Y0092931D01*
X0077961Y0093382D01*
X0078411Y0093832D01*
X0079312Y0093832D01*
X0078411Y0092031D02*
X0077060Y0092031D01*
X0077060Y0093832D01*
X0077060Y0096450D02*
X0077060Y0098252D01*
X0077511Y0098252D01*
X0064763Y0099397D02*
X0062060Y0099397D01*
X0062060Y0098252D02*
X0062511Y0098252D01*
X0064312Y0096450D01*
X0064763Y0096450D01*
X0064763Y0095428D02*
X0064763Y0094977D01*
X0064312Y0094977D01*
X0064312Y0095428D01*
X0064763Y0095428D01*
X0064312Y0093832D02*
X0063411Y0093832D01*
X0062961Y0093382D01*
X0062961Y0092931D01*
X0063411Y0092031D01*
X0062060Y0092031D01*
X0062060Y0093832D01*
X0064312Y0093832D02*
X0064763Y0093382D01*
X0064763Y0092481D01*
X0064312Y0092031D01*
X0062060Y0096450D02*
X0062060Y0098252D01*
X0063862Y0099397D02*
X0062961Y0100748D01*
X0063862Y0099397D02*
X0064763Y0100748D01*
X0049763Y0100748D02*
X0048862Y0099397D01*
X0047961Y0100748D01*
X0047060Y0099397D02*
X0049763Y0099397D01*
X0049312Y0098252D02*
X0048411Y0098252D01*
X0047961Y0097802D01*
X0047961Y0097351D01*
X0048411Y0096450D01*
X0047060Y0096450D01*
X0047060Y0098252D01*
X0049312Y0098252D02*
X0049763Y0097802D01*
X0049763Y0096901D01*
X0049312Y0096450D01*
X0049312Y0095428D02*
X0049763Y0095428D01*
X0049763Y0094977D01*
X0049312Y0094977D01*
X0049312Y0095428D01*
X0049763Y0093832D02*
X0049763Y0092031D01*
X0049763Y0092931D02*
X0047060Y0092931D01*
X0047961Y0092031D01*
X0028000Y0091528D02*
X0028000Y0090472D01*
X0022000Y0087752D02*
X0022000Y0104248D01*
X0028000Y0101528D02*
X0028000Y0100472D01*
X0052904Y0071033D02*
X0052660Y0070955D01*
X0052418Y0070870D01*
X0052179Y0070780D01*
X0051941Y0070684D01*
X0051706Y0070582D01*
X0051473Y0070474D01*
X0051243Y0070361D01*
X0051016Y0070242D01*
X0050792Y0070118D01*
X0050571Y0069988D01*
X0050354Y0069853D01*
X0050139Y0069712D01*
X0049928Y0069566D01*
X0049721Y0069416D01*
X0049518Y0069260D01*
X0049318Y0069099D01*
X0049122Y0068934D01*
X0048931Y0068764D01*
X0048743Y0068589D01*
X0048560Y0068409D01*
X0048382Y0068226D01*
X0048207Y0068037D01*
X0048038Y0067845D01*
X0047873Y0067649D01*
X0047713Y0067448D01*
X0047559Y0067244D01*
X0047409Y0067036D01*
X0047264Y0066825D01*
X0047124Y0066610D01*
X0046990Y0066392D01*
X0046861Y0066170D01*
X0046738Y0065946D01*
X0046620Y0065718D01*
X0046507Y0065488D01*
X0046401Y0065255D01*
X0046300Y0065019D01*
X0046204Y0064781D01*
X0046115Y0064541D01*
X0046032Y0064299D01*
X0045954Y0064054D01*
X0045883Y0063808D01*
X0045817Y0063560D01*
X0045758Y0063311D01*
X0045704Y0063061D01*
X0045657Y0062809D01*
X0045616Y0062556D01*
X0045581Y0062302D01*
X0045552Y0062047D01*
X0045530Y0061792D01*
X0045514Y0061536D01*
X0045504Y0061280D01*
X0045500Y0061024D01*
X0045503Y0060767D01*
X0045511Y0060511D01*
X0045526Y0060255D01*
X0045548Y0060000D01*
X0054873Y0060000D02*
X0057127Y0060000D01*
X0047754Y0054500D02*
X0047601Y0054699D01*
X0047453Y0054901D01*
X0047310Y0055106D01*
X0047172Y0055315D01*
X0047039Y0055527D01*
X0046911Y0055742D01*
X0046789Y0055960D01*
X0046671Y0056181D01*
X0046559Y0056405D01*
X0046452Y0056631D01*
X0046351Y0056860D01*
X0046255Y0057091D01*
X0046164Y0057325D01*
X0046079Y0057560D01*
X0046000Y0057798D01*
X0045927Y0058037D01*
X0045859Y0058278D01*
X0045797Y0058520D01*
X0045741Y0058764D01*
X0045690Y0059010D01*
X0045646Y0059256D01*
X0045607Y0059503D01*
X0045575Y0059751D01*
X0045548Y0060000D01*
X0059096Y0071033D02*
X0059338Y0070955D01*
X0059578Y0070871D01*
X0059816Y0070782D01*
X0060052Y0070687D01*
X0060286Y0070585D01*
X0060517Y0070479D01*
X0060745Y0070366D01*
X0060971Y0070249D01*
X0061194Y0070126D01*
X0061413Y0069997D01*
X0061630Y0069863D01*
X0061843Y0069724D01*
X0062053Y0069580D01*
X0062259Y0069431D01*
X0062461Y0069277D01*
X0062660Y0069118D01*
X0062855Y0068954D01*
X0063046Y0068785D01*
X0063232Y0068612D01*
X0063415Y0068435D01*
X0063593Y0068253D01*
X0063766Y0068067D01*
X0063935Y0067876D01*
X0064099Y0067682D01*
X0064259Y0067484D01*
X0064414Y0067282D01*
X0064563Y0067076D01*
X0064708Y0066867D01*
X0064848Y0066654D01*
X0064982Y0066438D01*
X0065111Y0066218D01*
X0065235Y0065996D01*
X0065354Y0065771D01*
X0065466Y0065543D01*
X0065574Y0065312D01*
X0065675Y0065079D01*
X0065771Y0064843D01*
X0065862Y0064605D01*
X0065946Y0064365D01*
X0066025Y0064123D01*
X0066098Y0063879D01*
X0066164Y0063633D01*
X0066225Y0063386D01*
X0066280Y0063138D01*
X0066329Y0062888D01*
X0066372Y0062637D01*
X0066408Y0062385D01*
X0066439Y0062133D01*
X0066463Y0061879D01*
X0066481Y0061626D01*
X0066493Y0061371D01*
X0066499Y0061117D01*
X0066499Y0060862D01*
X0066493Y0060608D01*
X0066480Y0060354D01*
X0066461Y0060100D01*
X0066436Y0059847D01*
X0066405Y0059594D01*
X0066368Y0059342D01*
X0066325Y0059092D01*
X0066276Y0058842D01*
X0066220Y0058593D01*
X0066159Y0058346D01*
X0066092Y0058101D01*
X0066019Y0057857D01*
X0065940Y0057615D01*
X0065855Y0057376D01*
X0065764Y0057138D01*
X0065667Y0056902D01*
X0065565Y0056669D01*
X0065457Y0056439D01*
X0065344Y0056211D01*
X0065225Y0055986D01*
X0065101Y0055764D01*
X0064971Y0055545D01*
X0064837Y0055329D01*
X0064697Y0055116D01*
X0064551Y0054907D01*
X0064401Y0054702D01*
X0064246Y0054500D01*
D15*
X0021881Y0087560D02*
X0022159Y0087914D01*
X0022159Y0087913D02*
X0022348Y0087768D01*
X0022542Y0087627D01*
X0022738Y0087491D01*
X0022937Y0087359D01*
X0023140Y0087232D01*
X0023345Y0087110D01*
X0023553Y0086992D01*
X0023764Y0086879D01*
X0023978Y0086772D01*
X0024194Y0086669D01*
X0024006Y0086260D01*
X0023780Y0086367D01*
X0023557Y0086480D01*
X0023337Y0086597D01*
X0023120Y0086720D01*
X0022905Y0086848D01*
X0022694Y0086981D01*
X0022485Y0087118D01*
X0022280Y0087261D01*
X0022078Y0087408D01*
X0021880Y0087560D01*
X0021909Y0087597D01*
X0022107Y0087446D01*
X0022307Y0087299D01*
X0022512Y0087157D01*
X0022719Y0087020D01*
X0022930Y0086888D01*
X0023143Y0086761D01*
X0023360Y0086639D01*
X0023579Y0086521D01*
X0023801Y0086409D01*
X0024026Y0086303D01*
X0024045Y0086345D01*
X0023822Y0086452D01*
X0023601Y0086563D01*
X0023382Y0086680D01*
X0023167Y0086802D01*
X0022954Y0086928D01*
X0022745Y0087060D01*
X0022538Y0087196D01*
X0022335Y0087337D01*
X0022135Y0087483D01*
X0021938Y0087634D01*
X0021967Y0087671D01*
X0022163Y0087521D01*
X0022362Y0087376D01*
X0022564Y0087235D01*
X0022770Y0087099D01*
X0022979Y0086968D01*
X0023190Y0086842D01*
X0023405Y0086721D01*
X0023622Y0086605D01*
X0023842Y0086494D01*
X0024065Y0086388D01*
X0024084Y0086431D01*
X0023863Y0086536D01*
X0023644Y0086647D01*
X0023428Y0086762D01*
X0023214Y0086883D01*
X0023003Y0087008D01*
X0022795Y0087139D01*
X0022591Y0087274D01*
X0022389Y0087414D01*
X0022191Y0087558D01*
X0021996Y0087708D01*
X0022026Y0087744D01*
X0022219Y0087596D01*
X0022417Y0087452D01*
X0022617Y0087313D01*
X0022821Y0087178D01*
X0023028Y0087048D01*
X0023237Y0086924D01*
X0023450Y0086804D01*
X0023665Y0086688D01*
X0023883Y0086578D01*
X0024104Y0086474D01*
X0024124Y0086516D01*
X0023904Y0086621D01*
X0023687Y0086730D01*
X0023473Y0086845D01*
X0023261Y0086964D01*
X0023052Y0087089D01*
X0022846Y0087218D01*
X0022644Y0087352D01*
X0022444Y0087490D01*
X0022248Y0087634D01*
X0022055Y0087781D01*
X0022084Y0087818D01*
X0022276Y0087671D01*
X0022471Y0087529D01*
X0022670Y0087391D01*
X0022872Y0087257D01*
X0023077Y0087129D01*
X0023285Y0087005D01*
X0023495Y0086886D01*
X0023709Y0086772D01*
X0023925Y0086663D01*
X0024143Y0086559D01*
X0024163Y0086602D01*
X0023945Y0086705D01*
X0023730Y0086814D01*
X0023518Y0086927D01*
X0023308Y0087046D01*
X0023101Y0087169D01*
X0022897Y0087297D01*
X0022696Y0087429D01*
X0022499Y0087567D01*
X0022304Y0087709D01*
X0022113Y0087855D01*
X0022142Y0087892D01*
X0022332Y0087746D01*
X0022526Y0087605D01*
X0022723Y0087468D01*
X0022923Y0087336D01*
X0023126Y0087209D01*
X0023332Y0087086D01*
X0023540Y0086968D01*
X0023752Y0086855D01*
X0023966Y0086747D01*
X0024182Y0086644D01*
X0033090Y0086308D02*
X0032898Y0086715D01*
X0032899Y0086714D02*
X0033125Y0086825D01*
X0033349Y0086941D01*
X0033570Y0087063D01*
X0033787Y0087190D01*
X0034002Y0087322D01*
X0034213Y0087460D01*
X0034421Y0087602D01*
X0034625Y0087750D01*
X0034826Y0087903D01*
X0035022Y0088060D01*
X0035215Y0088223D01*
X0035404Y0088390D01*
X0035588Y0088561D01*
X0035769Y0088738D01*
X0035945Y0088918D01*
X0036116Y0089103D01*
X0036283Y0089292D01*
X0036445Y0089485D01*
X0036603Y0089681D01*
X0036755Y0089882D01*
X0036903Y0090086D01*
X0037045Y0090294D01*
X0037183Y0090506D01*
X0037315Y0090720D01*
X0037442Y0090938D01*
X0037563Y0091159D01*
X0037679Y0091383D01*
X0037790Y0091609D01*
X0037894Y0091838D01*
X0037994Y0092070D01*
X0038087Y0092304D01*
X0038175Y0092540D01*
X0038257Y0092779D01*
X0038333Y0093019D01*
X0038403Y0093261D01*
X0038467Y0093505D01*
X0038526Y0093750D01*
X0038578Y0093997D01*
X0038624Y0094244D01*
X0038664Y0094493D01*
X0038698Y0094743D01*
X0038726Y0094993D01*
X0038747Y0095245D01*
X0038763Y0095496D01*
X0038772Y0095748D01*
X0038775Y0096000D01*
X0038772Y0096252D01*
X0038763Y0096504D01*
X0038747Y0096755D01*
X0038726Y0097007D01*
X0038698Y0097257D01*
X0038664Y0097507D01*
X0038624Y0097756D01*
X0038578Y0098003D01*
X0038526Y0098250D01*
X0038467Y0098495D01*
X0038403Y0098739D01*
X0038333Y0098981D01*
X0038257Y0099221D01*
X0038175Y0099460D01*
X0038087Y0099696D01*
X0037994Y0099930D01*
X0037894Y0100162D01*
X0037790Y0100391D01*
X0037679Y0100617D01*
X0037563Y0100841D01*
X0037442Y0101062D01*
X0037315Y0101280D01*
X0037183Y0101494D01*
X0037045Y0101706D01*
X0036903Y0101914D01*
X0036755Y0102118D01*
X0036603Y0102319D01*
X0036445Y0102515D01*
X0036283Y0102708D01*
X0036116Y0102897D01*
X0035945Y0103082D01*
X0035769Y0103262D01*
X0035588Y0103439D01*
X0035404Y0103610D01*
X0035215Y0103777D01*
X0035022Y0103940D01*
X0034826Y0104097D01*
X0034625Y0104250D01*
X0034421Y0104398D01*
X0034213Y0104540D01*
X0034002Y0104678D01*
X0033787Y0104810D01*
X0033570Y0104937D01*
X0033349Y0105059D01*
X0033125Y0105175D01*
X0032899Y0105286D01*
X0033090Y0105692D01*
X0033090Y0105693D01*
X0033327Y0105577D01*
X0033560Y0105456D01*
X0033791Y0105329D01*
X0034018Y0105197D01*
X0034242Y0105058D01*
X0034462Y0104915D01*
X0034679Y0104766D01*
X0034893Y0104612D01*
X0035102Y0104452D01*
X0035307Y0104288D01*
X0035508Y0104118D01*
X0035705Y0103944D01*
X0035898Y0103765D01*
X0036086Y0103581D01*
X0036270Y0103393D01*
X0036449Y0103200D01*
X0036623Y0103003D01*
X0036793Y0102801D01*
X0036957Y0102596D01*
X0037116Y0102386D01*
X0037270Y0102173D01*
X0037419Y0101956D01*
X0037563Y0101736D01*
X0037700Y0101511D01*
X0037833Y0101284D01*
X0037960Y0101054D01*
X0038081Y0100820D01*
X0038196Y0100584D01*
X0038306Y0100344D01*
X0038409Y0100103D01*
X0038507Y0099858D01*
X0038599Y0099612D01*
X0038684Y0099363D01*
X0038764Y0099112D01*
X0038837Y0098859D01*
X0038904Y0098605D01*
X0038965Y0098349D01*
X0039019Y0098091D01*
X0039067Y0097833D01*
X0039109Y0097573D01*
X0039144Y0097312D01*
X0039173Y0097051D01*
X0039196Y0096789D01*
X0039212Y0096526D01*
X0039222Y0096263D01*
X0039225Y0096000D01*
X0039222Y0095737D01*
X0039212Y0095474D01*
X0039196Y0095211D01*
X0039173Y0094949D01*
X0039144Y0094688D01*
X0039109Y0094427D01*
X0039067Y0094167D01*
X0039019Y0093909D01*
X0038965Y0093651D01*
X0038904Y0093395D01*
X0038837Y0093141D01*
X0038764Y0092888D01*
X0038684Y0092637D01*
X0038599Y0092388D01*
X0038507Y0092142D01*
X0038409Y0091897D01*
X0038306Y0091656D01*
X0038196Y0091416D01*
X0038081Y0091180D01*
X0037960Y0090946D01*
X0037833Y0090716D01*
X0037700Y0090489D01*
X0037563Y0090264D01*
X0037419Y0090044D01*
X0037270Y0089827D01*
X0037116Y0089614D01*
X0036957Y0089404D01*
X0036793Y0089199D01*
X0036623Y0088997D01*
X0036449Y0088800D01*
X0036270Y0088607D01*
X0036086Y0088419D01*
X0035898Y0088235D01*
X0035705Y0088056D01*
X0035508Y0087882D01*
X0035307Y0087712D01*
X0035102Y0087548D01*
X0034893Y0087388D01*
X0034679Y0087234D01*
X0034462Y0087085D01*
X0034242Y0086942D01*
X0034018Y0086803D01*
X0033791Y0086671D01*
X0033560Y0086544D01*
X0033327Y0086423D01*
X0033090Y0086307D01*
X0033070Y0086350D01*
X0033306Y0086465D01*
X0033538Y0086585D01*
X0033768Y0086712D01*
X0033994Y0086844D01*
X0034217Y0086981D01*
X0034436Y0087124D01*
X0034652Y0087273D01*
X0034865Y0087426D01*
X0035073Y0087585D01*
X0035277Y0087749D01*
X0035478Y0087917D01*
X0035674Y0088091D01*
X0035866Y0088269D01*
X0036053Y0088452D01*
X0036236Y0088640D01*
X0036414Y0088832D01*
X0036588Y0089028D01*
X0036756Y0089229D01*
X0036920Y0089433D01*
X0037079Y0089642D01*
X0037232Y0089854D01*
X0037380Y0090070D01*
X0037523Y0090290D01*
X0037660Y0090513D01*
X0037792Y0090739D01*
X0037918Y0090969D01*
X0038039Y0091201D01*
X0038154Y0091437D01*
X0038263Y0091675D01*
X0038366Y0091916D01*
X0038463Y0092159D01*
X0038554Y0092404D01*
X0038640Y0092652D01*
X0038719Y0092902D01*
X0038792Y0093153D01*
X0038858Y0093407D01*
X0038919Y0093662D01*
X0038973Y0093918D01*
X0039021Y0094175D01*
X0039063Y0094434D01*
X0039098Y0094694D01*
X0039127Y0094954D01*
X0039149Y0095215D01*
X0039165Y0095476D01*
X0039175Y0095738D01*
X0039178Y0096000D01*
X0039175Y0096262D01*
X0039165Y0096524D01*
X0039149Y0096785D01*
X0039127Y0097046D01*
X0039098Y0097306D01*
X0039063Y0097566D01*
X0039021Y0097825D01*
X0038973Y0098082D01*
X0038919Y0098338D01*
X0038858Y0098593D01*
X0038792Y0098847D01*
X0038719Y0099098D01*
X0038640Y0099348D01*
X0038554Y0099596D01*
X0038463Y0099841D01*
X0038366Y0100084D01*
X0038263Y0100325D01*
X0038154Y0100563D01*
X0038039Y0100799D01*
X0037918Y0101031D01*
X0037792Y0101261D01*
X0037660Y0101487D01*
X0037523Y0101710D01*
X0037380Y0101930D01*
X0037232Y0102146D01*
X0037079Y0102358D01*
X0036920Y0102567D01*
X0036756Y0102771D01*
X0036588Y0102972D01*
X0036414Y0103168D01*
X0036236Y0103360D01*
X0036053Y0103548D01*
X0035866Y0103731D01*
X0035674Y0103909D01*
X0035478Y0104083D01*
X0035277Y0104251D01*
X0035073Y0104415D01*
X0034865Y0104574D01*
X0034652Y0104727D01*
X0034436Y0104876D01*
X0034217Y0105019D01*
X0033994Y0105156D01*
X0033768Y0105288D01*
X0033538Y0105415D01*
X0033306Y0105535D01*
X0033070Y0105650D01*
X0033050Y0105608D01*
X0033285Y0105493D01*
X0033516Y0105373D01*
X0033745Y0105247D01*
X0033970Y0105116D01*
X0034192Y0104979D01*
X0034410Y0104837D01*
X0034625Y0104689D01*
X0034837Y0104536D01*
X0035044Y0104378D01*
X0035248Y0104215D01*
X0035447Y0104047D01*
X0035642Y0103874D01*
X0035833Y0103697D01*
X0036020Y0103514D01*
X0036202Y0103328D01*
X0036380Y0103137D01*
X0036552Y0102941D01*
X0036720Y0102742D01*
X0036883Y0102538D01*
X0037041Y0102330D01*
X0037194Y0102119D01*
X0037341Y0101904D01*
X0037483Y0101685D01*
X0037620Y0101463D01*
X0037751Y0101238D01*
X0037877Y0101009D01*
X0037997Y0100778D01*
X0038111Y0100543D01*
X0038220Y0100306D01*
X0038323Y0100066D01*
X0038419Y0099824D01*
X0038510Y0099580D01*
X0038595Y0099333D01*
X0038674Y0099085D01*
X0038746Y0098834D01*
X0038813Y0098582D01*
X0038873Y0098328D01*
X0038927Y0098073D01*
X0038975Y0097817D01*
X0039016Y0097559D01*
X0039051Y0097301D01*
X0039080Y0097042D01*
X0039102Y0096782D01*
X0039118Y0096521D01*
X0039128Y0096261D01*
X0039131Y0096000D01*
X0039128Y0095739D01*
X0039118Y0095479D01*
X0039102Y0095218D01*
X0039080Y0094958D01*
X0039051Y0094699D01*
X0039016Y0094441D01*
X0038975Y0094183D01*
X0038927Y0093927D01*
X0038873Y0093672D01*
X0038813Y0093418D01*
X0038746Y0093166D01*
X0038674Y0092915D01*
X0038595Y0092667D01*
X0038510Y0092420D01*
X0038419Y0092176D01*
X0038323Y0091934D01*
X0038220Y0091694D01*
X0038111Y0091457D01*
X0037997Y0091222D01*
X0037877Y0090991D01*
X0037751Y0090762D01*
X0037620Y0090537D01*
X0037483Y0090315D01*
X0037341Y0090096D01*
X0037194Y0089881D01*
X0037041Y0089670D01*
X0036883Y0089462D01*
X0036720Y0089258D01*
X0036552Y0089059D01*
X0036380Y0088863D01*
X0036202Y0088672D01*
X0036020Y0088486D01*
X0035833Y0088303D01*
X0035642Y0088126D01*
X0035447Y0087953D01*
X0035248Y0087785D01*
X0035044Y0087622D01*
X0034837Y0087464D01*
X0034625Y0087311D01*
X0034410Y0087163D01*
X0034192Y0087021D01*
X0033970Y0086884D01*
X0033745Y0086753D01*
X0033516Y0086627D01*
X0033285Y0086507D01*
X0033050Y0086392D01*
X0033030Y0086435D01*
X0033264Y0086549D01*
X0033494Y0086668D01*
X0033722Y0086794D01*
X0033946Y0086925D01*
X0034167Y0087061D01*
X0034384Y0087203D01*
X0034598Y0087349D01*
X0034809Y0087502D01*
X0035015Y0087659D01*
X0035218Y0087821D01*
X0035416Y0087989D01*
X0035611Y0088161D01*
X0035801Y0088337D01*
X0035987Y0088519D01*
X0036168Y0088705D01*
X0036345Y0088895D01*
X0036517Y0089090D01*
X0036684Y0089288D01*
X0036846Y0089491D01*
X0037003Y0089698D01*
X0037155Y0089908D01*
X0037302Y0090122D01*
X0037443Y0090340D01*
X0037580Y0090561D01*
X0037710Y0090785D01*
X0037835Y0091013D01*
X0037955Y0091243D01*
X0038069Y0091477D01*
X0038177Y0091713D01*
X0038279Y0091952D01*
X0038375Y0092193D01*
X0038466Y0092436D01*
X0038550Y0092682D01*
X0038629Y0092929D01*
X0038701Y0093178D01*
X0038767Y0093430D01*
X0038827Y0093682D01*
X0038881Y0093936D01*
X0038928Y0094191D01*
X0038970Y0094448D01*
X0039004Y0094705D01*
X0039033Y0094963D01*
X0039055Y0095222D01*
X0039071Y0095481D01*
X0039081Y0095740D01*
X0039084Y0096000D01*
X0039081Y0096260D01*
X0039071Y0096519D01*
X0039055Y0096778D01*
X0039033Y0097037D01*
X0039004Y0097295D01*
X0038970Y0097552D01*
X0038928Y0097809D01*
X0038881Y0098064D01*
X0038827Y0098318D01*
X0038767Y0098570D01*
X0038701Y0098822D01*
X0038629Y0099071D01*
X0038550Y0099318D01*
X0038466Y0099564D01*
X0038375Y0099807D01*
X0038279Y0100048D01*
X0038177Y0100287D01*
X0038069Y0100523D01*
X0037955Y0100757D01*
X0037835Y0100987D01*
X0037710Y0101215D01*
X0037580Y0101439D01*
X0037443Y0101660D01*
X0037302Y0101878D01*
X0037155Y0102092D01*
X0037003Y0102302D01*
X0036846Y0102509D01*
X0036684Y0102712D01*
X0036517Y0102910D01*
X0036345Y0103105D01*
X0036168Y0103295D01*
X0035987Y0103481D01*
X0035801Y0103663D01*
X0035611Y0103839D01*
X0035416Y0104011D01*
X0035218Y0104179D01*
X0035015Y0104341D01*
X0034809Y0104498D01*
X0034598Y0104651D01*
X0034384Y0104797D01*
X0034167Y0104939D01*
X0033946Y0105075D01*
X0033722Y0105206D01*
X0033494Y0105332D01*
X0033264Y0105451D01*
X0033030Y0105565D01*
X0033010Y0105523D01*
X0033243Y0105409D01*
X0033472Y0105290D01*
X0033698Y0105165D01*
X0033922Y0105035D01*
X0034142Y0104899D01*
X0034358Y0104758D01*
X0034571Y0104612D01*
X0034781Y0104461D01*
X0034986Y0104304D01*
X0035188Y0104142D01*
X0035386Y0103976D01*
X0035579Y0103805D01*
X0035769Y0103629D01*
X0035954Y0103448D01*
X0036134Y0103263D01*
X0036310Y0103073D01*
X0036481Y0102880D01*
X0036647Y0102682D01*
X0036809Y0102480D01*
X0036965Y0102274D01*
X0037117Y0102065D01*
X0037263Y0101852D01*
X0037404Y0101635D01*
X0037539Y0101415D01*
X0037669Y0101191D01*
X0037794Y0100965D01*
X0037913Y0100735D01*
X0038026Y0100503D01*
X0038134Y0100268D01*
X0038236Y0100030D01*
X0038332Y0099790D01*
X0038422Y0099548D01*
X0038506Y0099304D01*
X0038584Y0099057D01*
X0038656Y0098809D01*
X0038722Y0098559D01*
X0038781Y0098308D01*
X0038835Y0098055D01*
X0038882Y0097801D01*
X0038923Y0097545D01*
X0038958Y0097289D01*
X0038986Y0097032D01*
X0039008Y0096775D01*
X0039024Y0096517D01*
X0039034Y0096258D01*
X0039037Y0096000D01*
X0039034Y0095742D01*
X0039024Y0095483D01*
X0039008Y0095225D01*
X0038986Y0094968D01*
X0038958Y0094711D01*
X0038923Y0094455D01*
X0038882Y0094199D01*
X0038835Y0093945D01*
X0038781Y0093692D01*
X0038722Y0093441D01*
X0038656Y0093191D01*
X0038584Y0092943D01*
X0038506Y0092696D01*
X0038422Y0092452D01*
X0038332Y0092210D01*
X0038236Y0091970D01*
X0038134Y0091732D01*
X0038026Y0091497D01*
X0037913Y0091265D01*
X0037794Y0091035D01*
X0037669Y0090809D01*
X0037539Y0090585D01*
X0037404Y0090365D01*
X0037263Y0090148D01*
X0037117Y0089935D01*
X0036965Y0089726D01*
X0036809Y0089520D01*
X0036647Y0089318D01*
X0036481Y0089120D01*
X0036310Y0088927D01*
X0036134Y0088737D01*
X0035954Y0088552D01*
X0035769Y0088371D01*
X0035579Y0088195D01*
X0035386Y0088024D01*
X0035188Y0087858D01*
X0034986Y0087696D01*
X0034781Y0087539D01*
X0034571Y0087388D01*
X0034358Y0087242D01*
X0034142Y0087101D01*
X0033922Y0086965D01*
X0033698Y0086835D01*
X0033472Y0086710D01*
X0033243Y0086591D01*
X0033010Y0086477D01*
X0032990Y0086520D01*
X0033222Y0086633D01*
X0033450Y0086751D01*
X0033675Y0086876D01*
X0033898Y0087005D01*
X0034117Y0087140D01*
X0034332Y0087281D01*
X0034544Y0087426D01*
X0034753Y0087577D01*
X0034958Y0087733D01*
X0035158Y0087894D01*
X0035355Y0088060D01*
X0035548Y0088230D01*
X0035736Y0088406D01*
X0035920Y0088585D01*
X0036100Y0088770D01*
X0036275Y0088958D01*
X0036446Y0089151D01*
X0036611Y0089348D01*
X0036772Y0089549D01*
X0036928Y0089754D01*
X0037078Y0089962D01*
X0037224Y0090175D01*
X0037364Y0090390D01*
X0037499Y0090609D01*
X0037629Y0090832D01*
X0037753Y0091057D01*
X0037871Y0091286D01*
X0037984Y0091517D01*
X0038091Y0091751D01*
X0038192Y0091988D01*
X0038288Y0092227D01*
X0038377Y0092468D01*
X0038461Y0092711D01*
X0038539Y0092956D01*
X0038610Y0093204D01*
X0038676Y0093452D01*
X0038735Y0093703D01*
X0038789Y0093955D01*
X0038836Y0094207D01*
X0038877Y0094462D01*
X0038911Y0094717D01*
X0038940Y0094972D01*
X0038962Y0095229D01*
X0038977Y0095486D01*
X0038987Y0095743D01*
X0038990Y0096000D01*
X0038987Y0096257D01*
X0038977Y0096514D01*
X0038962Y0096771D01*
X0038940Y0097028D01*
X0038911Y0097283D01*
X0038877Y0097538D01*
X0038836Y0097793D01*
X0038789Y0098045D01*
X0038735Y0098297D01*
X0038676Y0098548D01*
X0038610Y0098796D01*
X0038539Y0099044D01*
X0038461Y0099289D01*
X0038377Y0099532D01*
X0038288Y0099773D01*
X0038192Y0100012D01*
X0038091Y0100249D01*
X0037984Y0100483D01*
X0037871Y0100714D01*
X0037753Y0100943D01*
X0037629Y0101168D01*
X0037499Y0101391D01*
X0037364Y0101610D01*
X0037224Y0101825D01*
X0037078Y0102038D01*
X0036928Y0102246D01*
X0036772Y0102451D01*
X0036611Y0102652D01*
X0036446Y0102849D01*
X0036275Y0103042D01*
X0036100Y0103230D01*
X0035920Y0103415D01*
X0035736Y0103594D01*
X0035548Y0103770D01*
X0035355Y0103940D01*
X0035158Y0104106D01*
X0034958Y0104267D01*
X0034753Y0104423D01*
X0034544Y0104574D01*
X0034332Y0104719D01*
X0034117Y0104860D01*
X0033898Y0104995D01*
X0033675Y0105124D01*
X0033450Y0105249D01*
X0033222Y0105367D01*
X0032990Y0105480D01*
X0032970Y0105438D01*
X0033201Y0105325D01*
X0033428Y0105207D01*
X0033652Y0105084D01*
X0033873Y0104954D01*
X0034092Y0104820D01*
X0034306Y0104680D01*
X0034517Y0104535D01*
X0034725Y0104385D01*
X0034929Y0104230D01*
X0035129Y0104070D01*
X0035325Y0103905D01*
X0035516Y0103735D01*
X0035704Y0103560D01*
X0035887Y0103381D01*
X0036066Y0103198D01*
X0036240Y0103010D01*
X0036410Y0102818D01*
X0036575Y0102622D01*
X0036735Y0102422D01*
X0036890Y0102218D01*
X0037040Y0102010D01*
X0037185Y0101799D01*
X0037324Y0101584D01*
X0037459Y0101366D01*
X0037588Y0101145D01*
X0037711Y0100920D01*
X0037829Y0100693D01*
X0037941Y0100463D01*
X0038048Y0100230D01*
X0038149Y0099994D01*
X0038244Y0099757D01*
X0038333Y0099516D01*
X0038416Y0099274D01*
X0038494Y0099030D01*
X0038565Y0098784D01*
X0038630Y0098536D01*
X0038690Y0098287D01*
X0038743Y0098036D01*
X0038789Y0097784D01*
X0038830Y0097532D01*
X0038865Y0097278D01*
X0038893Y0097023D01*
X0038915Y0096768D01*
X0038930Y0096512D01*
X0038940Y0096256D01*
X0038943Y0096000D01*
X0038940Y0095744D01*
X0038930Y0095488D01*
X0038915Y0095232D01*
X0038893Y0094977D01*
X0038865Y0094722D01*
X0038830Y0094468D01*
X0038789Y0094216D01*
X0038743Y0093964D01*
X0038690Y0093713D01*
X0038630Y0093464D01*
X0038565Y0093216D01*
X0038494Y0092970D01*
X0038416Y0092726D01*
X0038333Y0092484D01*
X0038244Y0092243D01*
X0038149Y0092006D01*
X0038048Y0091770D01*
X0037941Y0091537D01*
X0037829Y0091307D01*
X0037711Y0091080D01*
X0037588Y0090855D01*
X0037459Y0090634D01*
X0037324Y0090416D01*
X0037185Y0090201D01*
X0037040Y0089990D01*
X0036890Y0089782D01*
X0036735Y0089578D01*
X0036575Y0089378D01*
X0036410Y0089182D01*
X0036240Y0088990D01*
X0036066Y0088802D01*
X0035887Y0088619D01*
X0035704Y0088440D01*
X0035516Y0088265D01*
X0035325Y0088095D01*
X0035129Y0087930D01*
X0034929Y0087770D01*
X0034725Y0087615D01*
X0034517Y0087465D01*
X0034306Y0087320D01*
X0034092Y0087180D01*
X0033873Y0087046D01*
X0033652Y0086916D01*
X0033428Y0086793D01*
X0033201Y0086675D01*
X0032970Y0086562D01*
X0032950Y0086605D01*
X0033179Y0086717D01*
X0033406Y0086834D01*
X0033629Y0086957D01*
X0033849Y0087086D01*
X0034066Y0087220D01*
X0034280Y0087359D01*
X0034490Y0087503D01*
X0034697Y0087653D01*
X0034900Y0087807D01*
X0035099Y0087967D01*
X0035294Y0088131D01*
X0035485Y0088300D01*
X0035672Y0088474D01*
X0035854Y0088652D01*
X0036032Y0088835D01*
X0036206Y0089021D01*
X0036374Y0089213D01*
X0036539Y0089408D01*
X0036698Y0089607D01*
X0036852Y0089810D01*
X0037002Y0090017D01*
X0037146Y0090227D01*
X0037285Y0090441D01*
X0037418Y0090658D01*
X0037547Y0090878D01*
X0037670Y0091102D01*
X0037787Y0091328D01*
X0037899Y0091557D01*
X0038005Y0091789D01*
X0038105Y0092024D01*
X0038200Y0092260D01*
X0038289Y0092499D01*
X0038372Y0092741D01*
X0038449Y0092984D01*
X0038520Y0093229D01*
X0038585Y0093475D01*
X0038644Y0093723D01*
X0038696Y0093973D01*
X0038743Y0094224D01*
X0038784Y0094475D01*
X0038818Y0094728D01*
X0038846Y0094982D01*
X0038868Y0095236D01*
X0038883Y0095490D01*
X0038893Y0095745D01*
X0038896Y0096000D01*
X0038893Y0096255D01*
X0038883Y0096510D01*
X0038868Y0096764D01*
X0038846Y0097018D01*
X0038818Y0097272D01*
X0038784Y0097525D01*
X0038743Y0097776D01*
X0038696Y0098027D01*
X0038644Y0098277D01*
X0038585Y0098525D01*
X0038520Y0098771D01*
X0038449Y0099016D01*
X0038372Y0099259D01*
X0038289Y0099501D01*
X0038200Y0099740D01*
X0038105Y0099976D01*
X0038005Y0100211D01*
X0037899Y0100443D01*
X0037787Y0100672D01*
X0037670Y0100898D01*
X0037547Y0101122D01*
X0037418Y0101342D01*
X0037285Y0101559D01*
X0037146Y0101773D01*
X0037002Y0101983D01*
X0036852Y0102190D01*
X0036698Y0102393D01*
X0036539Y0102592D01*
X0036374Y0102787D01*
X0036206Y0102979D01*
X0036032Y0103165D01*
X0035854Y0103348D01*
X0035672Y0103526D01*
X0035485Y0103700D01*
X0035294Y0103869D01*
X0035099Y0104033D01*
X0034900Y0104193D01*
X0034697Y0104347D01*
X0034490Y0104497D01*
X0034280Y0104641D01*
X0034066Y0104780D01*
X0033849Y0104914D01*
X0033629Y0105043D01*
X0033406Y0105166D01*
X0033179Y0105283D01*
X0032950Y0105395D01*
X0032930Y0105353D01*
X0033158Y0105241D01*
X0033384Y0105124D01*
X0033606Y0105002D01*
X0033825Y0104874D01*
X0034041Y0104740D01*
X0034254Y0104602D01*
X0034463Y0104458D01*
X0034669Y0104309D01*
X0034871Y0104156D01*
X0035069Y0103997D01*
X0035263Y0103833D01*
X0035453Y0103665D01*
X0035639Y0103492D01*
X0035821Y0103315D01*
X0035998Y0103133D01*
X0036171Y0102947D01*
X0036339Y0102757D01*
X0036502Y0102562D01*
X0036661Y0102364D01*
X0036814Y0102162D01*
X0036963Y0101956D01*
X0037107Y0101747D01*
X0037245Y0101534D01*
X0037378Y0101318D01*
X0037506Y0101099D01*
X0037628Y0100876D01*
X0037745Y0100651D01*
X0037856Y0100423D01*
X0037962Y0100192D01*
X0038062Y0099958D01*
X0038156Y0099723D01*
X0038245Y0099485D01*
X0038327Y0099245D01*
X0038404Y0099003D01*
X0038475Y0098759D01*
X0038539Y0098513D01*
X0038598Y0098266D01*
X0038650Y0098018D01*
X0038697Y0097768D01*
X0038737Y0097518D01*
X0038771Y0097266D01*
X0038799Y0097014D01*
X0038821Y0096761D01*
X0038837Y0096508D01*
X0038846Y0096254D01*
X0038849Y0096000D01*
X0038846Y0095746D01*
X0038837Y0095492D01*
X0038821Y0095239D01*
X0038799Y0094986D01*
X0038771Y0094734D01*
X0038737Y0094482D01*
X0038697Y0094232D01*
X0038650Y0093982D01*
X0038598Y0093734D01*
X0038539Y0093487D01*
X0038475Y0093241D01*
X0038404Y0092997D01*
X0038327Y0092755D01*
X0038245Y0092515D01*
X0038156Y0092277D01*
X0038062Y0092042D01*
X0037962Y0091808D01*
X0037856Y0091577D01*
X0037745Y0091349D01*
X0037628Y0091124D01*
X0037506Y0090901D01*
X0037378Y0090682D01*
X0037245Y0090466D01*
X0037107Y0090253D01*
X0036963Y0090044D01*
X0036814Y0089838D01*
X0036661Y0089636D01*
X0036502Y0089438D01*
X0036339Y0089243D01*
X0036171Y0089053D01*
X0035998Y0088867D01*
X0035821Y0088685D01*
X0035639Y0088508D01*
X0035453Y0088335D01*
X0035263Y0088167D01*
X0035069Y0088003D01*
X0034871Y0087844D01*
X0034669Y0087691D01*
X0034463Y0087542D01*
X0034254Y0087398D01*
X0034041Y0087260D01*
X0033825Y0087126D01*
X0033606Y0086998D01*
X0033384Y0086876D01*
X0033158Y0086759D01*
X0032930Y0086647D01*
X0032910Y0086690D01*
X0033137Y0086801D01*
X0033362Y0086917D01*
X0033583Y0087039D01*
X0033801Y0087167D01*
X0034016Y0087299D01*
X0034228Y0087437D01*
X0034436Y0087580D01*
X0034641Y0087728D01*
X0034842Y0087882D01*
X0035039Y0088040D01*
X0035233Y0088202D01*
X0035422Y0088370D01*
X0035607Y0088542D01*
X0035788Y0088718D01*
X0035964Y0088899D01*
X0036136Y0089085D01*
X0036303Y0089274D01*
X0036466Y0089467D01*
X0036624Y0089665D01*
X0036777Y0089866D01*
X0036925Y0090071D01*
X0037068Y0090279D01*
X0037205Y0090491D01*
X0037338Y0090706D01*
X0037465Y0090925D01*
X0037587Y0091146D01*
X0037703Y0091370D01*
X0037814Y0091598D01*
X0037919Y0091827D01*
X0038019Y0092060D01*
X0038112Y0092294D01*
X0038200Y0092531D01*
X0038283Y0092770D01*
X0038359Y0093011D01*
X0038429Y0093254D01*
X0038494Y0093498D01*
X0038552Y0093744D01*
X0038604Y0093991D01*
X0038650Y0094240D01*
X0038691Y0094489D01*
X0038725Y0094740D01*
X0038752Y0094991D01*
X0038774Y0095243D01*
X0038790Y0095495D01*
X0038799Y0095747D01*
X0038802Y0096000D01*
X0038799Y0096253D01*
X0038790Y0096505D01*
X0038774Y0096757D01*
X0038752Y0097009D01*
X0038725Y0097260D01*
X0038691Y0097511D01*
X0038650Y0097760D01*
X0038604Y0098009D01*
X0038552Y0098256D01*
X0038494Y0098502D01*
X0038429Y0098746D01*
X0038359Y0098989D01*
X0038283Y0099230D01*
X0038200Y0099469D01*
X0038112Y0099706D01*
X0038019Y0099940D01*
X0037919Y0100173D01*
X0037814Y0100402D01*
X0037703Y0100630D01*
X0037587Y0100854D01*
X0037465Y0101075D01*
X0037338Y0101294D01*
X0037205Y0101509D01*
X0037068Y0101721D01*
X0036925Y0101929D01*
X0036777Y0102134D01*
X0036624Y0102335D01*
X0036466Y0102533D01*
X0036303Y0102726D01*
X0036136Y0102915D01*
X0035964Y0103101D01*
X0035788Y0103282D01*
X0035607Y0103458D01*
X0035422Y0103630D01*
X0035233Y0103798D01*
X0035039Y0103960D01*
X0034842Y0104118D01*
X0034641Y0104272D01*
X0034436Y0104420D01*
X0034228Y0104563D01*
X0034016Y0104701D01*
X0033801Y0104833D01*
X0033583Y0104961D01*
X0033362Y0105083D01*
X0033137Y0105199D01*
X0032910Y0105310D01*
X0023910Y0105694D02*
X0024101Y0105287D01*
X0024101Y0105288D02*
X0023895Y0105187D01*
X0023692Y0105083D01*
X0023491Y0104973D01*
X0023292Y0104859D01*
X0023096Y0104741D01*
X0022903Y0104619D01*
X0022713Y0104492D01*
X0022525Y0104361D01*
X0022340Y0104226D01*
X0022159Y0104087D01*
X0021881Y0104440D01*
X0021880Y0104440D01*
X0022070Y0104586D01*
X0022263Y0104727D01*
X0022459Y0104864D01*
X0022658Y0104996D01*
X0022860Y0105124D01*
X0023064Y0105247D01*
X0023272Y0105366D01*
X0023482Y0105481D01*
X0023694Y0105590D01*
X0023909Y0105695D01*
X0023929Y0105652D01*
X0023715Y0105548D01*
X0023504Y0105439D01*
X0023295Y0105325D01*
X0023088Y0105207D01*
X0022884Y0105084D01*
X0022683Y0104957D01*
X0022485Y0104825D01*
X0022290Y0104689D01*
X0022098Y0104548D01*
X0021909Y0104403D01*
X0021938Y0104366D01*
X0022126Y0104510D01*
X0022317Y0104650D01*
X0022512Y0104786D01*
X0022709Y0104917D01*
X0022909Y0105044D01*
X0023112Y0105166D01*
X0023317Y0105284D01*
X0023526Y0105397D01*
X0023736Y0105506D01*
X0023949Y0105610D01*
X0023969Y0105567D01*
X0023757Y0105464D01*
X0023548Y0105356D01*
X0023340Y0105243D01*
X0023136Y0105126D01*
X0022934Y0105004D01*
X0022735Y0104878D01*
X0022538Y0104747D01*
X0022345Y0104612D01*
X0022155Y0104473D01*
X0021967Y0104329D01*
X0021996Y0104292D01*
X0022183Y0104435D01*
X0022372Y0104574D01*
X0022565Y0104708D01*
X0022760Y0104838D01*
X0022958Y0104964D01*
X0023160Y0105085D01*
X0023363Y0105202D01*
X0023569Y0105314D01*
X0023778Y0105422D01*
X0023989Y0105525D01*
X0024009Y0105482D01*
X0023799Y0105380D01*
X0023591Y0105273D01*
X0023386Y0105161D01*
X0023183Y0105045D01*
X0022983Y0104924D01*
X0022786Y0104799D01*
X0022591Y0104670D01*
X0022400Y0104536D01*
X0022211Y0104398D01*
X0022026Y0104256D01*
X0022055Y0104219D01*
X0022239Y0104360D01*
X0022427Y0104498D01*
X0022618Y0104631D01*
X0022811Y0104760D01*
X0023008Y0104884D01*
X0023207Y0105004D01*
X0023409Y0105120D01*
X0023613Y0105231D01*
X0023820Y0105338D01*
X0024029Y0105440D01*
X0024049Y0105397D01*
X0023841Y0105296D01*
X0023635Y0105190D01*
X0023432Y0105079D01*
X0023231Y0104964D01*
X0023033Y0104844D01*
X0022837Y0104720D01*
X0022644Y0104592D01*
X0022454Y0104459D01*
X0022267Y0104323D01*
X0022084Y0104182D01*
X0022113Y0104145D01*
X0022296Y0104285D01*
X0022482Y0104421D01*
X0022671Y0104553D01*
X0022863Y0104681D01*
X0023057Y0104804D01*
X0023255Y0104923D01*
X0023455Y0105038D01*
X0023657Y0105148D01*
X0023862Y0105254D01*
X0024069Y0105355D01*
X0024089Y0105312D01*
X0023883Y0105212D01*
X0023679Y0105106D01*
X0023478Y0104997D01*
X0023279Y0104883D01*
X0023082Y0104764D01*
X0022888Y0104641D01*
X0022697Y0104514D01*
X0022509Y0104383D01*
X0022324Y0104247D01*
X0022142Y0104108D01*
M02*
