%
M48
M72
T01C0.03000
T02C0.03200
T03C0.03937
T04C0.04724
T05C0.12598
%
T01
X48500Y86157
X63500Y86157
X78500Y86157
X93500Y86157
X93500Y105843
X78500Y105843
X63500Y105843
X48500Y105843
T02
X28500Y106000
X28500Y96000
X28500Y86000
X51000Y61000
X56000Y68500
X61000Y61000
X81000Y61000
X86000Y68500
X91000Y61000
X116000Y91000
X123500Y96000
X116000Y101000
T03
X120331Y65921
X120331Y56079
X93421Y21669
X83579Y21669
X58421Y21669
X48579Y21669
X21669Y56079
X21669Y65921
X36079Y140331
X45921Y140331
X73736Y140331
X83579Y140331
X93421Y140331
X103264Y140331
T04
X109563Y131669
X52220Y131669
X30331Y72220
X42280Y30331
X77280Y30331
X111669Y49780
T05
X16000Y16000
X123500Y16000
X16000Y141000
X123500Y143500
M30
