G75*
%MOIN*%
%OFA0B0*%
%FSLAX25Y25*%
%IPPOS*%
%LPD*%
%AMOC8*
5,1,8,0,0,1.08239X$1,22.5*
%
%ADD10R,0.05937X0.05937*%
%ADD11C,0.06600*%
%ADD12OC8,0.05200*%
%ADD13C,0.05200*%
%ADD14C,0.02400*%
%ADD15C,0.03200*%
%ADD16C,0.06600*%
%ADD17C,0.07000*%
%ADD18C,0.01600*%
D10*
X0048579Y0021669D03*
X0058421Y0021669D03*
X0083579Y0021669D03*
X0093421Y0021669D03*
X0120331Y0056079D03*
X0120331Y0065921D03*
X0103264Y0140331D03*
X0093421Y0140331D03*
X0083579Y0140331D03*
X0073736Y0140331D03*
X0045921Y0140331D03*
X0036079Y0140331D03*
X0021669Y0065921D03*
X0021669Y0056079D03*
D11*
X0048500Y0086157D03*
X0063500Y0086157D03*
X0078500Y0086157D03*
X0093500Y0086157D03*
X0093500Y0105843D03*
X0078500Y0105843D03*
X0063500Y0105843D03*
X0048500Y0105843D03*
D12*
X0056000Y0068500D03*
X0051000Y0061000D03*
X0061000Y0061000D03*
X0081000Y0061000D03*
X0086000Y0068500D03*
X0091000Y0061000D03*
X0116000Y0091000D03*
X0123500Y0096000D03*
X0116000Y0101000D03*
D13*
X0031100Y0096000D02*
X0025900Y0096000D01*
X0025900Y0106000D02*
X0031100Y0106000D01*
X0031100Y0086000D02*
X0025900Y0086000D01*
D14*
X0048500Y0105843D02*
X0048500Y0116000D01*
X0072831Y0140331D01*
X0073736Y0140331D01*
X0083579Y0140331D02*
X0083579Y0136079D01*
X0063500Y0116000D01*
X0063500Y0105843D01*
X0078500Y0105843D02*
X0078500Y0116000D01*
X0093421Y0130921D01*
X0093421Y0140331D01*
X0102001Y0134802D02*
X0102001Y0124501D01*
X0093500Y0116000D01*
X0093500Y0105843D01*
X0093500Y0086157D02*
X0095843Y0086157D01*
X0103500Y0078500D01*
X0121000Y0078500D01*
X0126000Y0083500D01*
X0126000Y0093500D01*
X0123500Y0096000D01*
X0102001Y0134802D02*
X0103264Y0136065D01*
X0103264Y0140331D01*
X0078500Y0086157D02*
X0078500Y0076000D01*
X0086000Y0068500D01*
X0063500Y0076000D02*
X0056000Y0068500D01*
X0063500Y0076000D02*
X0063500Y0086157D01*
D15*
X0048500Y0086157D02*
X0038657Y0096000D01*
X0028500Y0096000D01*
D16*
X0061000Y0061000D02*
X0061000Y0024248D01*
X0058421Y0021669D01*
X0091000Y0033500D02*
X0093500Y0031000D01*
X0093500Y0021748D01*
X0093421Y0021669D01*
X0091000Y0033500D02*
X0091000Y0061000D01*
D17*
X0028500Y0086000D02*
X0021000Y0086000D01*
X0013900Y0078900D01*
X0013900Y0058100D01*
X0016000Y0056000D01*
X0021591Y0056000D01*
X0021669Y0056079D01*
D18*
X0011200Y0050476D02*
X0011200Y0026045D01*
X0011716Y0026343D01*
X0014539Y0027099D01*
X0017461Y0027099D01*
X0020284Y0026343D01*
X0022815Y0024882D01*
X0024882Y0022815D01*
X0026343Y0020284D01*
X0027099Y0017461D01*
X0027099Y0014539D01*
X0026343Y0011716D01*
X0026045Y0011200D01*
X0113455Y0011200D01*
X0113157Y0011716D01*
X0112401Y0014539D01*
X0112401Y0017461D01*
X0113157Y0020284D01*
X0114618Y0022815D01*
X0116685Y0024882D01*
X0119216Y0026343D01*
X0122039Y0027099D01*
X0124961Y0027099D01*
X0127784Y0026343D01*
X0128300Y0026045D01*
X0128300Y0078729D01*
X0123832Y0074261D01*
X0121995Y0073500D01*
X0102505Y0073500D01*
X0100668Y0074261D01*
X0099261Y0075668D01*
X0099261Y0075668D01*
X0095591Y0079338D01*
X0094912Y0079057D01*
X0092088Y0079057D01*
X0089478Y0080138D01*
X0087481Y0082136D01*
X0086400Y0084745D01*
X0086400Y0087570D01*
X0087481Y0090179D01*
X0089478Y0092177D01*
X0092088Y0093257D01*
X0094912Y0093257D01*
X0097522Y0092177D01*
X0099519Y0090179D01*
X0099963Y0089108D01*
X0105571Y0083500D01*
X0118929Y0083500D01*
X0121000Y0085571D01*
X0121000Y0086949D01*
X0118651Y0084600D01*
X0113349Y0084600D01*
X0109600Y0088349D01*
X0109600Y0093651D01*
X0113349Y0097400D01*
X0113377Y0097400D01*
X0111600Y0099177D01*
X0111600Y0101000D01*
X0116000Y0101000D01*
X0116000Y0101000D01*
X0116000Y0105400D01*
X0117823Y0105400D01*
X0120400Y0102823D01*
X0120400Y0101951D01*
X0120849Y0102400D01*
X0126151Y0102400D01*
X0128300Y0100251D01*
X0128300Y0133455D01*
X0127784Y0133157D01*
X0124961Y0132401D01*
X0122039Y0132401D01*
X0119216Y0133157D01*
X0116685Y0134618D01*
X0115676Y0135628D01*
X0116725Y0133094D01*
X0116725Y0130245D01*
X0115635Y0127612D01*
X0113620Y0125597D01*
X0110988Y0124507D01*
X0108138Y0124507D01*
X0107001Y0124978D01*
X0107001Y0123506D01*
X0106240Y0121669D01*
X0104833Y0120262D01*
X0098500Y0113929D01*
X0098500Y0110883D01*
X0099519Y0109864D01*
X0100600Y0107255D01*
X0100600Y0104430D01*
X0099519Y0101821D01*
X0097522Y0099823D01*
X0094912Y0098743D01*
X0092088Y0098743D01*
X0089478Y0099823D01*
X0087481Y0101821D01*
X0086400Y0104430D01*
X0086400Y0107255D01*
X0087481Y0109864D01*
X0088500Y0110883D01*
X0088500Y0116995D01*
X0089261Y0118832D01*
X0090668Y0120239D01*
X0097001Y0126572D01*
X0097001Y0127430D01*
X0083500Y0113929D01*
X0083500Y0110883D01*
X0084519Y0109864D01*
X0085600Y0107255D01*
X0085600Y0104430D01*
X0084519Y0101821D01*
X0082522Y0099823D01*
X0079912Y0098743D01*
X0077088Y0098743D01*
X0074478Y0099823D01*
X0072481Y0101821D01*
X0071400Y0104430D01*
X0071400Y0107255D01*
X0072481Y0109864D01*
X0073500Y0110883D01*
X0073500Y0116995D01*
X0074261Y0118832D01*
X0075668Y0120239D01*
X0088421Y0132992D01*
X0088421Y0134025D01*
X0088082Y0133885D01*
X0087818Y0133246D01*
X0068500Y0113929D01*
X0068500Y0110883D01*
X0069519Y0109864D01*
X0070600Y0107255D01*
X0070600Y0104430D01*
X0069519Y0101821D01*
X0067522Y0099823D01*
X0064912Y0098743D01*
X0062088Y0098743D01*
X0059478Y0099823D01*
X0057481Y0101821D01*
X0056400Y0104430D01*
X0056400Y0107255D01*
X0057481Y0109864D01*
X0058500Y0110883D01*
X0058500Y0116995D01*
X0059261Y0118832D01*
X0060668Y0120239D01*
X0073991Y0133562D01*
X0073133Y0133562D01*
X0053500Y0113929D01*
X0053500Y0110883D01*
X0054519Y0109864D01*
X0055600Y0107255D01*
X0055600Y0104430D01*
X0054519Y0101821D01*
X0052522Y0099823D01*
X0049912Y0098743D01*
X0047088Y0098743D01*
X0044478Y0099823D01*
X0042481Y0101821D01*
X0041400Y0104430D01*
X0041400Y0107255D01*
X0042481Y0109864D01*
X0043500Y0110883D01*
X0043500Y0116995D01*
X0044261Y0118832D01*
X0045668Y0120239D01*
X0050188Y0124759D01*
X0048163Y0125597D01*
X0046149Y0127612D01*
X0045058Y0130245D01*
X0045058Y0133094D01*
X0046106Y0135622D01*
X0046106Y0140146D01*
X0046106Y0140515D01*
X0050690Y0140515D01*
X0050690Y0143536D01*
X0050567Y0143994D01*
X0050330Y0144404D01*
X0049995Y0144740D01*
X0049585Y0144977D01*
X0049127Y0145099D01*
X0046106Y0145099D01*
X0046106Y0140515D01*
X0045737Y0140515D01*
X0045737Y0145099D01*
X0042716Y0145099D01*
X0042445Y0145027D01*
X0042269Y0145452D01*
X0041920Y0145800D01*
X0067895Y0145800D01*
X0067546Y0145452D01*
X0066968Y0144055D01*
X0066968Y0141539D01*
X0059131Y0133702D01*
X0058292Y0135726D01*
X0056278Y0137741D01*
X0053645Y0138831D01*
X0050796Y0138831D01*
X0050690Y0138788D01*
X0050690Y0140146D01*
X0046106Y0140146D01*
X0045737Y0140146D01*
X0045737Y0135562D01*
X0042716Y0135562D01*
X0042445Y0135635D01*
X0042269Y0135210D01*
X0041200Y0134141D01*
X0039803Y0133562D01*
X0032354Y0133562D01*
X0030958Y0134141D01*
X0029889Y0135210D01*
X0029310Y0136606D01*
X0029310Y0144055D01*
X0029889Y0145452D01*
X0030237Y0145800D01*
X0026045Y0145800D01*
X0026343Y0145284D01*
X0027099Y0142461D01*
X0027099Y0139539D01*
X0026343Y0136716D01*
X0024882Y0134185D01*
X0022815Y0132118D01*
X0020284Y0130657D01*
X0017461Y0129901D01*
X0014539Y0129901D01*
X0011716Y0130657D01*
X0011200Y0130955D01*
X0011200Y0086524D01*
X0016865Y0092189D01*
X0019548Y0093300D01*
X0020091Y0093300D01*
X0019500Y0094727D01*
X0019500Y0097273D01*
X0020474Y0099625D01*
X0022275Y0101426D01*
X0023880Y0102091D01*
X0023594Y0102237D01*
X0023034Y0102644D01*
X0022544Y0103134D01*
X0022137Y0103694D01*
X0021822Y0104311D01*
X0021608Y0104970D01*
X0021500Y0105654D01*
X0021500Y0106000D01*
X0028500Y0106000D01*
X0028500Y0106000D01*
X0028500Y0110400D01*
X0031446Y0110400D01*
X0032130Y0110292D01*
X0032789Y0110078D01*
X0033406Y0109763D01*
X0033966Y0109356D01*
X0034456Y0108866D01*
X0034863Y0108306D01*
X0035178Y0107689D01*
X0035392Y0107030D01*
X0035500Y0106346D01*
X0035500Y0106000D01*
X0028500Y0106000D01*
X0028500Y0106000D01*
X0028500Y0106000D01*
X0028500Y0110400D01*
X0025554Y0110400D01*
X0024870Y0110292D01*
X0024211Y0110078D01*
X0023594Y0109763D01*
X0023034Y0109356D01*
X0022544Y0108866D01*
X0022137Y0108306D01*
X0021822Y0107689D01*
X0021608Y0107030D01*
X0021500Y0106346D01*
X0021500Y0106000D01*
X0028500Y0106000D01*
X0035500Y0106000D01*
X0035500Y0105654D01*
X0035392Y0104970D01*
X0035178Y0104311D01*
X0034863Y0103694D01*
X0034456Y0103134D01*
X0033966Y0102644D01*
X0033406Y0102237D01*
X0033120Y0102091D01*
X0034725Y0101426D01*
X0034751Y0101400D01*
X0039732Y0101400D01*
X0041716Y0100578D01*
X0043235Y0099059D01*
X0043235Y0099059D01*
X0049037Y0093257D01*
X0049912Y0093257D01*
X0052522Y0092177D01*
X0054519Y0090179D01*
X0055600Y0087570D01*
X0055600Y0084745D01*
X0054519Y0082136D01*
X0052522Y0080138D01*
X0049912Y0079057D01*
X0047088Y0079057D01*
X0044478Y0080138D01*
X0042481Y0082136D01*
X0041400Y0084745D01*
X0041400Y0085621D01*
X0036421Y0090600D01*
X0035551Y0090600D01*
X0036526Y0089625D01*
X0037500Y0087273D01*
X0037500Y0084727D01*
X0036526Y0082375D01*
X0034725Y0080574D01*
X0032373Y0079600D01*
X0032125Y0079600D01*
X0031600Y0079383D01*
X0031755Y0079383D01*
X0034388Y0078292D01*
X0036403Y0076278D01*
X0037493Y0073645D01*
X0037493Y0070796D01*
X0036403Y0068163D01*
X0034388Y0066149D01*
X0031755Y0065058D01*
X0028906Y0065058D01*
X0028438Y0065252D01*
X0028438Y0062197D01*
X0027942Y0061000D01*
X0028438Y0059803D01*
X0028438Y0058814D01*
X0028969Y0057531D01*
X0028969Y0054627D01*
X0028438Y0053344D01*
X0028438Y0052354D01*
X0027859Y0050958D01*
X0026790Y0049889D01*
X0025394Y0049310D01*
X0024516Y0049310D01*
X0023043Y0048700D01*
X0014548Y0048700D01*
X0011865Y0049811D01*
X0011200Y0050476D01*
X0011200Y0049160D02*
X0013438Y0049160D01*
X0011200Y0047561D02*
X0053900Y0047561D01*
X0053900Y0045963D02*
X0011200Y0045963D01*
X0011200Y0044364D02*
X0053900Y0044364D01*
X0053900Y0042766D02*
X0011200Y0042766D01*
X0011200Y0041167D02*
X0053900Y0041167D01*
X0053900Y0039569D02*
X0011200Y0039569D01*
X0011200Y0037970D02*
X0053900Y0037970D01*
X0053900Y0036372D02*
X0046367Y0036372D01*
X0046337Y0036403D02*
X0043704Y0037493D01*
X0040855Y0037493D01*
X0038222Y0036403D01*
X0036208Y0034388D01*
X0035117Y0031755D01*
X0035117Y0028906D01*
X0036208Y0026274D01*
X0038222Y0024259D01*
X0040855Y0023169D01*
X0041810Y0023169D01*
X0041810Y0017945D01*
X0042389Y0016548D01*
X0043458Y0015479D01*
X0044854Y0014901D01*
X0052303Y0014901D01*
X0053500Y0015397D01*
X0054697Y0014901D01*
X0056209Y0014901D01*
X0057009Y0014569D01*
X0059834Y0014569D01*
X0060634Y0014901D01*
X0062146Y0014901D01*
X0063542Y0015479D01*
X0064611Y0016548D01*
X0065190Y0017945D01*
X0065190Y0018397D01*
X0067019Y0020226D01*
X0068100Y0022836D01*
X0068100Y0062412D01*
X0067019Y0065022D01*
X0065022Y0067019D01*
X0062595Y0068024D01*
X0067739Y0073168D01*
X0068500Y0075005D01*
X0068500Y0081117D01*
X0069519Y0082136D01*
X0070600Y0084745D01*
X0070600Y0087570D01*
X0069519Y0090179D01*
X0067522Y0092177D01*
X0064912Y0093257D01*
X0062088Y0093257D01*
X0059478Y0092177D01*
X0057481Y0090179D01*
X0056400Y0087570D01*
X0056400Y0084745D01*
X0057481Y0082136D01*
X0058500Y0081117D01*
X0058500Y0078071D01*
X0055329Y0074900D01*
X0053349Y0074900D01*
X0049600Y0071151D01*
X0049600Y0065849D01*
X0050049Y0065400D01*
X0049177Y0065400D01*
X0046600Y0062823D01*
X0046600Y0061000D01*
X0051000Y0061000D01*
X0051000Y0056600D01*
X0052823Y0056600D01*
X0053900Y0057677D01*
X0053900Y0028108D01*
X0053500Y0027942D01*
X0052303Y0028438D01*
X0049248Y0028438D01*
X0049442Y0028906D01*
X0049442Y0031755D01*
X0048351Y0034388D01*
X0046337Y0036403D01*
X0047966Y0034773D02*
X0053900Y0034773D01*
X0053900Y0033175D02*
X0048854Y0033175D01*
X0049442Y0031576D02*
X0053900Y0031576D01*
X0053900Y0029978D02*
X0049442Y0029978D01*
X0052445Y0028379D02*
X0053900Y0028379D01*
X0064877Y0017190D02*
X0077123Y0017190D01*
X0077389Y0016548D02*
X0078458Y0015479D01*
X0079854Y0014901D01*
X0087303Y0014901D01*
X0088500Y0015397D01*
X0089697Y0014901D01*
X0091209Y0014901D01*
X0092009Y0014569D01*
X0094834Y0014569D01*
X0095634Y0014901D01*
X0097146Y0014901D01*
X0098542Y0015479D01*
X0099611Y0016548D01*
X0100190Y0017945D01*
X0100190Y0019345D01*
X0100600Y0020336D01*
X0100600Y0032412D01*
X0099519Y0035022D01*
X0098100Y0036441D01*
X0098100Y0062412D01*
X0097019Y0065022D01*
X0095022Y0067019D01*
X0092412Y0068100D01*
X0092400Y0068100D01*
X0092400Y0071151D01*
X0088651Y0074900D01*
X0086671Y0074900D01*
X0083500Y0078071D01*
X0083500Y0081117D01*
X0084519Y0082136D01*
X0085600Y0084745D01*
X0085600Y0087570D01*
X0084519Y0090179D01*
X0082522Y0092177D01*
X0079912Y0093257D01*
X0077088Y0093257D01*
X0074478Y0092177D01*
X0072481Y0090179D01*
X0071400Y0087570D01*
X0071400Y0084745D01*
X0072481Y0082136D01*
X0073500Y0081117D01*
X0073500Y0075005D01*
X0074261Y0073168D01*
X0079600Y0067829D01*
X0079600Y0065849D01*
X0080049Y0065400D01*
X0079177Y0065400D01*
X0076600Y0062823D01*
X0076600Y0061000D01*
X0081000Y0061000D01*
X0081000Y0056600D01*
X0082823Y0056600D01*
X0083900Y0057677D01*
X0083900Y0033063D01*
X0083351Y0034388D01*
X0081337Y0036403D01*
X0078704Y0037493D01*
X0075855Y0037493D01*
X0073222Y0036403D01*
X0071208Y0034388D01*
X0070117Y0031755D01*
X0070117Y0028906D01*
X0071208Y0026274D01*
X0073222Y0024259D01*
X0075855Y0023169D01*
X0076810Y0023169D01*
X0076810Y0017945D01*
X0077389Y0016548D01*
X0078346Y0015591D02*
X0063654Y0015591D01*
X0065581Y0018788D02*
X0076810Y0018788D01*
X0076810Y0020387D02*
X0067086Y0020387D01*
X0067748Y0021985D02*
X0076810Y0021985D01*
X0074853Y0023584D02*
X0068100Y0023584D01*
X0068100Y0025182D02*
X0072299Y0025182D01*
X0070998Y0026781D02*
X0068100Y0026781D01*
X0068100Y0028379D02*
X0070336Y0028379D01*
X0070117Y0029978D02*
X0068100Y0029978D01*
X0068100Y0031576D02*
X0070117Y0031576D01*
X0070705Y0033175D02*
X0068100Y0033175D01*
X0068100Y0034773D02*
X0071593Y0034773D01*
X0073192Y0036372D02*
X0068100Y0036372D01*
X0068100Y0037970D02*
X0083900Y0037970D01*
X0083900Y0036372D02*
X0081367Y0036372D01*
X0082966Y0034773D02*
X0083900Y0034773D01*
X0083854Y0033175D02*
X0083900Y0033175D01*
X0083900Y0039569D02*
X0068100Y0039569D01*
X0068100Y0041167D02*
X0083900Y0041167D01*
X0083900Y0042766D02*
X0068100Y0042766D01*
X0068100Y0044364D02*
X0083900Y0044364D01*
X0083900Y0045963D02*
X0068100Y0045963D01*
X0068100Y0047561D02*
X0083900Y0047561D01*
X0083900Y0049160D02*
X0068100Y0049160D01*
X0068100Y0050758D02*
X0083900Y0050758D01*
X0083900Y0052357D02*
X0068100Y0052357D01*
X0068100Y0053955D02*
X0083900Y0053955D01*
X0083900Y0055554D02*
X0068100Y0055554D01*
X0068100Y0057152D02*
X0078625Y0057152D01*
X0079177Y0056600D02*
X0081000Y0056600D01*
X0081000Y0061000D01*
X0081000Y0061000D01*
X0081000Y0061000D01*
X0076600Y0061000D01*
X0076600Y0059177D01*
X0079177Y0056600D01*
X0077027Y0058751D02*
X0068100Y0058751D01*
X0068100Y0060349D02*
X0076600Y0060349D01*
X0076600Y0061948D02*
X0068100Y0061948D01*
X0067630Y0063546D02*
X0077324Y0063546D01*
X0078922Y0065145D02*
X0066896Y0065145D01*
X0065297Y0066743D02*
X0079600Y0066743D01*
X0079087Y0068342D02*
X0062913Y0068342D01*
X0064512Y0069940D02*
X0077488Y0069940D01*
X0075890Y0071539D02*
X0066110Y0071539D01*
X0067709Y0073137D02*
X0074291Y0073137D01*
X0073612Y0074736D02*
X0068388Y0074736D01*
X0068500Y0076334D02*
X0073500Y0076334D01*
X0073500Y0077933D02*
X0068500Y0077933D01*
X0068500Y0079532D02*
X0073500Y0079532D01*
X0073487Y0081130D02*
X0068513Y0081130D01*
X0069765Y0082729D02*
X0072235Y0082729D01*
X0071573Y0084327D02*
X0070427Y0084327D01*
X0070600Y0085926D02*
X0071400Y0085926D01*
X0071400Y0087524D02*
X0070600Y0087524D01*
X0069957Y0089123D02*
X0072043Y0089123D01*
X0073023Y0090721D02*
X0068977Y0090721D01*
X0067176Y0092320D02*
X0074824Y0092320D01*
X0082176Y0092320D02*
X0089824Y0092320D01*
X0088023Y0090721D02*
X0083977Y0090721D01*
X0084957Y0089123D02*
X0087043Y0089123D01*
X0086400Y0087524D02*
X0085600Y0087524D01*
X0085600Y0085926D02*
X0086400Y0085926D01*
X0086573Y0084327D02*
X0085427Y0084327D01*
X0084765Y0082729D02*
X0087235Y0082729D01*
X0088487Y0081130D02*
X0083513Y0081130D01*
X0083500Y0079532D02*
X0090943Y0079532D01*
X0088815Y0074736D02*
X0100193Y0074736D01*
X0098594Y0076334D02*
X0085237Y0076334D01*
X0083638Y0077933D02*
X0096996Y0077933D01*
X0092012Y0071539D02*
X0114637Y0071539D01*
X0114141Y0071042D02*
X0115210Y0072111D01*
X0116606Y0072690D01*
X0124055Y0072690D01*
X0125452Y0072111D01*
X0126521Y0071042D01*
X0127099Y0069646D01*
X0127099Y0062197D01*
X0126603Y0061000D01*
X0127099Y0059803D01*
X0127099Y0052354D01*
X0126521Y0050958D01*
X0125452Y0049889D01*
X0124055Y0049310D01*
X0118831Y0049310D01*
X0118831Y0048355D01*
X0117741Y0045722D01*
X0115726Y0043708D01*
X0113094Y0042617D01*
X0110245Y0042617D01*
X0107612Y0043708D01*
X0105597Y0045722D01*
X0104507Y0048355D01*
X0104507Y0051204D01*
X0105597Y0053837D01*
X0107612Y0055851D01*
X0110245Y0056942D01*
X0113094Y0056942D01*
X0113562Y0056748D01*
X0113562Y0059803D01*
X0114058Y0061000D01*
X0113562Y0062197D01*
X0113562Y0069646D01*
X0114141Y0071042D01*
X0113684Y0069940D02*
X0092400Y0069940D01*
X0092400Y0068342D02*
X0113562Y0068342D01*
X0113562Y0066743D02*
X0095297Y0066743D01*
X0096896Y0065145D02*
X0113562Y0065145D01*
X0113562Y0063546D02*
X0097630Y0063546D01*
X0098100Y0061948D02*
X0113665Y0061948D01*
X0113788Y0060349D02*
X0098100Y0060349D01*
X0098100Y0058751D02*
X0113562Y0058751D01*
X0113562Y0057152D02*
X0098100Y0057152D01*
X0098100Y0055554D02*
X0107315Y0055554D01*
X0105716Y0053955D02*
X0098100Y0053955D01*
X0098100Y0052357D02*
X0104985Y0052357D01*
X0104507Y0050758D02*
X0098100Y0050758D01*
X0098100Y0049160D02*
X0104507Y0049160D01*
X0104836Y0047561D02*
X0098100Y0047561D01*
X0098100Y0045963D02*
X0105498Y0045963D01*
X0106956Y0044364D02*
X0098100Y0044364D01*
X0098100Y0042766D02*
X0109886Y0042766D01*
X0113452Y0042766D02*
X0128300Y0042766D01*
X0128300Y0044364D02*
X0116383Y0044364D01*
X0117841Y0045963D02*
X0128300Y0045963D01*
X0128300Y0047561D02*
X0118503Y0047561D01*
X0118831Y0049160D02*
X0128300Y0049160D01*
X0128300Y0050758D02*
X0126321Y0050758D01*
X0127099Y0052357D02*
X0128300Y0052357D01*
X0128300Y0053955D02*
X0127099Y0053955D01*
X0127099Y0055554D02*
X0128300Y0055554D01*
X0128300Y0057152D02*
X0127099Y0057152D01*
X0127099Y0058751D02*
X0128300Y0058751D01*
X0128300Y0060349D02*
X0126873Y0060349D01*
X0126996Y0061948D02*
X0128300Y0061948D01*
X0128300Y0063546D02*
X0127099Y0063546D01*
X0127099Y0065145D02*
X0128300Y0065145D01*
X0128300Y0066743D02*
X0127099Y0066743D01*
X0127099Y0068342D02*
X0128300Y0068342D01*
X0128300Y0069940D02*
X0126977Y0069940D01*
X0126024Y0071539D02*
X0128300Y0071539D01*
X0128300Y0073137D02*
X0090413Y0073137D01*
X0081000Y0060349D02*
X0081000Y0060349D01*
X0081000Y0058751D02*
X0081000Y0058751D01*
X0081000Y0057152D02*
X0081000Y0057152D01*
X0083375Y0057152D02*
X0083900Y0057152D01*
X0098100Y0041167D02*
X0128300Y0041167D01*
X0128300Y0039569D02*
X0098100Y0039569D01*
X0098100Y0037970D02*
X0128300Y0037970D01*
X0128300Y0036372D02*
X0098169Y0036372D01*
X0099622Y0034773D02*
X0128300Y0034773D01*
X0128300Y0033175D02*
X0100284Y0033175D01*
X0100600Y0031576D02*
X0128300Y0031576D01*
X0128300Y0029978D02*
X0100600Y0029978D01*
X0100600Y0028379D02*
X0128300Y0028379D01*
X0128300Y0026781D02*
X0126150Y0026781D01*
X0120850Y0026781D02*
X0100600Y0026781D01*
X0100600Y0025182D02*
X0117206Y0025182D01*
X0115387Y0023584D02*
X0100600Y0023584D01*
X0100600Y0021985D02*
X0114139Y0021985D01*
X0113216Y0020387D02*
X0100600Y0020387D01*
X0100190Y0018788D02*
X0112756Y0018788D01*
X0112401Y0017190D02*
X0099877Y0017190D01*
X0098654Y0015591D02*
X0112401Y0015591D01*
X0112547Y0013993D02*
X0026953Y0013993D01*
X0027099Y0015591D02*
X0043346Y0015591D01*
X0042123Y0017190D02*
X0027099Y0017190D01*
X0026744Y0018788D02*
X0041810Y0018788D01*
X0041810Y0020387D02*
X0026284Y0020387D01*
X0025361Y0021985D02*
X0041810Y0021985D01*
X0039853Y0023584D02*
X0024113Y0023584D01*
X0022294Y0025182D02*
X0037299Y0025182D01*
X0035998Y0026781D02*
X0018650Y0026781D01*
X0013350Y0026781D02*
X0011200Y0026781D01*
X0011200Y0028379D02*
X0035336Y0028379D01*
X0035117Y0029978D02*
X0011200Y0029978D01*
X0011200Y0031576D02*
X0035117Y0031576D01*
X0035705Y0033175D02*
X0011200Y0033175D01*
X0011200Y0034773D02*
X0036593Y0034773D01*
X0038192Y0036372D02*
X0011200Y0036372D01*
X0024153Y0049160D02*
X0053900Y0049160D01*
X0053900Y0050758D02*
X0027660Y0050758D01*
X0028438Y0052357D02*
X0053900Y0052357D01*
X0053900Y0053955D02*
X0028691Y0053955D01*
X0028969Y0055554D02*
X0053900Y0055554D01*
X0053900Y0057152D02*
X0053375Y0057152D01*
X0051000Y0057152D02*
X0051000Y0057152D01*
X0051000Y0056600D02*
X0051000Y0061000D01*
X0051000Y0061000D01*
X0051000Y0061000D01*
X0046600Y0061000D01*
X0046600Y0059177D01*
X0049177Y0056600D01*
X0051000Y0056600D01*
X0051000Y0058751D02*
X0051000Y0058751D01*
X0051000Y0060349D02*
X0051000Y0060349D01*
X0048625Y0057152D02*
X0028969Y0057152D01*
X0028464Y0058751D02*
X0047027Y0058751D01*
X0046600Y0060349D02*
X0028212Y0060349D01*
X0028335Y0061948D02*
X0046600Y0061948D01*
X0047324Y0063546D02*
X0028438Y0063546D01*
X0028438Y0065145D02*
X0028697Y0065145D01*
X0031965Y0065145D02*
X0048922Y0065145D01*
X0049600Y0066743D02*
X0034983Y0066743D01*
X0036476Y0068342D02*
X0049600Y0068342D01*
X0049600Y0069940D02*
X0037139Y0069940D01*
X0037493Y0071539D02*
X0049988Y0071539D01*
X0051587Y0073137D02*
X0037493Y0073137D01*
X0037041Y0074736D02*
X0053185Y0074736D01*
X0056763Y0076334D02*
X0036346Y0076334D01*
X0034747Y0077933D02*
X0058362Y0077933D01*
X0058500Y0079532D02*
X0051057Y0079532D01*
X0053513Y0081130D02*
X0058487Y0081130D01*
X0057235Y0082729D02*
X0054765Y0082729D01*
X0055427Y0084327D02*
X0056573Y0084327D01*
X0056400Y0085926D02*
X0055600Y0085926D01*
X0055600Y0087524D02*
X0056400Y0087524D01*
X0057043Y0089123D02*
X0054957Y0089123D01*
X0053977Y0090721D02*
X0058023Y0090721D01*
X0059824Y0092320D02*
X0052176Y0092320D01*
X0048376Y0093918D02*
X0109867Y0093918D01*
X0109600Y0092320D02*
X0097176Y0092320D01*
X0098977Y0090721D02*
X0109600Y0090721D01*
X0109600Y0089123D02*
X0099957Y0089123D01*
X0101547Y0087524D02*
X0110425Y0087524D01*
X0112023Y0085926D02*
X0103145Y0085926D01*
X0104744Y0084327D02*
X0119756Y0084327D01*
X0119977Y0085926D02*
X0121000Y0085926D01*
X0127504Y0077933D02*
X0128300Y0077933D01*
X0128300Y0076334D02*
X0125906Y0076334D01*
X0124307Y0074736D02*
X0128300Y0074736D01*
X0111466Y0095517D02*
X0046778Y0095517D01*
X0045179Y0097115D02*
X0113064Y0097115D01*
X0112064Y0098714D02*
X0043581Y0098714D01*
X0043989Y0100312D02*
X0041982Y0100312D01*
X0042444Y0101911D02*
X0033554Y0101911D01*
X0034729Y0103509D02*
X0041781Y0103509D01*
X0041400Y0105108D02*
X0035414Y0105108D01*
X0035443Y0106706D02*
X0041400Y0106706D01*
X0041835Y0108305D02*
X0034864Y0108305D01*
X0033131Y0109903D02*
X0042520Y0109903D01*
X0043500Y0111502D02*
X0011200Y0111502D01*
X0011200Y0113100D02*
X0043500Y0113100D01*
X0043500Y0114699D02*
X0011200Y0114699D01*
X0011200Y0116297D02*
X0043500Y0116297D01*
X0043873Y0117896D02*
X0011200Y0117896D01*
X0011200Y0119494D02*
X0044923Y0119494D01*
X0046522Y0121093D02*
X0011200Y0121093D01*
X0011200Y0122691D02*
X0048120Y0122691D01*
X0049719Y0124290D02*
X0011200Y0124290D01*
X0011200Y0125888D02*
X0047873Y0125888D01*
X0046274Y0127487D02*
X0011200Y0127487D01*
X0011200Y0129085D02*
X0045538Y0129085D01*
X0045058Y0130684D02*
X0020330Y0130684D01*
X0022979Y0132282D02*
X0045058Y0132282D01*
X0045384Y0133881D02*
X0040573Y0133881D01*
X0042380Y0135479D02*
X0046046Y0135479D01*
X0046106Y0137078D02*
X0045737Y0137078D01*
X0045737Y0138676D02*
X0046106Y0138676D01*
X0046106Y0140275D02*
X0065704Y0140275D01*
X0066968Y0141873D02*
X0050690Y0141873D01*
X0050690Y0143472D02*
X0066968Y0143472D01*
X0067388Y0145070D02*
X0049234Y0145070D01*
X0046106Y0145070D02*
X0045737Y0145070D01*
X0045737Y0143472D02*
X0046106Y0143472D01*
X0046106Y0141873D02*
X0045737Y0141873D01*
X0042609Y0145070D02*
X0042427Y0145070D01*
X0054019Y0138676D02*
X0064105Y0138676D01*
X0062507Y0137078D02*
X0056941Y0137078D01*
X0058395Y0135479D02*
X0060908Y0135479D01*
X0059310Y0133881D02*
X0059057Y0133881D01*
X0065459Y0125888D02*
X0066317Y0125888D01*
X0067058Y0127487D02*
X0067916Y0127487D01*
X0068656Y0129085D02*
X0069514Y0129085D01*
X0070255Y0130684D02*
X0071113Y0130684D01*
X0071853Y0132282D02*
X0072711Y0132282D01*
X0080459Y0125888D02*
X0081317Y0125888D01*
X0082058Y0127487D02*
X0082916Y0127487D01*
X0083656Y0129085D02*
X0084514Y0129085D01*
X0085255Y0130684D02*
X0086113Y0130684D01*
X0086853Y0132282D02*
X0087711Y0132282D01*
X0088080Y0133881D02*
X0088421Y0133881D01*
X0095459Y0125888D02*
X0096317Y0125888D01*
X0094719Y0124290D02*
X0093861Y0124290D01*
X0093120Y0122691D02*
X0092262Y0122691D01*
X0091522Y0121093D02*
X0090664Y0121093D01*
X0089923Y0119494D02*
X0089065Y0119494D01*
X0088873Y0117896D02*
X0087467Y0117896D01*
X0088500Y0116297D02*
X0085868Y0116297D01*
X0084270Y0114699D02*
X0088500Y0114699D01*
X0088500Y0113100D02*
X0083500Y0113100D01*
X0083500Y0111502D02*
X0088500Y0111502D01*
X0087520Y0109903D02*
X0084480Y0109903D01*
X0085165Y0108305D02*
X0086835Y0108305D01*
X0086400Y0106706D02*
X0085600Y0106706D01*
X0085600Y0105108D02*
X0086400Y0105108D01*
X0086781Y0103509D02*
X0085218Y0103509D01*
X0084556Y0101911D02*
X0087444Y0101911D01*
X0088989Y0100312D02*
X0083011Y0100312D01*
X0073989Y0100312D02*
X0068011Y0100312D01*
X0069556Y0101911D02*
X0072444Y0101911D01*
X0071781Y0103509D02*
X0070218Y0103509D01*
X0070600Y0105108D02*
X0071400Y0105108D01*
X0071400Y0106706D02*
X0070600Y0106706D01*
X0070165Y0108305D02*
X0071835Y0108305D01*
X0072520Y0109903D02*
X0069480Y0109903D01*
X0068500Y0111502D02*
X0073500Y0111502D01*
X0073500Y0113100D02*
X0068500Y0113100D01*
X0069270Y0114699D02*
X0073500Y0114699D01*
X0073500Y0116297D02*
X0070868Y0116297D01*
X0072467Y0117896D02*
X0073873Y0117896D01*
X0074065Y0119494D02*
X0074923Y0119494D01*
X0075664Y0121093D02*
X0076522Y0121093D01*
X0077262Y0122691D02*
X0078120Y0122691D01*
X0078861Y0124290D02*
X0079719Y0124290D01*
X0064719Y0124290D02*
X0063861Y0124290D01*
X0063120Y0122691D02*
X0062262Y0122691D01*
X0061522Y0121093D02*
X0060664Y0121093D01*
X0059923Y0119494D02*
X0059065Y0119494D01*
X0058873Y0117896D02*
X0057467Y0117896D01*
X0058500Y0116297D02*
X0055868Y0116297D01*
X0054270Y0114699D02*
X0058500Y0114699D01*
X0058500Y0113100D02*
X0053500Y0113100D01*
X0053500Y0111502D02*
X0058500Y0111502D01*
X0057520Y0109903D02*
X0054480Y0109903D01*
X0055165Y0108305D02*
X0056835Y0108305D01*
X0056400Y0106706D02*
X0055600Y0106706D01*
X0055600Y0105108D02*
X0056400Y0105108D01*
X0056781Y0103509D02*
X0055218Y0103509D01*
X0054556Y0101911D02*
X0057444Y0101911D01*
X0058989Y0100312D02*
X0053011Y0100312D01*
X0041095Y0085926D02*
X0037500Y0085926D01*
X0037396Y0087524D02*
X0039497Y0087524D01*
X0037898Y0089123D02*
X0036734Y0089123D01*
X0037334Y0084327D02*
X0041573Y0084327D01*
X0042235Y0082729D02*
X0036672Y0082729D01*
X0035281Y0081130D02*
X0043487Y0081130D01*
X0045943Y0079532D02*
X0031960Y0079532D01*
X0019835Y0093918D02*
X0011200Y0093918D01*
X0011200Y0092320D02*
X0017181Y0092320D01*
X0015397Y0090721D02*
X0011200Y0090721D01*
X0011200Y0089123D02*
X0013799Y0089123D01*
X0012200Y0087524D02*
X0011200Y0087524D01*
X0011200Y0095517D02*
X0019500Y0095517D01*
X0019500Y0097115D02*
X0011200Y0097115D01*
X0011200Y0098714D02*
X0020097Y0098714D01*
X0021161Y0100312D02*
X0011200Y0100312D01*
X0011200Y0101911D02*
X0023446Y0101911D01*
X0022271Y0103509D02*
X0011200Y0103509D01*
X0011200Y0105108D02*
X0021586Y0105108D01*
X0021557Y0106706D02*
X0011200Y0106706D01*
X0011200Y0108305D02*
X0022136Y0108305D01*
X0023869Y0109903D02*
X0011200Y0109903D01*
X0028500Y0109903D02*
X0028500Y0109903D01*
X0028500Y0108305D02*
X0028500Y0108305D01*
X0028500Y0106706D02*
X0028500Y0106706D01*
X0011670Y0130684D02*
X0011200Y0130684D01*
X0024578Y0133881D02*
X0031585Y0133881D01*
X0029777Y0135479D02*
X0025629Y0135479D01*
X0026440Y0137078D02*
X0029310Y0137078D01*
X0029310Y0138676D02*
X0026868Y0138676D01*
X0027099Y0140275D02*
X0029310Y0140275D01*
X0029310Y0141873D02*
X0027099Y0141873D01*
X0026828Y0143472D02*
X0029310Y0143472D01*
X0029731Y0145070D02*
X0026400Y0145070D01*
X0098500Y0113100D02*
X0128300Y0113100D01*
X0128300Y0111502D02*
X0098500Y0111502D01*
X0099480Y0109903D02*
X0128300Y0109903D01*
X0128300Y0108305D02*
X0100165Y0108305D01*
X0100600Y0106706D02*
X0128300Y0106706D01*
X0128300Y0105108D02*
X0118115Y0105108D01*
X0116000Y0105108D02*
X0116000Y0105108D01*
X0116000Y0105400D02*
X0114177Y0105400D01*
X0111600Y0102823D01*
X0111600Y0101000D01*
X0116000Y0101000D01*
X0116000Y0101000D01*
X0116000Y0105400D01*
X0116000Y0103509D02*
X0116000Y0103509D01*
X0116000Y0101911D02*
X0116000Y0101911D01*
X0113885Y0105108D02*
X0100600Y0105108D01*
X0100218Y0103509D02*
X0112287Y0103509D01*
X0111600Y0101911D02*
X0099556Y0101911D01*
X0098011Y0100312D02*
X0111600Y0100312D01*
X0119713Y0103509D02*
X0128300Y0103509D01*
X0128300Y0101911D02*
X0126640Y0101911D01*
X0128239Y0100312D02*
X0128300Y0100312D01*
X0128300Y0114699D02*
X0099270Y0114699D01*
X0100868Y0116297D02*
X0128300Y0116297D01*
X0128300Y0117896D02*
X0102467Y0117896D01*
X0104065Y0119494D02*
X0128300Y0119494D01*
X0128300Y0121093D02*
X0105664Y0121093D01*
X0106663Y0122691D02*
X0128300Y0122691D01*
X0128300Y0124290D02*
X0107001Y0124290D01*
X0113911Y0125888D02*
X0128300Y0125888D01*
X0128300Y0127487D02*
X0115509Y0127487D01*
X0116245Y0129085D02*
X0128300Y0129085D01*
X0128300Y0130684D02*
X0116725Y0130684D01*
X0116725Y0132282D02*
X0128300Y0132282D01*
X0117962Y0133881D02*
X0116399Y0133881D01*
X0115824Y0135479D02*
X0115737Y0135479D01*
X0112975Y0012394D02*
X0026525Y0012394D01*
M02*
